<?xml version="1.0" encoding="UTF-8" standalone="no"?><!DOCTYPE svg PUBLIC "-//W3C//DTD SVG 1.1//EN" "http://www.w3.org/Graphics/SVG/1.1/DTD/svg11.dtd"><svg width="100%" height="100%" viewBox="0 0 800 800" version="1.1" xmlns="http://www.w3.org/2000/svg" xmlns:xlink="http://www.w3.org/1999/xlink" xml:space="preserve" xmlns:serif="http://www.serif.com/" style="fill-rule:evenodd;clip-rule:evenodd;stroke-linejoin:round;stroke-miterlimit:2;"><rect id="facebook" x="0" y="0" width="800" height="800" style="fill:none;"/><g id="facebook1" serif:id="facebook"><path d="M127.69,782.099l544.62,0c60.631,0 109.789,-49.158 109.789,-109.789c0,0 0,-544.62 0,-544.62c0,-60.631 -49.158,-109.789 -109.789,-109.789c0,-0 -544.62,-0 -544.62,-0c-60.631,-0 -109.789,49.158 -109.789,109.789c-0,-0 -0,544.62 -0,544.62c-0,60.631 49.158,109.789 109.789,109.789Zm412.279,-83.422l132.341,-0c14.561,-0 26.367,-11.806 26.367,-26.367l-0,-544.62c-0,-14.561 -11.806,-26.367 -26.367,-26.367l-544.62,0c-14.561,0 -26.367,11.806 -26.367,26.367l0,544.62c0,14.561 11.806,26.367 26.367,26.367l268.496,-0l0,-209.766l-30.225,-0c-11.506,-0 -20.833,-9.327 -20.833,-20.833l-0,-85.097c-0,-11.506 9.327,-20.834 20.833,-20.834c0,0 30.225,0 30.225,0l0,-30.225c0,-47.661 15.354,-87.766 43.951,-112.549c19.783,-17.145 46.028,-27.42 78.999,-27.42c54.64,0 94.064,19.048 94.064,19.048c7.249,3.457 11.866,10.774 11.866,18.805l0,68.078c0,11.506 -9.327,20.833 -20.833,20.833l-34.039,-0c-8.436,-0 -15.459,0.453 -21.188,1.713c-3.522,0.775 -6.42,1.14 -7.755,3.424c-1.21,2.07 -1.282,4.79 -1.282,8.068c0,0 0,30.225 0,30.225l64.264,0c6.241,0 12.154,2.799 16.111,7.626c3.957,4.826 5.542,11.173 4.317,17.293l-17.019,85.097c-1.947,9.738 -10.498,16.748 -20.429,16.748c0,-0 -47.244,-0 -47.244,-0l0,209.766Zm-41.667,-0l0,-230.599c0,-11.506 9.328,-20.834 20.834,-20.834c-0,0 50.998,0 50.998,0c0,0 8.686,-43.43 8.686,-43.43l-59.684,-0c-11.506,-0 -20.834,-9.327 -20.834,-20.833c0,-0 0,-51.059 0,-51.059c0,-16.753 4.866,-28.711 13.305,-37.451c10.457,-10.831 28.822,-17.421 58.587,-17.421c-0,0 13.205,0 13.205,0c0,0 0,-32.991 0,-32.991c-13.152,-4.411 -36.251,-10.439 -64.263,-10.439c-21.492,-0 -38.815,6.064 -51.71,17.24c-20.423,17.699 -29.573,47.025 -29.573,81.062l-0,51.059c-0,11.506 -9.328,20.833 -20.834,20.833c0,-0 -30.224,-0 -30.224,-0c-0,-0 -0,43.43 -0,43.43l30.224,0c11.506,0 20.834,9.328 20.834,20.834l-0,230.599l60.449,-0Z" style="fill:#fff;"/></g></svg>