<?xml version="1.0" encoding="UTF-8" standalone="no"?>
<!DOCTYPE svg PUBLIC "-//W3C//DTD SVG 1.1//EN" "http://www.w3.org/Graphics/SVG/1.1/DTD/svg11.dtd">
<svg width="100%" height="100%" viewBox="0 0 24 24" version="1.1" xmlns="http://www.w3.org/2000/svg" xmlns:xlink="http://www.w3.org/1999/xlink" xml:space="preserve" xmlns:serif="http://www.serif.com/" style="fill-rule:evenodd;clip-rule:evenodd;stroke-linejoin:round;stroke-miterlimit:2;">
    <path d="M12,15.174C16.339,15.174 20,15.879 20,18.599C20,21.32 16.315,22 12,22C7.662,22 4,21.295 4,18.575C4,15.854 7.685,15.174 12,15.174ZM11.98,2L12.021,2C14.914,2 17.294,4.38 17.294,7.273L17.294,7.309C17.294,10.202 14.913,12.583 12.02,12.583L11.981,12.583C9.087,12.583 6.706,10.202 6.706,7.308L6.706,7.274C6.706,4.381 9.087,2 11.98,2Z" style="fill:white;fill-rule:nonzero;"/>
</svg>
