<?xml version="1.0" encoding="UTF-8" standalone="no"?>
<!DOCTYPE svg PUBLIC "-//W3C//DTD SVG 1.1//EN" "http://www.w3.org/Graphics/SVG/1.1/DTD/svg11.dtd">
<svg width="100%" height="100%" viewBox="0 0 24 24" version="1.1" xmlns="http://www.w3.org/2000/svg" xmlns:xlink="http://www.w3.org/1999/xlink" xml:space="preserve" xmlns:serif="http://www.serif.com/" style="fill-rule:evenodd;clip-rule:evenodd;stroke-linejoin:round;stroke-miterlimit:2;">
    <path d="M7,18C5.9,18 5.01,18.9 5.01,20C5.01,21.1 5.9,22 7,22C8.1,22 9,21.1 9,20C9,18.9 8.1,18 7,18ZM2,4L3,4L6.6,11.59L5.25,14.03C4.52,15.37 5.48,17 7,17L18,17C18.55,17 19,16.55 19,16C19,15.45 18.55,15 18,15L7,15L8.1,13L15.55,13C16.3,13 16.96,12.59 17.3,11.97L20.88,5.48C20.962,5.332 21.006,5.165 21.006,4.996C21.006,4.45 20.556,4 20.01,4L5.21,4L4.54,2.57C4.376,2.222 4.024,1.999 3.64,2L2,2C1.45,2 1,2.45 1,3C1,3.55 1.45,4 2,4ZM17,18C15.9,18 15.01,18.9 15.01,20C15.01,21.1 15.9,22 17,22C18.1,22 19,21.1 19,20C19,18.9 18.1,18 17,18Z" style="fill:white;fill-rule:nonzero;"/>
</svg>
