<?xml version="1.0" encoding="UTF-8" standalone="no"?><!DOCTYPE svg PUBLIC "-//W3C//DTD SVG 1.1//EN" "http://www.w3.org/Graphics/SVG/1.1/DTD/svg11.dtd"><svg width="100%" height="100%" viewBox="0 0 800 800" version="1.1" xmlns="http://www.w3.org/2000/svg" xmlns:xlink="http://www.w3.org/1999/xlink" xml:space="preserve" xmlns:serif="http://www.serif.com/" style="fill-rule:evenodd;clip-rule:evenodd;stroke-linejoin:round;stroke-miterlimit:2;"><rect id="instagram" x="0" y="0" width="800" height="800" style="fill:none;"/><path d="M245.304,783.626l309.42,0c126.441,0 228.925,-102.478 228.925,-228.953l0,-309.42c0,-126.441 -102.478,-228.925 -228.953,-228.925c-0,-0 -309.42,-0 -309.42,-0c-126.441,-0 -228.925,102.478 -228.925,228.953c-0,0 -0,309.42 -0,309.42c-0,126.44 102.478,228.925 228.953,228.925Zm0,-86.569c-78.651,0 -142.384,-63.727 -142.384,-142.356l-0,-309.42c-0,-78.651 63.726,-142.384 142.356,-142.384l309.42,-0c78.651,-0 142.384,63.726 142.384,142.356c0,-0 0,309.42 0,309.42c0,78.651 -63.726,142.384 -142.356,142.384l-309.42,0Zm154.696,-495.626c-109.664,-0 -198.546,88.882 -198.546,198.546c-0,109.664 88.882,198.546 198.546,198.546c109.664,0 198.546,-88.882 198.546,-198.546c0,-109.664 -88.882,-198.546 -198.546,-198.546Zm-0,56.727c78.331,0 141.819,63.488 141.819,141.819c-0,78.331 -63.488,141.819 -141.819,141.819c-78.331,-0 -141.819,-63.488 -141.819,-141.819c0,-78.331 63.488,-141.819 141.819,-141.819Zm212.728,-113.455c-23.485,0 -42.546,19.061 -42.546,42.546c0,23.485 19.061,42.545 42.546,42.545c23.485,0 42.546,-19.06 42.546,-42.545c-0,-23.485 -19.061,-42.546 -42.546,-42.546Z" style="fill:#fff;"/></svg>