<?xml version="1.0" encoding="UTF-8" standalone="no"?><!DOCTYPE svg PUBLIC "-//W3C//DTD SVG 1.1//EN" "http://www.w3.org/Graphics/SVG/1.1/DTD/svg11.dtd"><svg width="100%" height="100%" viewBox="0 0 800 800" version="1.1" xmlns="http://www.w3.org/2000/svg" xmlns:xlink="http://www.w3.org/1999/xlink" xml:space="preserve" xmlns:serif="http://www.serif.com/" style="fill-rule:evenodd;clip-rule:evenodd;stroke-linejoin:round;stroke-miterlimit:2;"><rect id="whatsapp" x="0" y="0" width="800" height="800" style="fill:none;"/><path d="M669.58,130.629c-71.837,-71.875 -167.366,-111.489 -269.142,-111.527c-209.722,0 -380.403,170.604 -380.479,380.327c-0.038,67.038 17.483,132.476 50.774,190.144l-51.612,191.325l199.324,-47.117c55.573,30.319 118.116,46.279 181.803,46.317l0.152,-0c209.684,-0 380.364,-170.642 380.479,-380.327c0.076,-101.661 -39.461,-197.228 -111.299,-269.142Zm-269.294,573.289c-50.774,-0.038 -101.053,-12.836 -145.351,-37.023l-25.634,-13.979l-28.377,6.704l-74.961,17.712l18.321,-67.952l8.228,-30.548l-15.808,-27.387c-26.586,-46.012 -40.603,-98.576 -40.565,-152.016c0.076,-167.672 136.552,-304.147 304.261,-304.147c81.36,0.038 157.806,31.729 215.283,89.168c57.478,57.515 89.092,133.962 89.016,215.245c-0.076,167.748 -136.59,304.223 -304.413,304.223Zm186.297,-168.547c-7.923,22.206 -46.736,43.613 -64.182,45.175c-17.445,1.599 -33.785,7.884 -114.078,-23.768c-96.634,-38.09 -157.654,-137.162 -162.377,-143.485c-4.761,-6.361 -38.814,-51.535 -38.814,-98.309c0,-46.775 24.568,-69.781 33.291,-79.265c8.722,-9.523 19.007,-11.884 25.368,-11.884c6.323,-0 12.683,-0 18.207,0.228c6.779,0.267 14.283,0.61 21.406,16.417c8.456,18.816 26.929,65.819 29.291,70.58c2.362,4.762 3.961,10.323 0.8,16.646c-3.162,6.322 -4.761,10.284 -9.484,15.845c-4.762,5.561 -9.98,12.379 -14.246,16.645c-4.761,4.723 -9.713,9.904 -4.19,19.388c5.561,9.522 24.606,40.642 52.869,65.819c36.337,32.376 66.923,42.394 76.446,47.193c9.522,4.761 15.045,3.962 20.606,-2.399c5.562,-6.323 23.768,-27.73 30.091,-37.252c6.323,-9.523 12.684,-7.923 21.407,-4.761c8.722,3.161 55.459,26.167 64.943,30.928c9.522,4.762 15.845,7.123 18.207,11.085c2.361,3.923 2.361,22.968 -5.561,45.174Z" style="fill:#fff;fill-rule:nonzero;"/></svg>