<?xml version="1.0" encoding="UTF-8" standalone="no"?><!DOCTYPE svg PUBLIC "-//W3C//DTD SVG 1.1//EN" "http://www.w3.org/Graphics/SVG/1.1/DTD/svg11.dtd"><svg width="100%" height="100%" viewBox="0 0 1375 892" version="1.1" xmlns="http://www.w3.org/2000/svg" xmlns:xlink="http://www.w3.org/1999/xlink" xml:space="preserve" xmlns:serif="http://www.serif.com/" style="fill-rule:evenodd;clip-rule:evenodd;stroke-miterlimit:10;"><g id="Caja-1" serif:id="Caja 1"><path d="M105.963,326.265l389.242,-219.512c0.338,-0.188 0.771,-0.242 1.171,-0.158l771.321,170.262c0.912,0.196 1.245,1.029 0.637,1.571l-309.587,276.467c-0.354,0.316 -0.938,0.437 -1.459,0.295l-850.975,-227.216c-0.983,-0.259 -1.187,-1.238 -0.35,-1.709Z" style="fill:#fff;fill-rule:nonzero;stroke:#c2a1f2;stroke-width:20.83px;"/><path d="M921.191,782.292l285.292,-272.404c0.054,-0.05 0.092,-0.109 0.108,-0.175l62.592,-230.813c0.117,-0.429 -0.604,-0.687 -0.979,-0.354l-309.942,276.783c-0.067,0.063 -0.112,0.138 -0.125,0.217l-37.946,226.437c-0.071,0.417 0.65,0.642 1,0.309Z" style="fill:#fff;fill-rule:nonzero;stroke:#c2a1f2;stroke-width:20.83px;"/><path d="M173.773,555.717l743.75,227.025c1.217,0.375 2.579,-0.217 2.742,-1.196l37.696,-224.933c0.112,-0.696 -0.429,-1.354 -1.313,-1.592l-849.204,-226.746c-1.487,-0.395 -2.975,0.588 -2.629,1.734l67.763,224.654c0.145,0.475 0.587,0.871 1.195,1.054Z" style="fill:#fff;fill-rule:nonzero;stroke:#c2a1f2;stroke-width:20.83px;"/></g></svg>