<?xml version="1.0" encoding="UTF-8" standalone="no"?><!DOCTYPE svg PUBLIC "-//W3C//DTD SVG 1.1//EN" "http://www.w3.org/Graphics/SVG/1.1/DTD/svg11.dtd"><svg width="100%" height="100%" viewBox="0 0 1646 1521" version="1.1" xmlns="http://www.w3.org/2000/svg" xmlns:xlink="http://www.w3.org/1999/xlink" xml:space="preserve" xmlns:serif="http://www.serif.com/" style="fill-rule:evenodd;clip-rule:evenodd;stroke-miterlimit:10;"><g id="Caja-3" serif:id="Caja 3"><path d="M127.995,1108.97l389.242,-156.783c0.333,-0.134 0.77,-0.175 1.166,-0.113l771.321,121.604c0.913,0.142 1.25,0.738 0.642,1.125l-309.588,197.467c-0.354,0.229 -0.937,0.312 -1.458,0.212l-850.975,-162.287c-0.983,-0.192 -1.188,-0.888 -0.35,-1.225Z" style="fill:#fff;fill-rule:nonzero;stroke:#c2a1f2;stroke-width:16.67px;"/><path d="M943.221,1434.69l285.296,-194.562c0.05,-0.038 0.087,-0.083 0.104,-0.129l62.596,-164.859c0.112,-0.304 -0.609,-0.491 -0.984,-0.254l-309.941,197.696c-0.067,0.042 -0.113,0.096 -0.125,0.154l-37.942,161.729c-0.075,0.305 0.646,0.467 0.996,0.225Z" style="fill:#fff;fill-rule:nonzero;stroke:#c2a1f2;stroke-width:16.67px;"/><path d="M195.805,1272.86l743.746,162.158c1.221,0.263 2.579,-0.158 2.746,-0.854l37.691,-160.667c0.117,-0.495 -0.425,-0.966 -1.308,-1.133l-849.204,-161.95c-1.488,-0.287 -2.975,0.413 -2.629,1.238l67.762,160.454c0.142,0.341 0.588,0.625 1.196,0.754Z" style="fill:#fff;fill-rule:nonzero;stroke:#c2a1f2;stroke-width:16.67px;"/><path d="M294.368,928.666l389.242,-156.783c0.333,-0.133 0.771,-0.179 1.171,-0.113l771.321,121.605c0.908,0.141 1.245,0.737 0.641,1.125l-309.591,197.466c-0.355,0.229 -0.938,0.313 -1.459,0.213l-850.975,-162.288c-0.983,-0.191 -1.183,-0.887 -0.35,-1.225Z" style="fill:#fff;fill-rule:nonzero;stroke:#c2a1f2;stroke-width:16.67px;"/><path d="M1109.6,1254.39l285.295,-194.562c0.05,-0.038 0.088,-0.084 0.105,-0.129l62.595,-164.863c0.113,-0.3 -0.608,-0.487 -0.983,-0.25l-309.942,197.696c-0.066,0.042 -0.112,0.096 -0.125,0.154l-37.941,161.729c-0.071,0.304 0.646,0.463 0.996,0.225Z" style="fill:#fff;fill-rule:nonzero;stroke:#c2a1f2;stroke-width:16.67px;"/><path d="M362.179,1092.55l743.746,162.158c1.22,0.263 2.583,-0.158 2.745,-0.858l37.692,-160.663c0.117,-0.496 -0.425,-0.966 -1.308,-1.133l-849.204,-161.95c-1.484,-0.288 -2.975,0.412 -2.63,1.237l67.763,160.455c0.142,0.341 0.587,0.625 1.196,0.754Z" style="fill:#fff;fill-rule:nonzero;stroke:#c2a1f2;stroke-width:16.67px;"/><path d="M87.386,759.412l389.242,-156.784c0.333,-0.133 0.771,-0.175 1.171,-0.112l771.321,121.604c0.908,0.142 1.245,0.738 0.641,1.125l-309.591,197.467c-0.355,0.229 -0.938,0.316 -1.459,0.212l-850.971,-162.287c-0.987,-0.188 -1.187,-0.888 -0.354,-1.225Z" style="fill:#fff;fill-rule:nonzero;stroke:#c2a1f2;stroke-width:16.67px;"/><path d="M902.612,1085.13l285.296,-194.563c0.05,-0.037 0.088,-0.083 0.104,-0.129l62.596,-164.858c0.117,-0.304 -0.608,-0.488 -0.983,-0.254l-309.942,197.695c-0.066,0.042 -0.108,0.096 -0.125,0.155l-37.941,161.733c-0.071,0.304 0.645,0.462 0.995,0.221Z" style="fill:#fff;fill-rule:nonzero;stroke:#c2a1f2;stroke-width:16.67px;"/><path d="M155.196,923.303l743.746,162.154c1.221,0.263 2.583,-0.158 2.746,-0.854l37.692,-160.666c0.116,-0.496 -0.425,-0.967 -1.309,-1.134l-849.204,-161.95c-1.483,-0.287 -2.975,0.417 -2.629,1.238l67.762,160.458c0.146,0.338 0.588,0.621 1.196,0.754Z" style="fill:#fff;fill-rule:nonzero;stroke:#c2a1f2;stroke-width:16.67px;"/><path d="M127.995,1108.97l389.242,-156.783c0.333,-0.134 0.77,-0.175 1.166,-0.113l771.321,121.604c0.913,0.142 1.25,0.738 0.642,1.125l-309.588,197.467c-0.354,0.229 -0.937,0.312 -1.458,0.212l-850.975,-162.287c-0.983,-0.192 -1.188,-0.888 -0.35,-1.225Z" style="fill:#fff;fill-rule:nonzero;stroke:#c2a1f2;stroke-width:16.67px;"/><path d="M943.221,1434.69l285.296,-194.562c0.05,-0.038 0.087,-0.083 0.104,-0.129l62.596,-164.859c0.112,-0.304 -0.609,-0.491 -0.984,-0.254l-309.941,197.696c-0.067,0.042 -0.113,0.096 -0.125,0.154l-37.942,161.729c-0.075,0.305 0.646,0.467 0.996,0.225Z" style="fill:#fff;fill-rule:nonzero;stroke:#c2a1f2;stroke-width:16.67px;"/><path d="M195.805,1272.86l743.746,162.158c1.221,0.263 2.579,-0.158 2.746,-0.854l37.691,-160.667c0.117,-0.495 -0.425,-0.966 -1.308,-1.133l-849.204,-161.95c-1.488,-0.287 -2.975,0.413 -2.629,1.238l67.762,160.454c0.142,0.341 0.588,0.625 1.196,0.754Z" style="fill:#fff;fill-rule:nonzero;stroke:#c2a1f2;stroke-width:16.67px;"/><path d="M294.368,928.666l389.242,-156.783c0.333,-0.133 0.771,-0.179 1.171,-0.113l771.321,121.605c0.908,0.141 1.245,0.737 0.641,1.125l-309.591,197.466c-0.355,0.229 -0.938,0.313 -1.459,0.213l-850.975,-162.288c-0.983,-0.191 -1.183,-0.887 -0.35,-1.225Z" style="fill:#fff;fill-rule:nonzero;stroke:#c2a1f2;stroke-width:16.67px;"/><path d="M1109.6,1254.39l285.295,-194.562c0.05,-0.038 0.088,-0.084 0.105,-0.129l62.595,-164.863c0.113,-0.3 -0.608,-0.487 -0.983,-0.25l-309.942,197.696c-0.066,0.042 -0.112,0.096 -0.125,0.154l-37.941,161.729c-0.071,0.304 0.646,0.463 0.996,0.225Z" style="fill:#fff;fill-rule:nonzero;stroke:#c2a1f2;stroke-width:16.67px;"/><path d="M362.179,1092.55l743.746,162.158c1.22,0.263 2.583,-0.158 2.745,-0.858l37.692,-160.663c0.117,-0.496 -0.425,-0.966 -1.308,-1.133l-849.204,-161.95c-1.484,-0.288 -2.975,0.412 -2.63,1.237l67.763,160.455c0.142,0.341 0.587,0.625 1.196,0.754Z" style="fill:#fff;fill-rule:nonzero;stroke:#c2a1f2;stroke-width:16.67px;"/><path d="M87.386,759.412l389.242,-156.784c0.333,-0.133 0.771,-0.175 1.171,-0.112l771.321,121.604c0.908,0.142 1.245,0.738 0.641,1.125l-309.591,197.467c-0.355,0.229 -0.938,0.316 -1.459,0.212l-850.971,-162.287c-0.987,-0.188 -1.187,-0.888 -0.354,-1.225Z" style="fill:#fff;fill-rule:nonzero;stroke:#c2a1f2;stroke-width:16.67px;"/><path d="M902.612,1085.13l285.296,-194.563c0.05,-0.037 0.088,-0.083 0.104,-0.129l62.596,-164.858c0.117,-0.304 -0.608,-0.488 -0.983,-0.254l-309.942,197.695c-0.066,0.042 -0.108,0.096 -0.125,0.155l-37.941,161.733c-0.071,0.304 0.645,0.462 0.995,0.221Z" style="fill:#fff;fill-rule:nonzero;stroke:#c2a1f2;stroke-width:16.67px;"/><path d="M155.196,923.303l743.746,162.154c1.221,0.263 2.583,-0.158 2.746,-0.854l37.692,-160.666c0.116,-0.496 -0.425,-0.967 -1.309,-1.134l-849.204,-161.95c-1.483,-0.287 -2.975,0.417 -2.629,1.238l67.762,160.458c0.146,0.338 0.588,0.621 1.196,0.754Z" style="fill:#fff;fill-rule:nonzero;stroke:#c2a1f2;stroke-width:16.67px;"/><path d="M127.995,1108.97l389.242,-156.783c0.333,-0.134 0.77,-0.175 1.166,-0.113l771.321,121.604c0.913,0.142 1.25,0.738 0.642,1.125l-309.588,197.467c-0.354,0.229 -0.937,0.312 -1.458,0.212l-850.975,-162.287c-0.983,-0.192 -1.188,-0.888 -0.35,-1.225Z" style="fill:#fff;fill-rule:nonzero;stroke:#c2a1f2;stroke-width:16.67px;"/><path d="M943.221,1434.69l285.296,-194.562c0.05,-0.038 0.087,-0.083 0.104,-0.129l62.596,-164.859c0.112,-0.304 -0.609,-0.491 -0.984,-0.254l-309.941,197.696c-0.067,0.042 -0.113,0.096 -0.125,0.154l-37.942,161.729c-0.075,0.305 0.646,0.467 0.996,0.225Z" style="fill:#fff;fill-rule:nonzero;stroke:#c2a1f2;stroke-width:16.67px;"/><path d="M195.805,1272.86l743.746,162.158c1.221,0.263 2.579,-0.158 2.746,-0.854l37.691,-160.667c0.117,-0.495 -0.425,-0.966 -1.308,-1.133l-849.204,-161.95c-1.488,-0.287 -2.975,0.413 -2.629,1.238l67.762,160.454c0.142,0.341 0.588,0.625 1.196,0.754Z" style="fill:#fff;fill-rule:nonzero;stroke:#c2a1f2;stroke-width:16.67px;"/><path d="M294.368,928.666l389.242,-156.783c0.333,-0.133 0.771,-0.179 1.171,-0.113l771.321,121.605c0.908,0.141 1.245,0.737 0.641,1.125l-309.591,197.466c-0.355,0.229 -0.938,0.313 -1.459,0.213l-850.975,-162.288c-0.983,-0.191 -1.183,-0.887 -0.35,-1.225Z" style="fill:#fff;fill-rule:nonzero;stroke:#c2a1f2;stroke-width:16.67px;"/><path d="M1109.6,1254.39l285.295,-194.562c0.05,-0.038 0.088,-0.084 0.105,-0.129l62.595,-164.863c0.113,-0.3 -0.608,-0.487 -0.983,-0.25l-309.942,197.696c-0.066,0.042 -0.112,0.096 -0.125,0.154l-37.941,161.729c-0.071,0.304 0.646,0.463 0.996,0.225Z" style="fill:#fff;fill-rule:nonzero;stroke:#c2a1f2;stroke-width:16.67px;"/><path d="M362.179,1092.55l743.746,162.158c1.22,0.263 2.583,-0.158 2.745,-0.858l37.692,-160.663c0.117,-0.496 -0.425,-0.966 -1.308,-1.133l-849.204,-161.95c-1.484,-0.288 -2.975,0.412 -2.63,1.237l67.763,160.455c0.142,0.341 0.587,0.625 1.196,0.754Z" style="fill:#fff;fill-rule:nonzero;stroke:#c2a1f2;stroke-width:16.67px;"/><path d="M87.386,759.412l389.242,-156.784c0.333,-0.133 0.771,-0.175 1.171,-0.112l771.321,121.604c0.908,0.142 1.245,0.738 0.641,1.125l-309.591,197.467c-0.355,0.229 -0.938,0.316 -1.459,0.212l-850.971,-162.287c-0.987,-0.188 -1.187,-0.888 -0.354,-1.225Z" style="fill:#fff;fill-rule:nonzero;stroke:#c2a1f2;stroke-width:16.67px;"/><path d="M902.612,1085.13l285.296,-194.563c0.05,-0.037 0.088,-0.083 0.104,-0.129l62.596,-164.858c0.117,-0.304 -0.608,-0.488 -0.983,-0.254l-309.942,197.695c-0.066,0.042 -0.108,0.096 -0.125,0.155l-37.941,161.733c-0.071,0.304 0.645,0.462 0.995,0.221Z" style="fill:#fff;fill-rule:nonzero;stroke:#c2a1f2;stroke-width:16.67px;"/><path d="M155.196,923.303l743.746,162.154c1.221,0.263 2.583,-0.158 2.746,-0.854l37.692,-160.666c0.116,-0.496 -0.425,-0.967 -1.309,-1.134l-849.204,-161.95c-1.483,-0.287 -2.975,0.417 -2.629,1.238l67.762,160.458c0.146,0.338 0.588,0.621 1.196,0.754Z" style="fill:#fff;fill-rule:nonzero;stroke:#c2a1f2;stroke-width:16.67px;"/><path d="M127.995,1108.97l389.242,-156.783c0.333,-0.134 0.77,-0.175 1.166,-0.113l771.321,121.604c0.913,0.142 1.25,0.738 0.642,1.125l-309.588,197.467c-0.354,0.229 -0.937,0.312 -1.458,0.212l-850.975,-162.287c-0.983,-0.192 -1.188,-0.888 -0.35,-1.225Z" style="fill:#fff;fill-rule:nonzero;stroke:#c2a1f2;stroke-width:16.67px;"/><path d="M943.221,1434.69l285.296,-194.562c0.05,-0.038 0.087,-0.083 0.104,-0.129l62.596,-164.859c0.112,-0.304 -0.609,-0.491 -0.984,-0.254l-309.941,197.696c-0.067,0.042 -0.113,0.096 -0.125,0.154l-37.942,161.729c-0.075,0.305 0.646,0.467 0.996,0.225Z" style="fill:#fff;fill-rule:nonzero;stroke:#c2a1f2;stroke-width:16.67px;"/><path d="M195.805,1272.86l743.746,162.158c1.221,0.263 2.579,-0.158 2.746,-0.854l37.691,-160.667c0.117,-0.495 -0.425,-0.966 -1.308,-1.133l-849.204,-161.95c-1.488,-0.287 -2.975,0.413 -2.629,1.238l67.762,160.454c0.142,0.341 0.588,0.625 1.196,0.754Z" style="fill:#fff;fill-rule:nonzero;stroke:#c2a1f2;stroke-width:16.67px;"/><path d="M294.368,928.666l389.242,-156.783c0.333,-0.133 0.771,-0.179 1.171,-0.113l771.321,121.605c0.908,0.141 1.245,0.737 0.641,1.125l-309.591,197.466c-0.355,0.229 -0.938,0.313 -1.459,0.213l-850.975,-162.288c-0.983,-0.191 -1.183,-0.887 -0.35,-1.225Z" style="fill:#fff;fill-rule:nonzero;stroke:#c2a1f2;stroke-width:16.67px;"/><path d="M1109.6,1254.39l285.295,-194.562c0.05,-0.038 0.088,-0.084 0.105,-0.129l62.595,-164.863c0.113,-0.3 -0.608,-0.487 -0.983,-0.25l-309.942,197.696c-0.066,0.042 -0.112,0.096 -0.125,0.154l-37.941,161.729c-0.071,0.304 0.646,0.463 0.996,0.225Z" style="fill:#fff;fill-rule:nonzero;stroke:#c2a1f2;stroke-width:16.67px;"/><path d="M362.179,1092.55l743.746,162.158c1.22,0.263 2.583,-0.158 2.745,-0.858l37.692,-160.663c0.117,-0.496 -0.425,-0.966 -1.308,-1.133l-849.204,-161.95c-1.484,-0.288 -2.975,0.412 -2.63,1.237l67.763,160.455c0.142,0.341 0.587,0.625 1.196,0.754Z" style="fill:#fff;fill-rule:nonzero;stroke:#c2a1f2;stroke-width:16.67px;"/><path d="M87.386,759.412l389.242,-156.784c0.333,-0.133 0.771,-0.175 1.171,-0.112l771.321,121.604c0.908,0.142 1.245,0.738 0.641,1.125l-309.591,197.467c-0.355,0.229 -0.938,0.316 -1.459,0.212l-850.971,-162.287c-0.987,-0.188 -1.187,-0.888 -0.354,-1.225Z" style="fill:#fff;fill-rule:nonzero;stroke:#c2a1f2;stroke-width:16.67px;"/><path d="M902.612,1085.13l285.296,-194.563c0.05,-0.037 0.088,-0.083 0.104,-0.129l62.596,-164.858c0.117,-0.304 -0.608,-0.488 -0.983,-0.254l-309.942,197.695c-0.066,0.042 -0.108,0.096 -0.125,0.155l-37.941,161.733c-0.071,0.304 0.645,0.462 0.995,0.221Z" style="fill:#fff;fill-rule:nonzero;stroke:#c2a1f2;stroke-width:16.67px;"/><path d="M155.196,923.303l743.746,162.154c1.221,0.263 2.583,-0.158 2.746,-0.854l37.692,-160.666c0.116,-0.496 -0.425,-0.967 -1.309,-1.134l-849.204,-161.95c-1.483,-0.287 -2.975,0.417 -2.629,1.238l67.762,160.458c0.146,0.338 0.588,0.621 1.196,0.754Z" style="fill:#fff;fill-rule:nonzero;stroke:#c2a1f2;stroke-width:16.67px;"/><path d="M231.547,594.303l389.242,-156.787c0.333,-0.133 0.771,-0.175 1.166,-0.108l771.321,121.604c0.913,0.141 1.25,0.737 0.642,1.125l-309.588,197.466c-0.354,0.225 -0.937,0.313 -1.458,0.213l-850.975,-162.292c-0.987,-0.187 -1.187,-0.883 -0.35,-1.221Z" style="fill:#fff;fill-rule:nonzero;stroke:#c2a1f2;stroke-width:16.67px;"/><path d="M1046.77,920.02l285.292,-194.563c0.054,-0.037 0.092,-0.079 0.108,-0.125l62.596,-164.862c0.113,-0.305 -0.612,-0.488 -0.983,-0.255l-309.942,197.7c-0.066,0.038 -0.112,0.096 -0.125,0.155l-37.941,161.729c-0.075,0.304 0.645,0.462 0.995,0.221Z" style="fill:#fff;fill-rule:nonzero;stroke:#c2a1f2;stroke-width:16.67px;"/><path d="M299.353,758.191l743.75,162.154c1.221,0.267 2.579,-0.158 2.742,-0.854l37.695,-160.663c0.113,-0.496 -0.425,-0.966 -1.308,-1.137l-849.208,-161.95c-1.484,-0.284 -2.971,0.416 -2.625,1.237l67.762,160.459c0.142,0.337 0.588,0.625 1.192,0.754Z" style="fill:#fff;fill-rule:nonzero;stroke:#c2a1f2;stroke-width:16.67px;"/><path d="M397.921,414.002l389.241,-156.788c0.334,-0.133 0.771,-0.175 1.171,-0.108l771.321,121.6c0.908,0.146 1.246,0.737 0.638,1.129l-309.588,197.467c-0.354,0.225 -0.937,0.312 -1.458,0.212l-850.975,-162.291c-0.984,-0.188 -1.188,-0.884 -0.35,-1.221Z" style="fill:#fff;fill-rule:nonzero;stroke:#c2a1f2;stroke-width:16.67px;"/><path d="M1213.15,739.718l285.296,-194.563c0.05,-0.037 0.087,-0.079 0.104,-0.125l62.596,-164.862c0.112,-0.305 -0.608,-0.488 -0.983,-0.255l-309.942,197.7c-0.067,0.038 -0.113,0.096 -0.125,0.154l-37.942,161.73c-0.075,0.304 0.646,0.462 0.996,0.22Z" style="fill:#fff;fill-rule:nonzero;stroke:#c2a1f2;stroke-width:16.67px;"/><path d="M465.731,577.889l743.746,162.154c1.22,0.263 2.579,-0.158 2.745,-0.854l37.692,-160.662c0.117,-0.496 -0.425,-0.967 -1.308,-1.138l-849.204,-161.95c-1.484,-0.287 -2.975,0.417 -2.63,1.238l67.763,160.458c0.142,0.338 0.587,0.621 1.196,0.754Z" style="fill:#fff;fill-rule:nonzero;stroke:#c2a1f2;stroke-width:16.67px;"/><path d="M190.938,244.747l389.242,-156.783c0.333,-0.134 0.771,-0.179 1.171,-0.113l771.321,121.604c0.908,0.142 1.246,0.738 0.641,1.125l-309.591,197.467c-0.354,0.225 -0.938,0.313 -1.459,0.213l-850.975,-162.292c-0.983,-0.188 -1.183,-0.883 -0.35,-1.221Z" style="fill:#fff;fill-rule:nonzero;stroke:#c2a1f2;stroke-width:16.67px;"/><path d="M1006.17,570.467l285.295,-194.562c0.05,-0.038 0.088,-0.084 0.105,-0.13l62.595,-164.862c0.113,-0.3 -0.608,-0.488 -0.983,-0.25l-309.942,197.696c-0.066,0.041 -0.112,0.096 -0.125,0.154l-37.941,161.729c-0.071,0.304 0.646,0.463 0.996,0.225Z" style="fill:#fff;fill-rule:nonzero;stroke:#c2a1f2;stroke-width:16.67px;"/><path d="M258.748,408.635l743.746,162.154c1.221,0.266 2.583,-0.154 2.746,-0.854l37.692,-160.663c0.116,-0.496 -0.425,-0.967 -1.309,-1.133l-849.204,-161.954c-1.483,-0.284 -2.975,0.416 -2.629,1.241l67.762,160.454c0.142,0.342 0.588,0.625 1.196,0.755Z" style="fill:#fff;fill-rule:nonzero;stroke:#c2a1f2;stroke-width:16.67px;"/><path d="M231.547,594.303l389.242,-156.787c0.333,-0.133 0.771,-0.175 1.166,-0.108l771.321,121.604c0.913,0.141 1.25,0.737 0.642,1.125l-309.588,197.466c-0.354,0.225 -0.937,0.313 -1.458,0.213l-850.975,-162.292c-0.987,-0.187 -1.187,-0.883 -0.35,-1.221Z" style="fill:#fff;fill-rule:nonzero;stroke:#c2a1f2;stroke-width:16.67px;"/><path d="M1046.77,920.02l285.292,-194.563c0.054,-0.037 0.092,-0.079 0.108,-0.125l62.596,-164.862c0.113,-0.305 -0.612,-0.488 -0.983,-0.255l-309.942,197.7c-0.066,0.038 -0.112,0.096 -0.125,0.155l-37.941,161.729c-0.075,0.304 0.645,0.462 0.995,0.221Z" style="fill:#fff;fill-rule:nonzero;stroke:#c2a1f2;stroke-width:16.67px;"/><path d="M299.353,758.191l743.75,162.154c1.221,0.267 2.579,-0.158 2.742,-0.854l37.695,-160.663c0.113,-0.496 -0.425,-0.966 -1.308,-1.137l-849.208,-161.95c-1.484,-0.284 -2.971,0.416 -2.625,1.237l67.762,160.459c0.142,0.337 0.588,0.625 1.192,0.754Z" style="fill:#fff;fill-rule:nonzero;stroke:#c2a1f2;stroke-width:16.67px;"/><path d="M397.921,414.002l389.241,-156.788c0.334,-0.133 0.771,-0.175 1.171,-0.108l771.321,121.6c0.908,0.146 1.246,0.737 0.638,1.129l-309.588,197.467c-0.354,0.225 -0.937,0.312 -1.458,0.212l-850.975,-162.291c-0.984,-0.188 -1.188,-0.884 -0.35,-1.221Z" style="fill:#fff;fill-rule:nonzero;stroke:#c2a1f2;stroke-width:16.67px;"/><path d="M1213.15,739.718l285.296,-194.563c0.05,-0.037 0.087,-0.079 0.104,-0.125l62.596,-164.862c0.112,-0.305 -0.608,-0.488 -0.983,-0.255l-309.942,197.7c-0.067,0.038 -0.113,0.096 -0.125,0.154l-37.942,161.73c-0.075,0.304 0.646,0.462 0.996,0.22Z" style="fill:#fff;fill-rule:nonzero;stroke:#c2a1f2;stroke-width:16.67px;"/><path d="M465.731,577.889l743.746,162.154c1.22,0.263 2.579,-0.158 2.745,-0.854l37.692,-160.662c0.117,-0.496 -0.425,-0.967 -1.308,-1.138l-849.204,-161.95c-1.484,-0.287 -2.975,0.417 -2.63,1.238l67.763,160.458c0.142,0.338 0.587,0.621 1.196,0.754Z" style="fill:#fff;fill-rule:nonzero;stroke:#c2a1f2;stroke-width:16.67px;"/><path d="M190.938,244.747l389.242,-156.783c0.333,-0.134 0.771,-0.179 1.171,-0.113l771.321,121.604c0.908,0.142 1.246,0.738 0.641,1.125l-309.591,197.467c-0.354,0.225 -0.938,0.313 -1.459,0.213l-850.975,-162.292c-0.983,-0.188 -1.183,-0.883 -0.35,-1.221Z" style="fill:#fff;fill-rule:nonzero;stroke:#c2a1f2;stroke-width:16.67px;"/><path d="M1006.17,570.467l285.295,-194.562c0.05,-0.038 0.088,-0.084 0.105,-0.13l62.595,-164.862c0.113,-0.3 -0.608,-0.488 -0.983,-0.25l-309.942,197.696c-0.066,0.041 -0.112,0.096 -0.125,0.154l-37.941,161.729c-0.071,0.304 0.646,0.463 0.996,0.225Z" style="fill:#fff;fill-rule:nonzero;stroke:#c2a1f2;stroke-width:16.67px;"/><path d="M258.748,408.635l743.746,162.154c1.221,0.266 2.583,-0.154 2.746,-0.854l37.692,-160.663c0.116,-0.496 -0.425,-0.967 -1.309,-1.133l-849.204,-161.954c-1.483,-0.284 -2.975,0.416 -2.629,1.241l67.762,160.454c0.142,0.342 0.588,0.625 1.196,0.755Z" style="fill:#fff;fill-rule:nonzero;stroke:#c2a1f2;stroke-width:16.67px;"/><path d="M231.547,594.303l389.242,-156.787c0.333,-0.133 0.771,-0.175 1.166,-0.108l771.321,121.604c0.913,0.141 1.25,0.737 0.642,1.125l-309.588,197.466c-0.354,0.225 -0.937,0.313 -1.458,0.213l-850.975,-162.292c-0.987,-0.187 -1.187,-0.883 -0.35,-1.221Z" style="fill:#fff;fill-rule:nonzero;stroke:#c2a1f2;stroke-width:16.67px;"/><path d="M1046.77,920.02l285.292,-194.563c0.054,-0.037 0.092,-0.079 0.108,-0.125l62.596,-164.862c0.113,-0.305 -0.612,-0.488 -0.983,-0.255l-309.942,197.7c-0.066,0.038 -0.112,0.096 -0.125,0.155l-37.941,161.729c-0.075,0.304 0.645,0.462 0.995,0.221Z" style="fill:#fff;fill-rule:nonzero;stroke:#c2a1f2;stroke-width:16.67px;"/><path d="M299.353,758.191l743.75,162.154c1.221,0.267 2.579,-0.158 2.742,-0.854l37.695,-160.663c0.113,-0.496 -0.425,-0.966 -1.308,-1.137l-849.208,-161.95c-1.484,-0.284 -2.971,0.416 -2.625,1.237l67.762,160.459c0.142,0.337 0.588,0.625 1.192,0.754Z" style="fill:#fff;fill-rule:nonzero;stroke:#c2a1f2;stroke-width:16.67px;"/><path d="M397.921,414.002l389.241,-156.788c0.334,-0.133 0.771,-0.175 1.171,-0.108l771.321,121.6c0.908,0.146 1.246,0.737 0.638,1.129l-309.588,197.467c-0.354,0.225 -0.937,0.312 -1.458,0.212l-850.975,-162.291c-0.984,-0.188 -1.188,-0.884 -0.35,-1.221Z" style="fill:#fff;fill-rule:nonzero;stroke:#c2a1f2;stroke-width:16.67px;"/><path d="M1213.15,739.718l285.296,-194.563c0.05,-0.037 0.087,-0.079 0.104,-0.125l62.596,-164.862c0.112,-0.305 -0.608,-0.488 -0.983,-0.255l-309.942,197.7c-0.067,0.038 -0.113,0.096 -0.125,0.154l-37.942,161.73c-0.075,0.304 0.646,0.462 0.996,0.22Z" style="fill:#fff;fill-rule:nonzero;stroke:#c2a1f2;stroke-width:16.67px;"/><path d="M465.731,577.889l743.746,162.154c1.22,0.263 2.579,-0.158 2.745,-0.854l37.692,-160.662c0.117,-0.496 -0.425,-0.967 -1.308,-1.138l-849.204,-161.95c-1.484,-0.287 -2.975,0.417 -2.63,1.238l67.763,160.458c0.142,0.338 0.587,0.621 1.196,0.754Z" style="fill:#fff;fill-rule:nonzero;stroke:#c2a1f2;stroke-width:16.67px;"/><path d="M190.938,244.747l389.242,-156.783c0.333,-0.134 0.771,-0.179 1.171,-0.113l771.321,121.604c0.908,0.142 1.246,0.738 0.641,1.125l-309.591,197.467c-0.354,0.225 -0.938,0.313 -1.459,0.213l-850.975,-162.292c-0.983,-0.188 -1.183,-0.883 -0.35,-1.221Z" style="fill:#fff;fill-rule:nonzero;stroke:#c2a1f2;stroke-width:16.67px;"/><path d="M1006.17,570.467l285.295,-194.562c0.05,-0.038 0.088,-0.084 0.105,-0.13l62.595,-164.862c0.113,-0.3 -0.608,-0.488 -0.983,-0.25l-309.942,197.696c-0.066,0.041 -0.112,0.096 -0.125,0.154l-37.941,161.729c-0.071,0.304 0.646,0.463 0.996,0.225Z" style="fill:#fff;fill-rule:nonzero;stroke:#c2a1f2;stroke-width:16.67px;"/><path d="M258.748,408.635l743.746,162.154c1.221,0.266 2.583,-0.154 2.746,-0.854l37.692,-160.663c0.116,-0.496 -0.425,-0.967 -1.309,-1.133l-849.204,-161.954c-1.483,-0.284 -2.975,0.416 -2.629,1.241l67.762,160.454c0.142,0.342 0.588,0.625 1.196,0.755Z" style="fill:#fff;fill-rule:nonzero;stroke:#c2a1f2;stroke-width:16.67px;"/><path d="M231.547,594.303l389.242,-156.787c0.333,-0.133 0.771,-0.175 1.166,-0.108l771.321,121.604c0.913,0.141 1.25,0.737 0.642,1.125l-309.588,197.466c-0.354,0.225 -0.937,0.313 -1.458,0.213l-850.975,-162.292c-0.987,-0.187 -1.187,-0.883 -0.35,-1.221Z" style="fill:#fff;fill-rule:nonzero;stroke:#c2a1f2;stroke-width:16.67px;"/><path d="M1046.77,920.02l285.292,-194.563c0.054,-0.037 0.092,-0.079 0.108,-0.125l62.596,-164.862c0.113,-0.305 -0.612,-0.488 -0.983,-0.255l-309.942,197.7c-0.066,0.038 -0.112,0.096 -0.125,0.155l-37.941,161.729c-0.075,0.304 0.645,0.462 0.995,0.221Z" style="fill:#fff;fill-rule:nonzero;stroke:#c2a1f2;stroke-width:16.67px;"/><path d="M299.353,758.191l743.75,162.154c1.221,0.267 2.579,-0.158 2.742,-0.854l37.695,-160.663c0.113,-0.496 -0.425,-0.966 -1.308,-1.137l-849.208,-161.95c-1.484,-0.284 -2.971,0.416 -2.625,1.237l67.762,160.459c0.142,0.337 0.588,0.625 1.192,0.754Z" style="fill:#fff;fill-rule:nonzero;stroke:#c2a1f2;stroke-width:16.67px;"/><path d="M397.921,414.002l389.241,-156.788c0.334,-0.133 0.771,-0.175 1.171,-0.108l771.321,121.6c0.908,0.146 1.246,0.737 0.638,1.129l-309.588,197.467c-0.354,0.225 -0.937,0.312 -1.458,0.212l-850.975,-162.291c-0.984,-0.188 -1.188,-0.884 -0.35,-1.221Z" style="fill:#fff;fill-rule:nonzero;stroke:#c2a1f2;stroke-width:16.67px;"/><path d="M1213.15,739.718l285.296,-194.563c0.05,-0.037 0.087,-0.079 0.104,-0.125l62.596,-164.862c0.112,-0.305 -0.608,-0.488 -0.983,-0.255l-309.942,197.7c-0.067,0.038 -0.113,0.096 -0.125,0.154l-37.942,161.73c-0.075,0.304 0.646,0.462 0.996,0.22Z" style="fill:#fff;fill-rule:nonzero;stroke:#c2a1f2;stroke-width:16.67px;"/><path d="M465.731,577.889l743.746,162.154c1.22,0.263 2.579,-0.158 2.745,-0.854l37.692,-160.662c0.117,-0.496 -0.425,-0.967 -1.308,-1.138l-849.204,-161.95c-1.484,-0.287 -2.975,0.417 -2.63,1.238l67.763,160.458c0.142,0.338 0.587,0.621 1.196,0.754Z" style="fill:#fff;fill-rule:nonzero;stroke:#c2a1f2;stroke-width:16.67px;"/><path d="M190.938,244.747l389.242,-156.783c0.333,-0.134 0.771,-0.179 1.171,-0.113l771.321,121.604c0.908,0.142 1.246,0.738 0.641,1.125l-309.591,197.467c-0.354,0.225 -0.938,0.313 -1.459,0.213l-850.975,-162.292c-0.983,-0.188 -1.183,-0.883 -0.35,-1.221Z" style="fill:#fff;fill-rule:nonzero;stroke:#c2a1f2;stroke-width:16.67px;"/><path d="M1006.17,570.467l285.295,-194.562c0.05,-0.038 0.088,-0.084 0.105,-0.13l62.595,-164.862c0.113,-0.3 -0.608,-0.488 -0.983,-0.25l-309.942,197.696c-0.066,0.041 -0.112,0.096 -0.125,0.154l-37.941,161.729c-0.071,0.304 0.646,0.463 0.996,0.225Z" style="fill:#fff;fill-rule:nonzero;stroke:#c2a1f2;stroke-width:16.67px;"/><path d="M258.748,408.635l743.746,162.154c1.221,0.266 2.583,-0.154 2.746,-0.854l37.692,-160.663c0.116,-0.496 -0.425,-0.967 -1.309,-1.133l-849.204,-161.954c-1.483,-0.284 -2.975,0.416 -2.629,1.241l67.762,160.454c0.142,0.342 0.588,0.625 1.196,0.755Z" style="fill:#fff;fill-rule:nonzero;stroke:#c2a1f2;stroke-width:16.67px;"/></g></svg>