<?xml version="1.0" encoding="UTF-8" standalone="no"?><!DOCTYPE svg PUBLIC "-//W3C//DTD SVG 1.1//EN" "http://www.w3.org/Graphics/SVG/1.1/DTD/svg11.dtd"><svg width="100%" height="100%" viewBox="0 0 1542 1334" version="1.1" xmlns="http://www.w3.org/2000/svg" xmlns:xlink="http://www.w3.org/1999/xlink" xml:space="preserve" xmlns:serif="http://www.serif.com/" style="fill-rule:evenodd;clip-rule:evenodd;stroke-miterlimit:10;"><g id="Caja-2" serif:id="Caja 2"><path d="M127.317,792.932l389.242,-219.512c0.333,-0.188 0.767,-0.242 1.171,-0.159l771.321,170.263c0.908,0.196 1.246,1.029 0.637,1.571l-309.591,276.466c-0.35,0.317 -0.934,0.438 -1.455,0.296l-850.975,-227.217c-0.987,-0.258 -1.187,-1.237 -0.35,-1.708Z" style="fill:#fff;fill-rule:nonzero;stroke:#c2a1f2;stroke-width:16.67px;"/><path d="M942.542,1248.96l285.296,-272.404c0.05,-0.05 0.087,-0.108 0.104,-0.175l62.596,-230.812c0.116,-0.43 -0.609,-0.688 -0.984,-0.355l-309.941,276.784c-0.067,0.062 -0.109,0.137 -0.125,0.216l-37.942,226.438c-0.071,0.417 0.646,0.642 0.996,0.308Z" style="fill:#fff;fill-rule:nonzero;stroke:#c2a1f2;stroke-width:16.67px;"/><path d="M195.125,1022.38l743.75,227.025c1.217,0.375 2.58,-0.217 2.742,-1.196l37.692,-224.933c0.116,-0.696 -0.425,-1.355 -1.309,-1.592l-849.204,-226.746c-1.483,-0.396 -2.975,0.588 -2.629,1.733l67.763,224.655c0.145,0.475 0.591,0.87 1.195,1.054Z" style="fill:#fff;fill-rule:nonzero;stroke:#c2a1f2;stroke-width:16.67px;"/><path d="M293.691,540.499l389.242,-219.513c0.333,-0.187 0.77,-0.246 1.17,-0.158l771.321,170.258c0.913,0.2 1.246,1.034 0.638,1.575l-309.588,276.467c-0.354,0.317 -0.933,0.437 -1.454,0.296l-850.979,-227.217c-0.988,-0.262 -1.188,-1.242 -0.35,-1.708Z" style="fill:#fff;fill-rule:nonzero;stroke:#c2a1f2;stroke-width:16.67px;"/><path d="M1108.92,996.521l285.292,-272.4c0.05,-0.054 0.091,-0.109 0.108,-0.175l62.592,-230.817c0.116,-0.425 -0.609,-0.687 -0.979,-0.35l-309.942,276.779c-0.067,0.063 -0.113,0.138 -0.125,0.217l-37.946,226.437c-0.071,0.421 0.65,0.646 1,0.309Z" style="fill:#fff;fill-rule:nonzero;stroke:#c2a1f2;stroke-width:16.67px;"/><path d="M361.501,769.95l743.75,227.025c1.217,0.375 2.579,-0.216 2.742,-1.195l37.696,-224.938c0.112,-0.692 -0.434,-1.354 -1.317,-1.592l-849.2,-226.741c-1.487,-0.396 -2.975,0.587 -2.629,1.733l67.762,224.654c0.146,0.475 0.588,0.871 1.196,1.054Z" style="fill:#fff;fill-rule:nonzero;stroke:#c2a1f2;stroke-width:16.67px;"/><path d="M86.71,303.532l389.242,-219.508c0.333,-0.192 0.767,-0.246 1.171,-0.159l771.317,170.259c0.912,0.196 1.25,1.029 0.641,1.575l-309.587,276.462c-0.354,0.317 -0.938,0.438 -1.459,0.296l-850.975,-227.212c-0.987,-0.263 -1.187,-1.242 -0.35,-1.713Z" style="fill:#fff;fill-rule:nonzero;stroke:#c2a1f2;stroke-width:16.67px;"/><path d="M901.937,759.558l285.291,-272.404c0.054,-0.05 0.092,-0.109 0.109,-0.175l62.595,-230.813c0.113,-0.429 -0.612,-0.687 -0.983,-0.354l-309.942,276.783c-0.066,0.063 -0.112,0.138 -0.125,0.217l-37.941,226.438c-0.075,0.416 0.646,0.641 0.996,0.308Z" style="fill:#fff;fill-rule:nonzero;stroke:#c2a1f2;stroke-width:16.67px;"/><path d="M154.519,532.983l743.75,227.025c1.216,0.375 2.579,-0.216 2.741,-1.196l37.696,-224.933c0.113,-0.696 -0.433,-1.354 -1.312,-1.592l-849.204,-226.741c-1.488,-0.4 -2.975,0.583 -2.63,1.733l67.763,224.65c0.146,0.475 0.587,0.871 1.196,1.054Z" style="fill:#fff;fill-rule:nonzero;stroke:#c2a1f2;stroke-width:16.67px;"/></g></svg>