<?xml version="1.0" encoding="UTF-8" standalone="no"?>
<!DOCTYPE svg PUBLIC "-//W3C//DTD SVG 1.1//EN" "http://www.w3.org/Graphics/SVG/1.1/DTD/svg11.dtd">
<svg width="100%" height="100%" viewBox="0 0 5692 4267" version="1.1" xmlns="http://www.w3.org/2000/svg" xmlns:xlink="http://www.w3.org/1999/xlink" xml:space="preserve" xmlns:serif="http://www.serif.com/" style="fill-rule:evenodd;clip-rule:evenodd;stroke-linejoin:round;stroke-miterlimit:2;">
    <g transform="matrix(1,0,0,1,-5900,0)">
        <g id="Mesa-de-trabajo2" serif:id="Mesa de trabajo2" transform="matrix(2.08333,0,0,2.08333,0,0)">
            <rect x="2832" y="0" width="2732" height="2048" style="fill:none;"/>
            <clipPath id="_clip1">
                <rect x="2832" y="0" width="2732" height="2048"/>
            </clipPath>
            <g clip-path="url(#_clip1)">
                <g transform="matrix(1.41961,0,0,1.41961,-3047.74,-993.194)">
                    <g transform="matrix(1.08056,0,0,1.08056,3881.5,-99.2508)">
                        <path d="M641.458,1726.93C637.009,1726.93 633.389,1730.55 633.389,1734.99C633.389,1739.44 637.009,1743.06 641.458,1743.06C645.907,1743.06 649.526,1739.44 649.526,1734.99C649.526,1730.55 645.907,1726.93 641.458,1726.93ZM641.458,1748.06C634.252,1748.06 628.389,1742.2 628.389,1734.99C628.389,1727.79 634.252,1721.93 641.458,1721.93C648.664,1721.93 654.526,1727.79 654.526,1734.99C654.526,1742.2 648.664,1748.06 641.458,1748.06Z" style="fill:rgb(242,237,110);fill-rule:nonzero;"/>
                    </g>
                    <g transform="matrix(1.08056,0,0,1.08056,3881.5,-99.2508)">
                        <path d="M263.861,1000.07C260.405,1000.07 257.594,1002.88 257.594,1006.34C257.594,1009.79 260.405,1012.6 263.861,1012.6C267.316,1012.6 270.128,1009.79 270.128,1006.34C270.128,1002.88 267.316,1000.07 263.861,1000.07ZM263.861,1017.6C257.648,1017.6 252.594,1012.55 252.594,1006.34C252.594,1000.12 257.648,995.069 263.861,995.069C270.074,995.069 275.128,1000.12 275.128,1006.34C275.128,1012.55 270.074,1017.6 263.861,1017.6Z" style="fill:rgb(242,237,110);fill-rule:nonzero;"/>
                    </g>
                    <g transform="matrix(1.08056,0,0,1.08056,4427.81,2.623)">
                        <path d="M609.542,1022.61C603.324,1022.61 598.265,1027.67 598.265,1033.89C598.265,1040.11 603.324,1045.17 609.542,1045.17C615.76,1045.17 620.819,1040.11 620.819,1033.89C620.819,1027.67 615.76,1022.61 609.542,1022.61ZM609.542,1050.17C600.566,1050.17 593.265,1042.87 593.265,1033.89C593.265,1024.92 600.566,1017.61 609.542,1017.61C618.517,1017.61 625.819,1024.92 625.819,1033.89C625.819,1042.87 618.517,1050.17 609.542,1050.17Z" style="fill:rgb(242,237,110);fill-rule:nonzero;"/>
                    </g>
                    <g transform="matrix(1.08056,0,0,1.08056,4235.54,496.169)">
                        <path d="M609.542,1022.61C603.324,1022.61 598.265,1027.67 598.265,1033.89C598.265,1040.11 603.324,1045.17 609.542,1045.17C615.76,1045.17 620.819,1040.11 620.819,1033.89C620.819,1027.67 615.76,1022.61 609.542,1022.61ZM609.542,1050.17C600.566,1050.17 593.265,1042.87 593.265,1033.89C593.265,1024.92 600.566,1017.61 609.542,1017.61C618.517,1017.61 625.819,1024.92 625.819,1033.89C625.819,1042.87 618.517,1050.17 609.542,1050.17Z" style="fill:rgb(242,237,110);fill-rule:nonzero;"/>
                    </g>
                    <g transform="matrix(1.08056,0,0,1.08056,4323.86,806.507)">
                        <path d="M609.542,1022.61C603.324,1022.61 598.265,1027.67 598.265,1033.89C598.265,1040.11 603.324,1045.17 609.542,1045.17C615.76,1045.17 620.819,1040.11 620.819,1033.89C620.819,1027.67 615.76,1022.61 609.542,1022.61ZM609.542,1050.17C600.566,1050.17 593.265,1042.87 593.265,1033.89C593.265,1024.92 600.566,1017.61 609.542,1017.61C618.517,1017.61 625.819,1024.92 625.819,1033.89C625.819,1042.87 618.517,1050.17 609.542,1050.17Z" style="fill:rgb(242,237,110);fill-rule:nonzero;"/>
                    </g>
                    <g transform="matrix(1.08056,0,0,1.08056,4034.65,-399.967)">
                        <path d="M609.542,1022.61C603.324,1022.61 598.265,1027.67 598.265,1033.89C598.265,1040.11 603.324,1045.17 609.542,1045.17C615.76,1045.17 620.819,1040.11 620.819,1033.89C620.819,1027.67 615.76,1022.61 609.542,1022.61ZM609.542,1050.17C600.566,1050.17 593.265,1042.87 593.265,1033.89C593.265,1024.92 600.566,1017.61 609.542,1017.61C618.517,1017.61 625.819,1024.92 625.819,1033.89C625.819,1042.87 618.517,1050.17 609.542,1050.17Z" style="fill:rgb(242,237,110);fill-rule:nonzero;"/>
                    </g>
                    <g transform="matrix(1.08056,0,0,1.08056,3684.52,-271.21)">
                        <path d="M609.542,1022.61C603.324,1022.61 598.265,1027.67 598.265,1033.89C598.265,1040.11 603.324,1045.17 609.542,1045.17C615.76,1045.17 620.819,1040.11 620.819,1033.89C620.819,1027.67 615.76,1022.61 609.542,1022.61ZM609.542,1050.17C600.566,1050.17 593.265,1042.87 593.265,1033.89C593.265,1024.92 600.566,1017.61 609.542,1017.61C618.517,1017.61 625.819,1024.92 625.819,1033.89C625.819,1042.87 618.517,1050.17 609.542,1050.17Z" style="fill:rgb(242,237,110);fill-rule:nonzero;"/>
                    </g>
                    <g transform="matrix(1.08056,0,0,1.08056,3831.28,788.916)">
                        <path d="M609.542,1022.61C603.324,1022.61 598.265,1027.67 598.265,1033.89C598.265,1040.11 603.324,1045.17 609.542,1045.17C615.76,1045.17 620.819,1040.11 620.819,1033.89C620.819,1027.67 615.76,1022.61 609.542,1022.61ZM609.542,1050.17C600.566,1050.17 593.265,1042.87 593.265,1033.89C593.265,1024.92 600.566,1017.61 609.542,1017.61C618.517,1017.61 625.819,1024.92 625.819,1033.89C625.819,1042.87 618.517,1050.17 609.542,1050.17Z" style="fill:rgb(242,237,110);fill-rule:nonzero;"/>
                    </g>
                    <g transform="matrix(1.08056,0,0,1.08056,4100.46,753.732)">
                        <path d="M609.542,1022.61C603.324,1022.61 598.265,1027.67 598.265,1033.89C598.265,1040.11 603.324,1045.17 609.542,1045.17C615.76,1045.17 620.819,1040.11 620.819,1033.89C620.819,1027.67 615.76,1022.61 609.542,1022.61ZM609.542,1050.17C600.566,1050.17 593.265,1042.87 593.265,1033.89C593.265,1024.92 600.566,1017.61 609.542,1017.61C618.517,1017.61 625.819,1024.92 625.819,1033.89C625.819,1042.87 618.517,1050.17 609.542,1050.17Z" style="fill:rgb(242,237,110);fill-rule:nonzero;"/>
                    </g>
                    <g transform="matrix(1.08056,0,0,1.08056,3881.5,-99.2508)">
                        <path d="M286.973,1290.92C282.827,1290.92 279.453,1294.29 279.453,1298.44C279.453,1302.59 282.827,1305.96 286.973,1305.96C291.12,1305.96 294.493,1302.59 294.493,1298.44C294.493,1294.29 291.12,1290.92 286.973,1290.92ZM286.973,1310.96C280.07,1310.96 274.453,1305.34 274.453,1298.44C274.453,1291.54 280.07,1285.92 286.973,1285.92C293.876,1285.92 299.493,1291.54 299.493,1298.44C299.493,1305.34 293.876,1310.96 286.973,1310.96Z" style="fill:rgb(242,237,110);fill-rule:nonzero;"/>
                    </g>
                    <g transform="matrix(1.08056,0,0,1.08056,3881.5,-99.2508)">
                        <path d="M331.396,1631.22C328.349,1631.22 325.87,1633.7 325.87,1636.75C325.87,1639.8 328.349,1642.28 331.396,1642.28C334.443,1642.28 336.923,1639.8 336.923,1636.75C336.923,1633.7 334.443,1631.22 331.396,1631.22ZM331.396,1647.28C325.592,1647.28 320.87,1642.56 320.87,1636.75C320.87,1630.95 325.592,1626.22 331.396,1626.22C337.201,1626.22 341.923,1630.95 341.923,1636.75C341.923,1642.56 337.201,1647.28 331.396,1647.28Z" style="fill:rgb(242,237,110);fill-rule:nonzero;"/>
                    </g>
                    <g transform="matrix(1.08056,0,0,1.08056,3881.5,-99.2508)">
                        <path d="M313.649,1574.89L305.243,1574.89L305.243,1568.25C305.243,1563.12 297.262,1563.11 297.262,1568.25L297.262,1574.89L289.741,1574.89C284.605,1574.89 284.597,1582.87 289.741,1582.87L297.262,1582.87L297.262,1591.28C297.262,1596.41 305.243,1596.42 305.243,1591.28L305.243,1582.87L313.649,1582.87C318.785,1582.87 318.793,1574.89 313.649,1574.89Z" style="fill:rgb(242,237,110);fill-rule:nonzero;"/>
                    </g>
                    <g transform="matrix(1.08056,0,0,1.08056,3881.5,-99.2508)">
                        <path d="M819.62,1378.29L811.214,1378.29L811.214,1371.65C811.214,1366.52 803.232,1366.51 803.232,1371.65L803.232,1378.29L795.711,1378.29C790.576,1378.29 790.567,1386.27 795.711,1386.27L803.232,1386.27L803.232,1394.68C803.232,1399.81 811.214,1399.82 811.214,1394.68L811.214,1386.27L819.62,1386.27C824.756,1386.27 824.764,1378.29 819.62,1378.29Z" style="fill:rgb(242,237,110);fill-rule:nonzero;"/>
                    </g>
                    <g transform="matrix(1.08056,0,0,1.08056,3881.5,-99.2508)">
                        <path d="M658.692,989.704L650.286,989.704L650.286,983.069C650.286,977.933 642.305,977.925 642.305,983.069L642.305,989.704L634.784,989.704C629.648,989.704 629.64,997.686 634.784,997.686L642.305,997.686L642.305,1006.09C642.305,1011.23 650.286,1011.24 650.286,1006.09L650.286,997.686L658.692,997.686C663.828,997.686 663.837,989.704 658.692,989.704Z" style="fill:rgb(242,237,110);fill-rule:nonzero;"/>
                    </g>
                    <g transform="matrix(1.08056,0,0,1.08056,3881.5,-99.2508)">
                        <path d="M246.758,1096.04L238.352,1096.04L238.352,1089.4C238.352,1084.27 230.37,1084.26 230.37,1089.4L230.37,1096.04L222.85,1096.04C217.714,1096.04 217.705,1104.02 222.85,1104.02L230.37,1104.02L230.37,1112.42C230.37,1117.56 238.352,1117.57 238.352,1112.42L238.352,1104.02L246.758,1104.02C251.894,1104.02 251.903,1096.04 246.758,1096.04Z" style="fill:rgb(242,237,110);fill-rule:nonzero;"/>
                    </g>
                    <g transform="matrix(1.08056,0,0,1.08056,3881.5,-99.2508)">
                        <path d="M729.24,1705.57L720.834,1705.57L720.834,1698.93C720.834,1693.8 712.852,1693.79 712.852,1698.93L712.852,1705.57L705.331,1705.57C700.196,1705.57 700.187,1713.55 705.331,1713.55L712.852,1713.55L712.852,1721.96C712.852,1727.09 720.834,1727.1 720.834,1721.96L720.834,1713.55L729.24,1713.55C734.376,1713.55 734.384,1705.57 729.24,1705.57Z" style="fill:rgb(242,237,110);fill-rule:nonzero;"/>
                    </g>
                    <g transform="matrix(1.08056,0,0,1.08056,4305.92,-245.182)">
                        <path d="M729.24,1705.57L720.834,1705.57L720.834,1698.93C720.834,1693.8 712.852,1693.79 712.852,1698.93L712.852,1705.57L705.331,1705.57C700.196,1705.57 700.187,1713.55 705.331,1713.55L712.852,1713.55L712.852,1721.96C712.852,1727.09 720.834,1727.1 720.834,1721.96L720.834,1713.55L729.24,1713.55C734.376,1713.55 734.384,1705.57 729.24,1705.57Z" style="fill:rgb(242,237,110);fill-rule:nonzero;"/>
                    </g>
                    <g transform="matrix(1.08056,0,0,1.08056,3817.41,277.428)">
                        <path d="M729.24,1705.57L720.834,1705.57L720.834,1698.93C720.834,1693.8 712.852,1693.79 712.852,1698.93L712.852,1705.57L705.331,1705.57C700.196,1705.57 700.187,1713.55 705.331,1713.55L712.852,1713.55L712.852,1721.96C712.852,1727.09 720.834,1727.1 720.834,1721.96L720.834,1713.55L729.24,1713.55C734.376,1713.55 734.384,1705.57 729.24,1705.57Z" style="fill:rgb(242,237,110);fill-rule:nonzero;"/>
                    </g>
                    <g transform="matrix(1.08056,0,0,1.08056,3504.1,227.315)">
                        <path d="M729.24,1705.57L720.834,1705.57L720.834,1698.93C720.834,1693.8 712.852,1693.79 712.852,1698.93L712.852,1705.57L705.331,1705.57C700.196,1705.57 700.187,1713.55 705.331,1713.55L712.852,1713.55L712.852,1721.96C712.852,1727.09 720.834,1727.1 720.834,1721.96L720.834,1713.55L729.24,1713.55C734.376,1713.55 734.384,1705.57 729.24,1705.57Z" style="fill:rgb(242,237,110);fill-rule:nonzero;"/>
                    </g>
                    <g transform="matrix(1.08056,0,0,1.08056,3783.24,-1036.47)">
                        <path d="M729.24,1705.57L720.834,1705.57L720.834,1698.93C720.834,1693.8 712.852,1693.79 712.852,1698.93L712.852,1705.57L705.331,1705.57C700.196,1705.57 700.187,1713.55 705.331,1713.55L712.852,1713.55L712.852,1721.96C712.852,1727.09 720.834,1727.1 720.834,1721.96L720.834,1713.55L729.24,1713.55C734.376,1713.55 734.384,1705.57 729.24,1705.57Z" style="fill:rgb(242,237,110);fill-rule:nonzero;"/>
                    </g>
                    <g transform="matrix(1,0,0,1,246.724,371.74)">
                        <path d="M4327.91,1395.07C4323.1,1395.07 4319.19,1398.98 4319.19,1403.78C4319.19,1408.59 4323.1,1412.5 4327.91,1412.5C4332.72,1412.5 4336.63,1408.59 4336.63,1403.78C4336.63,1398.98 4332.72,1395.07 4327.91,1395.07ZM4327.91,1417.9C4320.12,1417.9 4313.79,1411.57 4313.79,1403.78C4313.79,1396 4320.12,1389.67 4327.91,1389.67C4335.69,1389.67 4342.03,1396 4342.03,1403.78C4342.03,1411.57 4335.69,1417.9 4327.91,1417.9ZM3919.89,609.65C3916.16,609.65 3913.12,612.686 3913.12,616.425C3913.12,620.153 3916.16,623.189 3919.89,623.189C3923.62,623.189 3926.66,620.153 3926.66,616.425C3926.66,612.686 3923.62,609.65 3919.89,609.65ZM3919.89,628.592C3913.18,628.592 3907.72,623.135 3907.72,616.425C3907.72,609.704 3913.18,604.246 3919.89,604.246C3926.61,604.246 3932.07,609.704 3932.07,616.425C3932.07,623.135 3926.61,628.592 3919.89,628.592ZM3740.93,411.246C3734.21,411.246 3728.74,416.715 3728.74,423.435C3728.74,430.156 3734.21,435.625 3740.93,435.625C3747.64,435.625 3753.11,430.156 3753.11,423.435C3753.11,416.715 3747.64,411.246 3740.93,411.246ZM3740.93,441.027C3731.23,441.027 3723.34,433.139 3723.34,423.435C3723.34,413.744 3731.23,405.844 3740.93,405.844C3750.62,405.844 3758.51,413.744 3758.51,423.435C3758.51,433.139 3750.62,441.027 3740.93,441.027ZM3514.13,830.692C3507.41,830.692 3501.95,836.161 3501.95,842.881C3501.95,849.602 3507.41,855.071 3514.13,855.071C3520.85,855.071 3526.32,849.602 3526.32,842.881C3526.32,836.161 3520.85,830.692 3514.13,830.692ZM3514.13,860.473C3504.43,860.473 3496.55,852.585 3496.55,842.881C3496.55,833.19 3504.43,825.29 3514.13,825.29C3523.83,825.29 3531.72,833.19 3531.72,842.881C3531.72,852.585 3523.83,860.473 3514.13,860.473ZM4839.73,735.879C4833.01,735.879 4827.55,741.348 4827.55,748.068C4827.55,754.789 4833.01,760.258 4839.73,760.258C4846.45,760.258 4851.92,754.789 4851.92,748.068C4851.92,741.348 4846.45,735.879 4839.73,735.879ZM4839.73,765.66C4830.03,765.66 4822.14,757.772 4822.14,748.068C4822.14,738.377 4830.03,730.477 4839.73,730.477C4849.43,730.477 4857.32,738.377 4857.32,748.068C4857.32,757.772 4849.43,765.66 4839.73,765.66ZM4647.46,1229.42C4640.74,1229.42 4635.28,1234.89 4635.28,1241.61C4635.28,1248.34 4640.74,1253.8 4647.46,1253.8C4654.18,1253.8 4659.65,1248.34 4659.65,1241.61C4659.65,1234.89 4654.18,1229.42 4647.46,1229.42ZM4647.46,1259.21C4637.76,1259.21 4629.87,1251.32 4629.87,1241.61C4629.87,1231.92 4637.76,1224.02 4647.46,1224.02C4657.16,1224.02 4665.05,1231.92 4665.05,1241.61C4665.05,1251.32 4657.16,1259.21 4647.46,1259.21ZM4735.78,1539.76C4729.06,1539.76 4723.6,1545.23 4723.6,1551.95C4723.6,1558.67 4729.06,1564.14 4735.78,1564.14C4742.5,1564.14 4747.97,1558.67 4747.97,1551.95C4747.97,1545.23 4742.5,1539.76 4735.78,1539.76ZM4735.78,1569.54C4726.08,1569.54 4718.19,1561.66 4718.19,1551.95C4718.19,1542.26 4726.08,1534.36 4735.78,1534.36C4745.48,1534.36 4753.37,1542.26 4753.37,1551.95C4753.37,1561.66 4745.48,1569.54 4735.78,1569.54ZM4446.58,333.289C4439.86,333.289 4434.39,338.758 4434.39,345.478C4434.39,352.199 4439.86,357.668 4446.58,357.668C4453.3,357.668 4458.76,352.199 4458.76,345.478C4458.76,338.758 4453.3,333.289 4446.58,333.289ZM4446.58,363.069C4436.88,363.069 4428.99,355.181 4428.99,345.478C4428.99,335.786 4436.88,327.886 4446.58,327.886C4456.28,327.886 4464.16,335.786 4464.16,345.478C4464.16,355.181 4456.28,363.069 4446.58,363.069ZM4096.44,462.046C4089.73,462.046 4084.26,467.515 4084.26,474.235C4084.26,480.956 4089.73,486.425 4096.44,486.425C4103.16,486.425 4108.63,480.956 4108.63,474.235C4108.63,467.515 4103.16,462.046 4096.44,462.046ZM4096.44,491.827C4086.75,491.827 4078.86,483.939 4078.86,474.235C4078.86,464.544 4086.75,456.644 4096.44,456.644C4106.14,456.644 4114.03,464.544 4114.03,474.235C4114.03,483.939 4106.14,491.827 4096.44,491.827ZM3496.55,1247.02C3489.83,1247.02 3484.36,1252.49 3484.36,1259.21C3484.36,1265.93 3489.83,1271.4 3496.55,1271.4C3503.26,1271.4 3508.73,1265.93 3508.73,1259.21C3508.73,1252.49 3503.26,1247.02 3496.55,1247.02ZM3496.55,1276.8C3486.85,1276.8 3478.96,1268.91 3478.96,1259.21C3478.96,1249.51 3486.85,1241.61 3496.55,1241.61C3506.24,1241.61 3514.13,1249.51 3514.13,1259.21C3514.13,1268.91 3506.24,1276.8 3496.55,1276.8ZM3714.89,1522.17C3708.17,1522.17 3702.7,1527.64 3702.7,1534.36C3702.7,1541.08 3708.17,1546.55 3714.89,1546.55C3721.61,1546.55 3727.08,1541.08 3727.08,1534.36C3727.08,1527.64 3721.61,1522.17 3714.89,1522.17ZM3714.89,1551.95C3705.19,1551.95 3697.3,1544.06 3697.3,1534.36C3697.3,1524.67 3705.19,1516.77 3714.89,1516.77C3724.59,1516.77 3732.48,1524.67 3732.48,1534.36C3732.48,1544.06 3724.59,1551.95 3714.89,1551.95ZM4243.21,1522.17C4236.49,1522.17 4231.02,1527.64 4231.02,1534.36C4231.02,1541.08 4236.49,1546.55 4243.21,1546.55C4249.93,1546.55 4255.39,1541.08 4255.39,1534.36C4255.39,1527.64 4249.93,1522.17 4243.21,1522.17ZM4243.21,1551.95C4233.51,1551.95 4225.62,1544.06 4225.62,1534.36C4225.62,1524.67 4233.51,1516.77 4243.21,1516.77C4252.9,1516.77 4260.79,1524.67 4260.79,1534.36C4260.79,1544.06 4252.9,1551.95 4243.21,1551.95ZM4512.38,1486.99C4505.66,1486.99 4500.2,1492.46 4500.2,1499.18C4500.2,1505.9 4505.66,1511.37 4512.38,1511.37C4519.1,1511.37 4524.57,1505.9 4524.57,1499.18C4524.57,1492.46 4519.1,1486.99 4512.38,1486.99ZM4512.38,1516.77C4502.68,1516.77 4494.79,1508.88 4494.79,1499.18C4494.79,1489.49 4502.68,1481.59 4512.38,1481.59C4522.08,1481.59 4529.97,1489.49 4529.97,1499.18C4529.97,1508.88 4522.08,1516.77 4512.38,1516.77ZM3944.87,923.932C3940.39,923.932 3936.74,927.573 3936.74,932.058C3936.74,936.542 3940.39,940.184 3944.87,940.184C3949.35,940.184 3952.99,936.542 3952.99,932.058C3952.99,927.573 3949.35,923.932 3944.87,923.932ZM3944.87,945.586C3937.41,945.586 3931.34,939.514 3931.34,932.058C3931.34,924.602 3937.41,918.529 3944.87,918.529C3952.32,918.529 3958.39,924.602 3958.39,932.058C3958.39,939.514 3952.32,945.586 3944.87,945.586ZM3992.87,1291.65C3989.57,1291.65 3986.9,1294.33 3986.9,1297.62C3986.9,1300.92 3989.57,1303.6 3992.87,1303.6C3996.16,1303.6 3998.84,1300.92 3998.84,1297.62C3998.84,1294.33 3996.16,1291.65 3992.87,1291.65ZM3992.87,1309C3986.6,1309 3981.49,1303.9 3981.49,1297.62C3981.49,1291.36 3986.6,1286.25 3992.87,1286.25C3999.14,1286.25 4004.24,1291.36 4004.24,1297.62C4004.24,1303.9 3999.14,1309 3992.87,1309ZM3973.69,1230.78L3964.61,1230.78L3964.61,1223.61C3964.61,1218.06 3955.98,1218.05 3955.98,1223.61L3955.98,1230.78L3947.86,1230.78C3942.31,1230.78 3942.3,1239.4 3947.86,1239.4L3955.98,1239.4L3955.98,1248.49C3955.98,1254.03 3964.61,1254.04 3964.61,1248.49L3964.61,1239.4L3973.69,1239.4C3979.24,1239.4 3979.25,1230.78 3973.69,1230.78ZM4520.43,1018.34L4511.34,1018.34L4511.34,1011.17C4511.34,1005.62 4502.72,1005.61 4502.72,1011.17L4502.72,1018.34L4494.59,1018.34C4489.04,1018.34 4489.03,1026.96 4494.59,1026.96L4502.72,1026.96L4502.72,1036.05C4502.72,1041.6 4511.34,1041.61 4511.34,1036.05L4511.34,1026.96L4520.43,1026.96C4525.97,1026.96 4525.98,1018.34 4520.43,1018.34ZM4346.53,598.449L4337.45,598.449L4337.45,591.279C4337.45,585.729 4328.82,585.721 4328.82,591.279L4328.82,598.449L4320.7,598.449C4315.15,598.449 4315.14,607.074 4320.7,607.074L4328.82,607.074L4328.82,616.155C4328.82,621.709 4337.45,621.72 4337.45,616.155L4337.45,607.074L4346.53,607.074C4352.08,607.074 4352.09,598.449 4346.53,598.449ZM3901.41,713.351L3892.33,713.351L3892.33,706.177C3892.33,700.633 3883.7,700.622 3883.7,706.177L3883.7,713.351L3875.58,713.351C3870.03,713.351 3870.02,721.974 3875.58,721.974L3883.7,721.974L3883.7,731.051C3883.7,736.605 3892.33,736.616 3892.33,731.051L3892.33,721.974L3901.41,721.974C3906.96,721.974 3906.97,713.351 3901.41,713.351ZM4422.76,1371.99L4413.68,1371.99L4413.68,1364.81C4413.68,1359.27 4405.06,1359.26 4405.06,1364.81L4405.06,1371.99L4396.93,1371.99C4391.38,1371.99 4391.37,1380.61 4396.93,1380.61L4405.06,1380.61L4405.06,1389.7C4405.06,1395.24 4413.68,1395.25 4413.68,1389.7L4413.68,1380.61L4422.76,1380.61C4428.31,1380.61 4428.32,1371.99 4422.76,1371.99ZM4847.18,1226.06L4838.1,1226.06L4838.1,1218.88C4838.1,1213.34 4829.47,1213.33 4829.47,1218.88L4829.47,1226.06L4821.35,1226.06C4815.8,1226.06 4815.79,1234.68 4821.35,1234.68L4829.47,1234.68L4829.47,1243.77C4829.47,1249.31 4838.1,1249.32 4838.1,1243.77L4838.1,1234.68L4847.18,1234.68C4852.73,1234.68 4852.74,1226.06 4847.18,1226.06ZM4358.67,1748.67L4349.59,1748.67L4349.59,1741.49C4349.59,1735.95 4340.97,1735.94 4340.97,1741.49L4340.97,1748.67L4332.84,1748.67C4327.29,1748.67 4327.28,1757.29 4332.84,1757.29L4340.97,1757.29L4340.97,1766.38C4340.97,1771.92 4349.59,1771.93 4349.59,1766.38L4349.59,1757.29L4358.67,1757.29C4364.22,1757.29 4364.23,1748.67 4358.67,1748.67ZM4045.37,1698.55L4036.28,1698.55L4036.28,1691.38C4036.28,1685.84 4027.66,1685.83 4027.66,1691.38L4027.66,1698.55L4019.53,1698.55C4013.98,1698.55 4013.97,1707.18 4019.53,1707.18L4027.66,1707.18L4027.66,1716.26C4027.66,1721.81 4036.28,1721.82 4036.28,1716.26L4036.28,1707.18L4045.37,1707.18C4050.92,1707.18 4050.93,1698.55 4045.37,1698.55ZM3818.74,1496.26L3809.66,1496.26L3809.66,1489.08C3809.66,1483.54 3801.03,1483.53 3801.03,1489.08L3801.03,1496.26L3792.91,1496.26C3787.36,1496.26 3787.35,1504.88 3792.91,1504.88L3801.03,1504.88L3801.03,1513.97C3801.03,1519.51 3809.66,1519.52 3809.66,1513.97L3809.66,1504.88L3818.74,1504.88C3824.29,1504.88 3824.3,1496.26 3818.74,1496.26ZM3642.58,1135.19L3633.5,1135.19L3633.5,1128.01C3633.5,1122.47 3624.87,1122.46 3624.87,1128.01L3624.87,1135.19L3616.75,1135.19C3611.2,1135.19 3611.19,1143.81 3616.75,1143.81L3624.87,1143.81L3624.87,1152.9C3624.87,1158.44 3633.5,1158.45 3633.5,1152.9L3633.5,1143.81L3642.58,1143.81C3648.13,1143.81 3648.14,1135.19 3642.58,1135.19ZM3642.58,647.639L3633.5,647.639L3633.5,640.464C3633.5,634.921 3624.87,634.91 3624.87,640.464L3624.87,647.639L3616.75,647.639C3611.2,647.639 3611.19,656.262 3616.75,656.262L3624.87,656.262L3624.87,665.349C3624.87,670.893 3633.5,670.903 3633.5,665.349L3633.5,656.262L3642.58,656.262C3648.13,656.262 3648.14,647.639 3642.58,647.639ZM4324.51,434.772L4315.42,434.772L4315.42,427.597C4315.42,422.053 4306.8,422.043 4306.8,427.597L4306.8,434.772L4298.67,434.772C4293.12,434.772 4293.11,443.394 4298.67,443.394L4306.8,443.394L4306.8,452.482C4306.8,458.025 4315.42,458.036 4315.42,452.482L4315.42,443.394L4324.51,443.394C4330.06,443.394 4330.07,434.772 4324.51,434.772Z" style="fill:rgb(242,237,110);fill-rule:nonzero;"/>
                    </g>
                </g>
                <g transform="matrix(1.41961,0,0,1.41961,-1091,-993.194)">
                    <g transform="matrix(1.08056,0,0,1.08056,3881.5,-99.2508)">
                        <path d="M641.458,1726.93C637.009,1726.93 633.389,1730.55 633.389,1734.99C633.389,1739.44 637.009,1743.06 641.458,1743.06C645.907,1743.06 649.526,1739.44 649.526,1734.99C649.526,1730.55 645.907,1726.93 641.458,1726.93ZM641.458,1748.06C634.252,1748.06 628.389,1742.2 628.389,1734.99C628.389,1727.79 634.252,1721.93 641.458,1721.93C648.664,1721.93 654.526,1727.79 654.526,1734.99C654.526,1742.2 648.664,1748.06 641.458,1748.06Z" style="fill:rgb(242,237,110);fill-rule:nonzero;"/>
                    </g>
                    <g transform="matrix(1.08056,0,0,1.08056,3881.5,-99.2508)">
                        <path d="M263.861,1000.07C260.405,1000.07 257.594,1002.88 257.594,1006.34C257.594,1009.79 260.405,1012.6 263.861,1012.6C267.316,1012.6 270.128,1009.79 270.128,1006.34C270.128,1002.88 267.316,1000.07 263.861,1000.07ZM263.861,1017.6C257.648,1017.6 252.594,1012.55 252.594,1006.34C252.594,1000.12 257.648,995.069 263.861,995.069C270.074,995.069 275.128,1000.12 275.128,1006.34C275.128,1012.55 270.074,1017.6 263.861,1017.6Z" style="fill:rgb(242,237,110);fill-rule:nonzero;"/>
                    </g>
                    <g transform="matrix(1.08056,0,0,1.08056,3329,-322.01)">
                        <path d="M609.542,1022.61C603.324,1022.61 598.265,1027.67 598.265,1033.89C598.265,1040.11 603.324,1045.17 609.542,1045.17C615.76,1045.17 620.819,1040.11 620.819,1033.89C620.819,1027.67 615.76,1022.61 609.542,1022.61ZM609.542,1050.17C600.566,1050.17 593.265,1042.87 593.265,1033.89C593.265,1024.92 600.566,1017.61 609.542,1017.61C618.517,1017.61 625.819,1024.92 625.819,1033.89C625.819,1042.87 618.517,1050.17 609.542,1050.17Z" style="fill:rgb(242,237,110);fill-rule:nonzero;"/>
                    </g>
                    <g transform="matrix(1.08056,0,0,1.08056,3102.21,97.436)">
                        <path d="M609.542,1022.61C603.324,1022.61 598.265,1027.67 598.265,1033.89C598.265,1040.11 603.324,1045.17 609.542,1045.17C615.76,1045.17 620.819,1040.11 620.819,1033.89C620.819,1027.67 615.76,1022.61 609.542,1022.61ZM609.542,1050.17C600.566,1050.17 593.265,1042.87 593.265,1033.89C593.265,1024.92 600.566,1017.61 609.542,1017.61C618.517,1017.61 625.819,1024.92 625.819,1033.89C625.819,1042.87 618.517,1050.17 609.542,1050.17Z" style="fill:rgb(242,237,110);fill-rule:nonzero;"/>
                    </g>
                    <g transform="matrix(1.08056,0,0,1.08056,4034.65,-399.967)">
                        <path d="M609.542,1022.61C603.324,1022.61 598.265,1027.67 598.265,1033.89C598.265,1040.11 603.324,1045.17 609.542,1045.17C615.76,1045.17 620.819,1040.11 620.819,1033.89C620.819,1027.67 615.76,1022.61 609.542,1022.61ZM609.542,1050.17C600.566,1050.17 593.265,1042.87 593.265,1033.89C593.265,1024.92 600.566,1017.61 609.542,1017.61C618.517,1017.61 625.819,1024.92 625.819,1033.89C625.819,1042.87 618.517,1050.17 609.542,1050.17Z" style="fill:rgb(242,237,110);fill-rule:nonzero;"/>
                    </g>
                    <g transform="matrix(1.08056,0,0,1.08056,3684.52,-271.21)">
                        <path d="M609.542,1022.61C603.324,1022.61 598.265,1027.67 598.265,1033.89C598.265,1040.11 603.324,1045.17 609.542,1045.17C615.76,1045.17 620.819,1040.11 620.819,1033.89C620.819,1027.67 615.76,1022.61 609.542,1022.61ZM609.542,1050.17C600.566,1050.17 593.265,1042.87 593.265,1033.89C593.265,1024.92 600.566,1017.61 609.542,1017.61C618.517,1017.61 625.819,1024.92 625.819,1033.89C625.819,1042.87 618.517,1050.17 609.542,1050.17Z" style="fill:rgb(242,237,110);fill-rule:nonzero;"/>
                    </g>
                    <g transform="matrix(1.08056,0,0,1.08056,3084.62,513.761)">
                        <path d="M609.542,1022.61C603.324,1022.61 598.265,1027.67 598.265,1033.89C598.265,1040.11 603.324,1045.17 609.542,1045.17C615.76,1045.17 620.819,1040.11 620.819,1033.89C620.819,1027.67 615.76,1022.61 609.542,1022.61ZM609.542,1050.17C600.566,1050.17 593.265,1042.87 593.265,1033.89C593.265,1024.92 600.566,1017.61 609.542,1017.61C618.517,1017.61 625.819,1024.92 625.819,1033.89C625.819,1042.87 618.517,1050.17 609.542,1050.17Z" style="fill:rgb(242,237,110);fill-rule:nonzero;"/>
                    </g>
                    <g transform="matrix(1.08056,0,0,1.08056,3302.96,788.916)">
                        <path d="M609.542,1022.61C603.324,1022.61 598.265,1027.67 598.265,1033.89C598.265,1040.11 603.324,1045.17 609.542,1045.17C615.76,1045.17 620.819,1040.11 620.819,1033.89C620.819,1027.67 615.76,1022.61 609.542,1022.61ZM609.542,1050.17C600.566,1050.17 593.265,1042.87 593.265,1033.89C593.265,1024.92 600.566,1017.61 609.542,1017.61C618.517,1017.61 625.819,1024.92 625.819,1033.89C625.819,1042.87 618.517,1050.17 609.542,1050.17Z" style="fill:rgb(242,237,110);fill-rule:nonzero;"/>
                    </g>
                    <g transform="matrix(1.08056,0,0,1.08056,3831.28,788.916)">
                        <path d="M609.542,1022.61C603.324,1022.61 598.265,1027.67 598.265,1033.89C598.265,1040.11 603.324,1045.17 609.542,1045.17C615.76,1045.17 620.819,1040.11 620.819,1033.89C620.819,1027.67 615.76,1022.61 609.542,1022.61ZM609.542,1050.17C600.566,1050.17 593.265,1042.87 593.265,1033.89C593.265,1024.92 600.566,1017.61 609.542,1017.61C618.517,1017.61 625.819,1024.92 625.819,1033.89C625.819,1042.87 618.517,1050.17 609.542,1050.17Z" style="fill:rgb(242,237,110);fill-rule:nonzero;"/>
                    </g>
                    <g transform="matrix(1.08056,0,0,1.08056,3881.5,-99.2508)">
                        <path d="M286.973,1290.92C282.827,1290.92 279.453,1294.29 279.453,1298.44C279.453,1302.59 282.827,1305.96 286.973,1305.96C291.12,1305.96 294.493,1302.59 294.493,1298.44C294.493,1294.29 291.12,1290.92 286.973,1290.92ZM286.973,1310.96C280.07,1310.96 274.453,1305.34 274.453,1298.44C274.453,1291.54 280.07,1285.92 286.973,1285.92C293.876,1285.92 299.493,1291.54 299.493,1298.44C299.493,1305.34 293.876,1310.96 286.973,1310.96Z" style="fill:rgb(242,237,110);fill-rule:nonzero;"/>
                    </g>
                    <g transform="matrix(1.08056,0,0,1.08056,3881.5,-99.2508)">
                        <path d="M331.396,1631.22C328.349,1631.22 325.87,1633.7 325.87,1636.75C325.87,1639.8 328.349,1642.28 331.396,1642.28C334.443,1642.28 336.923,1639.8 336.923,1636.75C336.923,1633.7 334.443,1631.22 331.396,1631.22ZM331.396,1647.28C325.592,1647.28 320.87,1642.56 320.87,1636.75C320.87,1630.95 325.592,1626.22 331.396,1626.22C337.201,1626.22 341.923,1630.95 341.923,1636.75C341.923,1642.56 337.201,1647.28 331.396,1647.28Z" style="fill:rgb(242,237,110);fill-rule:nonzero;"/>
                    </g>
                    <g transform="matrix(1.08056,0,0,1.08056,3881.5,-99.2508)">
                        <path d="M313.649,1574.89L305.243,1574.89L305.243,1568.25C305.243,1563.12 297.262,1563.11 297.262,1568.25L297.262,1574.89L289.741,1574.89C284.605,1574.89 284.597,1582.87 289.741,1582.87L297.262,1582.87L297.262,1591.28C297.262,1596.41 305.243,1596.42 305.243,1591.28L305.243,1582.87L313.649,1582.87C318.785,1582.87 318.793,1574.89 313.649,1574.89Z" style="fill:rgb(242,237,110);fill-rule:nonzero;"/>
                    </g>
                    <g transform="matrix(1.08056,0,0,1.08056,3881.5,-99.2508)">
                        <path d="M658.692,989.704L650.286,989.704L650.286,983.069C650.286,977.933 642.305,977.925 642.305,983.069L642.305,989.704L634.784,989.704C629.648,989.704 629.64,997.686 634.784,997.686L642.305,997.686L642.305,1006.09C642.305,1011.23 650.286,1011.24 650.286,1006.09L650.286,997.686L658.692,997.686C663.828,997.686 663.837,989.704 658.692,989.704Z" style="fill:rgb(242,237,110);fill-rule:nonzero;"/>
                    </g>
                    <g transform="matrix(1.08056,0,0,1.08056,3881.5,-99.2508)">
                        <path d="M246.758,1096.04L238.352,1096.04L238.352,1089.4C238.352,1084.27 230.37,1084.26 230.37,1089.4L230.37,1096.04L222.85,1096.04C217.714,1096.04 217.705,1104.02 222.85,1104.02L230.37,1104.02L230.37,1112.42C230.37,1117.56 238.352,1117.57 238.352,1112.42L238.352,1104.02L246.758,1104.02C251.894,1104.02 251.903,1096.04 246.758,1096.04Z" style="fill:rgb(242,237,110);fill-rule:nonzero;"/>
                    </g>
                    <g transform="matrix(1.08056,0,0,1.08056,3881.5,-99.2508)">
                        <path d="M729.24,1705.57L720.834,1705.57L720.834,1698.93C720.834,1693.8 712.852,1693.79 712.852,1698.93L712.852,1705.57L705.331,1705.57C700.196,1705.57 700.187,1713.55 705.331,1713.55L712.852,1713.55L712.852,1721.96C712.852,1727.09 720.834,1727.1 720.834,1721.96L720.834,1713.55L729.24,1713.55C734.376,1713.55 734.384,1705.57 729.24,1705.57Z" style="fill:rgb(242,237,110);fill-rule:nonzero;"/>
                    </g>
                    <g transform="matrix(1.08056,0,0,1.08056,3817.41,277.428)">
                        <path d="M729.24,1705.57L720.834,1705.57L720.834,1698.93C720.834,1693.8 712.852,1693.79 712.852,1698.93L712.852,1705.57L705.331,1705.57C700.196,1705.57 700.187,1713.55 705.331,1713.55L712.852,1713.55L712.852,1721.96C712.852,1727.09 720.834,1727.1 720.834,1721.96L720.834,1713.55L729.24,1713.55C734.376,1713.55 734.384,1705.57 729.24,1705.57Z" style="fill:rgb(242,237,110);fill-rule:nonzero;"/>
                    </g>
                    <g transform="matrix(1.08056,0,0,1.08056,3504.1,227.315)">
                        <path d="M729.24,1705.57L720.834,1705.57L720.834,1698.93C720.834,1693.8 712.852,1693.79 712.852,1698.93L712.852,1705.57L705.331,1705.57C700.196,1705.57 700.187,1713.55 705.331,1713.55L712.852,1713.55L712.852,1721.96C712.852,1727.09 720.834,1727.1 720.834,1721.96L720.834,1713.55L729.24,1713.55C734.376,1713.55 734.384,1705.57 729.24,1705.57Z" style="fill:rgb(242,237,110);fill-rule:nonzero;"/>
                    </g>
                    <g transform="matrix(1.08056,0,0,1.08056,3277.48,25.0164)">
                        <path d="M729.24,1705.57L720.834,1705.57L720.834,1698.93C720.834,1693.8 712.852,1693.79 712.852,1698.93L712.852,1705.57L705.331,1705.57C700.196,1705.57 700.187,1713.55 705.331,1713.55L712.852,1713.55L712.852,1721.96C712.852,1727.09 720.834,1727.1 720.834,1721.96L720.834,1713.55L729.24,1713.55C734.376,1713.55 734.384,1705.57 729.24,1705.57Z" style="fill:rgb(242,237,110);fill-rule:nonzero;"/>
                    </g>
                    <g transform="matrix(1.08056,0,0,1.08056,3101.31,-336.051)">
                        <path d="M729.24,1705.57L720.834,1705.57L720.834,1698.93C720.834,1693.8 712.852,1693.79 712.852,1698.93L712.852,1705.57L705.331,1705.57C700.196,1705.57 700.187,1713.55 705.331,1713.55L712.852,1713.55L712.852,1721.96C712.852,1727.09 720.834,1727.1 720.834,1721.96L720.834,1713.55L729.24,1713.55C734.376,1713.55 734.384,1705.57 729.24,1705.57Z" style="fill:rgb(242,237,110);fill-rule:nonzero;"/>
                    </g>
                    <g transform="matrix(1.08056,0,0,1.08056,3101.31,-823.6)">
                        <path d="M729.24,1705.57L720.834,1705.57L720.834,1698.93C720.834,1693.8 712.852,1693.79 712.852,1698.93L712.852,1705.57L705.331,1705.57C700.196,1705.57 700.187,1713.55 705.331,1713.55L712.852,1713.55L712.852,1721.96C712.852,1727.09 720.834,1727.1 720.834,1721.96L720.834,1713.55L729.24,1713.55C734.376,1713.55 734.384,1705.57 729.24,1705.57Z" style="fill:rgb(242,237,110);fill-rule:nonzero;"/>
                    </g>
                    <g transform="matrix(1.08056,0,0,1.08056,3783.24,-1036.47)">
                        <path d="M729.24,1705.57L720.834,1705.57L720.834,1698.93C720.834,1693.8 712.852,1693.79 712.852,1698.93L712.852,1705.57L705.331,1705.57C700.196,1705.57 700.187,1713.55 705.331,1713.55L712.852,1713.55L712.852,1721.96C712.852,1727.09 720.834,1727.1 720.834,1721.96L720.834,1713.55L729.24,1713.55C734.376,1713.55 734.384,1705.57 729.24,1705.57Z" style="fill:rgb(242,237,110);fill-rule:nonzero;"/>
                    </g>
                    <g transform="matrix(1,0,0,1,246.724,371.74)">
                        <path d="M4327.91,1395.07C4323.1,1395.07 4319.19,1398.98 4319.19,1403.78C4319.19,1408.59 4323.1,1412.5 4327.91,1412.5C4332.72,1412.5 4336.63,1408.59 4336.63,1403.78C4336.63,1398.98 4332.72,1395.07 4327.91,1395.07ZM4327.91,1417.9C4320.12,1417.9 4313.79,1411.57 4313.79,1403.78C4313.79,1396 4320.12,1389.67 4327.91,1389.67C4335.69,1389.67 4342.03,1396 4342.03,1403.78C4342.03,1411.57 4335.69,1417.9 4327.91,1417.9ZM3919.89,609.65C3916.16,609.65 3913.12,612.686 3913.12,616.425C3913.12,620.153 3916.16,623.189 3919.89,623.189C3923.62,623.189 3926.66,620.153 3926.66,616.425C3926.66,612.686 3923.62,609.65 3919.89,609.65ZM3919.89,628.592C3913.18,628.592 3907.72,623.135 3907.72,616.425C3907.72,609.704 3913.18,604.246 3919.89,604.246C3926.61,604.246 3932.07,609.704 3932.07,616.425C3932.07,623.135 3926.61,628.592 3919.89,628.592ZM3740.93,411.246C3734.21,411.246 3728.74,416.715 3728.74,423.435C3728.74,430.156 3734.21,435.625 3740.93,435.625C3747.64,435.625 3753.11,430.156 3753.11,423.435C3753.11,416.715 3747.64,411.246 3740.93,411.246ZM3740.93,441.027C3731.23,441.027 3723.34,433.139 3723.34,423.435C3723.34,413.744 3731.23,405.844 3740.93,405.844C3750.62,405.844 3758.51,413.744 3758.51,423.435C3758.51,433.139 3750.62,441.027 3740.93,441.027ZM3514.13,830.692C3507.41,830.692 3501.95,836.161 3501.95,842.881C3501.95,849.602 3507.41,855.071 3514.13,855.071C3520.85,855.071 3526.32,849.602 3526.32,842.881C3526.32,836.161 3520.85,830.692 3514.13,830.692ZM3514.13,860.473C3504.43,860.473 3496.55,852.585 3496.55,842.881C3496.55,833.19 3504.43,825.29 3514.13,825.29C3523.83,825.29 3531.72,833.19 3531.72,842.881C3531.72,852.585 3523.83,860.473 3514.13,860.473ZM4839.73,735.879C4833.01,735.879 4827.55,741.348 4827.55,748.068C4827.55,754.789 4833.01,760.258 4839.73,760.258C4846.45,760.258 4851.92,754.789 4851.92,748.068C4851.92,741.348 4846.45,735.879 4839.73,735.879ZM4839.73,765.66C4830.03,765.66 4822.14,757.772 4822.14,748.068C4822.14,738.377 4830.03,730.477 4839.73,730.477C4849.43,730.477 4857.32,738.377 4857.32,748.068C4857.32,757.772 4849.43,765.66 4839.73,765.66ZM4647.46,1229.42C4640.74,1229.42 4635.28,1234.89 4635.28,1241.61C4635.28,1248.34 4640.74,1253.8 4647.46,1253.8C4654.18,1253.8 4659.65,1248.34 4659.65,1241.61C4659.65,1234.89 4654.18,1229.42 4647.46,1229.42ZM4647.46,1259.21C4637.76,1259.21 4629.87,1251.32 4629.87,1241.61C4629.87,1231.92 4637.76,1224.02 4647.46,1224.02C4657.16,1224.02 4665.05,1231.92 4665.05,1241.61C4665.05,1251.32 4657.16,1259.21 4647.46,1259.21ZM4735.78,1539.76C4729.06,1539.76 4723.6,1545.23 4723.6,1551.95C4723.6,1558.67 4729.06,1564.14 4735.78,1564.14C4742.5,1564.14 4747.97,1558.67 4747.97,1551.95C4747.97,1545.23 4742.5,1539.76 4735.78,1539.76ZM4735.78,1569.54C4726.08,1569.54 4718.19,1561.66 4718.19,1551.95C4718.19,1542.26 4726.08,1534.36 4735.78,1534.36C4745.48,1534.36 4753.37,1542.26 4753.37,1551.95C4753.37,1561.66 4745.48,1569.54 4735.78,1569.54ZM4446.58,333.289C4439.86,333.289 4434.39,338.758 4434.39,345.478C4434.39,352.199 4439.86,357.668 4446.58,357.668C4453.3,357.668 4458.76,352.199 4458.76,345.478C4458.76,338.758 4453.3,333.289 4446.58,333.289ZM4446.58,363.069C4436.88,363.069 4428.99,355.181 4428.99,345.478C4428.99,335.786 4436.88,327.886 4446.58,327.886C4456.28,327.886 4464.16,335.786 4464.16,345.478C4464.16,355.181 4456.28,363.069 4446.58,363.069ZM4096.44,462.046C4089.73,462.046 4084.26,467.515 4084.26,474.235C4084.26,480.956 4089.73,486.425 4096.44,486.425C4103.16,486.425 4108.63,480.956 4108.63,474.235C4108.63,467.515 4103.16,462.046 4096.44,462.046ZM4096.44,491.827C4086.75,491.827 4078.86,483.939 4078.86,474.235C4078.86,464.544 4086.75,456.644 4096.44,456.644C4106.14,456.644 4114.03,464.544 4114.03,474.235C4114.03,483.939 4106.14,491.827 4096.44,491.827ZM3496.55,1247.02C3489.83,1247.02 3484.36,1252.49 3484.36,1259.21C3484.36,1265.93 3489.83,1271.4 3496.55,1271.4C3503.26,1271.4 3508.73,1265.93 3508.73,1259.21C3508.73,1252.49 3503.26,1247.02 3496.55,1247.02ZM3496.55,1276.8C3486.85,1276.8 3478.96,1268.91 3478.96,1259.21C3478.96,1249.51 3486.85,1241.61 3496.55,1241.61C3506.24,1241.61 3514.13,1249.51 3514.13,1259.21C3514.13,1268.91 3506.24,1276.8 3496.55,1276.8ZM3714.89,1522.17C3708.17,1522.17 3702.7,1527.64 3702.7,1534.36C3702.7,1541.08 3708.17,1546.55 3714.89,1546.55C3721.61,1546.55 3727.08,1541.08 3727.08,1534.36C3727.08,1527.64 3721.61,1522.17 3714.89,1522.17ZM3714.89,1551.95C3705.19,1551.95 3697.3,1544.06 3697.3,1534.36C3697.3,1524.67 3705.19,1516.77 3714.89,1516.77C3724.59,1516.77 3732.48,1524.67 3732.48,1534.36C3732.48,1544.06 3724.59,1551.95 3714.89,1551.95ZM4243.21,1522.17C4236.49,1522.17 4231.02,1527.64 4231.02,1534.36C4231.02,1541.08 4236.49,1546.55 4243.21,1546.55C4249.93,1546.55 4255.39,1541.08 4255.39,1534.36C4255.39,1527.64 4249.93,1522.17 4243.21,1522.17ZM4243.21,1551.95C4233.51,1551.95 4225.62,1544.06 4225.62,1534.36C4225.62,1524.67 4233.51,1516.77 4243.21,1516.77C4252.9,1516.77 4260.79,1524.67 4260.79,1534.36C4260.79,1544.06 4252.9,1551.95 4243.21,1551.95ZM4512.38,1486.99C4505.66,1486.99 4500.2,1492.46 4500.2,1499.18C4500.2,1505.9 4505.66,1511.37 4512.38,1511.37C4519.1,1511.37 4524.57,1505.9 4524.57,1499.18C4524.57,1492.46 4519.1,1486.99 4512.38,1486.99ZM4512.38,1516.77C4502.68,1516.77 4494.79,1508.88 4494.79,1499.18C4494.79,1489.49 4502.68,1481.59 4512.38,1481.59C4522.08,1481.59 4529.97,1489.49 4529.97,1499.18C4529.97,1508.88 4522.08,1516.77 4512.38,1516.77ZM3944.87,923.932C3940.39,923.932 3936.74,927.573 3936.74,932.058C3936.74,936.542 3940.39,940.184 3944.87,940.184C3949.35,940.184 3952.99,936.542 3952.99,932.058C3952.99,927.573 3949.35,923.932 3944.87,923.932ZM3944.87,945.586C3937.41,945.586 3931.34,939.514 3931.34,932.058C3931.34,924.602 3937.41,918.529 3944.87,918.529C3952.32,918.529 3958.39,924.602 3958.39,932.058C3958.39,939.514 3952.32,945.586 3944.87,945.586ZM3992.87,1291.65C3989.57,1291.65 3986.9,1294.33 3986.9,1297.62C3986.9,1300.92 3989.57,1303.6 3992.87,1303.6C3996.16,1303.6 3998.84,1300.92 3998.84,1297.62C3998.84,1294.33 3996.16,1291.65 3992.87,1291.65ZM3992.87,1309C3986.6,1309 3981.49,1303.9 3981.49,1297.62C3981.49,1291.36 3986.6,1286.25 3992.87,1286.25C3999.14,1286.25 4004.24,1291.36 4004.24,1297.62C4004.24,1303.9 3999.14,1309 3992.87,1309ZM3973.69,1230.78L3964.61,1230.78L3964.61,1223.61C3964.61,1218.06 3955.98,1218.05 3955.98,1223.61L3955.98,1230.78L3947.86,1230.78C3942.31,1230.78 3942.3,1239.4 3947.86,1239.4L3955.98,1239.4L3955.98,1248.49C3955.98,1254.03 3964.61,1254.04 3964.61,1248.49L3964.61,1239.4L3973.69,1239.4C3979.24,1239.4 3979.25,1230.78 3973.69,1230.78ZM4520.43,1018.34L4511.34,1018.34L4511.34,1011.17C4511.34,1005.62 4502.72,1005.61 4502.72,1011.17L4502.72,1018.34L4494.59,1018.34C4489.04,1018.34 4489.03,1026.96 4494.59,1026.96L4502.72,1026.96L4502.72,1036.05C4502.72,1041.6 4511.34,1041.61 4511.34,1036.05L4511.34,1026.96L4520.43,1026.96C4525.97,1026.96 4525.98,1018.34 4520.43,1018.34ZM4346.53,598.449L4337.45,598.449L4337.45,591.279C4337.45,585.729 4328.82,585.721 4328.82,591.279L4328.82,598.449L4320.7,598.449C4315.15,598.449 4315.14,607.074 4320.7,607.074L4328.82,607.074L4328.82,616.155C4328.82,621.709 4337.45,621.72 4337.45,616.155L4337.45,607.074L4346.53,607.074C4352.08,607.074 4352.09,598.449 4346.53,598.449ZM3901.41,713.351L3892.33,713.351L3892.33,706.177C3892.33,700.633 3883.7,700.622 3883.7,706.177L3883.7,713.351L3875.58,713.351C3870.03,713.351 3870.02,721.974 3875.58,721.974L3883.7,721.974L3883.7,731.051C3883.7,736.605 3892.33,736.616 3892.33,731.051L3892.33,721.974L3901.41,721.974C3906.96,721.974 3906.97,713.351 3901.41,713.351ZM4422.76,1371.99L4413.68,1371.99L4413.68,1364.81C4413.68,1359.27 4405.06,1359.26 4405.06,1364.81L4405.06,1371.99L4396.93,1371.99C4391.38,1371.99 4391.37,1380.61 4396.93,1380.61L4405.06,1380.61L4405.06,1389.7C4405.06,1395.24 4413.68,1395.25 4413.68,1389.7L4413.68,1380.61L4422.76,1380.61C4428.31,1380.61 4428.32,1371.99 4422.76,1371.99ZM4847.18,1226.06L4838.1,1226.06L4838.1,1218.88C4838.1,1213.34 4829.47,1213.33 4829.47,1218.88L4829.47,1226.06L4821.35,1226.06C4815.8,1226.06 4815.79,1234.68 4821.35,1234.68L4829.47,1234.68L4829.47,1243.77C4829.47,1249.31 4838.1,1249.32 4838.1,1243.77L4838.1,1234.68L4847.18,1234.68C4852.73,1234.68 4852.74,1226.06 4847.18,1226.06ZM4358.67,1748.67L4349.59,1748.67L4349.59,1741.49C4349.59,1735.95 4340.97,1735.94 4340.97,1741.49L4340.97,1748.67L4332.84,1748.67C4327.29,1748.67 4327.28,1757.29 4332.84,1757.29L4340.97,1757.29L4340.97,1766.38C4340.97,1771.92 4349.59,1771.93 4349.59,1766.38L4349.59,1757.29L4358.67,1757.29C4364.22,1757.29 4364.23,1748.67 4358.67,1748.67ZM4045.37,1698.55L4036.28,1698.55L4036.28,1691.38C4036.28,1685.84 4027.66,1685.83 4027.66,1691.38L4027.66,1698.55L4019.53,1698.55C4013.98,1698.55 4013.97,1707.18 4019.53,1707.18L4027.66,1707.18L4027.66,1716.26C4027.66,1721.81 4036.28,1721.82 4036.28,1716.26L4036.28,1707.18L4045.37,1707.18C4050.92,1707.18 4050.93,1698.55 4045.37,1698.55ZM3818.74,1496.26L3809.66,1496.26L3809.66,1489.08C3809.66,1483.54 3801.03,1483.53 3801.03,1489.08L3801.03,1496.26L3792.91,1496.26C3787.36,1496.26 3787.35,1504.88 3792.91,1504.88L3801.03,1504.88L3801.03,1513.97C3801.03,1519.51 3809.66,1519.52 3809.66,1513.97L3809.66,1504.88L3818.74,1504.88C3824.29,1504.88 3824.3,1496.26 3818.74,1496.26ZM3642.58,1135.19L3633.5,1135.19L3633.5,1128.01C3633.5,1122.47 3624.87,1122.46 3624.87,1128.01L3624.87,1135.19L3616.75,1135.19C3611.2,1135.19 3611.19,1143.81 3616.75,1143.81L3624.87,1143.81L3624.87,1152.9C3624.87,1158.44 3633.5,1158.45 3633.5,1152.9L3633.5,1143.81L3642.58,1143.81C3648.13,1143.81 3648.14,1135.19 3642.58,1135.19ZM3642.58,647.639L3633.5,647.639L3633.5,640.464C3633.5,634.921 3624.87,634.91 3624.87,640.464L3624.87,647.639L3616.75,647.639C3611.2,647.639 3611.19,656.262 3616.75,656.262L3624.87,656.262L3624.87,665.349C3624.87,670.893 3633.5,670.903 3633.5,665.349L3633.5,656.262L3642.58,656.262C3648.13,656.262 3648.14,647.639 3642.58,647.639ZM4324.51,434.772L4315.42,434.772L4315.42,427.597C4315.42,422.053 4306.8,422.043 4306.8,427.597L4306.8,434.772L4298.67,434.772C4293.12,434.772 4293.11,443.394 4298.67,443.394L4306.8,443.394L4306.8,452.482C4306.8,458.025 4315.42,458.036 4315.42,452.482L4315.42,443.394L4324.51,443.394C4330.06,443.394 4330.07,434.772 4324.51,434.772Z" style="fill:rgb(242,237,110);fill-rule:nonzero;"/>
                    </g>
                </g>
            </g>
        </g>
    </g>
</svg>
