<svg xmlns="http://www.w3.org/2000/svg" width="332.046" height="214.032" viewBox="0 0 332.046 214.032"><g transform="translate(-258 -234)"><rect width="332" height="213" transform="translate(258 234)" fill="#fff"/><g transform="translate(219.046 202.032)"><path d="M369,199V47a12,12,0,0,0-12-12H54A12,12,0,0,0,42,47V232a12,12,0,0,0,12,12H357a12,12,0,0,0,12-12V220.958A111.957,111.957,0,0,1,369,199Z" fill="none" stroke="#c2a1f2" stroke-miterlimit="10" stroke-width="4"/><path d="M369.4,183.4c-.144-.24-.283-.483-.428-.722a4.826,4.826,0,0,0-.422-2.688c-.5-3.295-.781-6.618-1.215-9.923a4.677,4.677,0,0,0,2.729-1.219c.28-5.109.586-10.217.856-15.326q-4.264-4.878-8.783-9.51c-5.888-9.839-14.392-18.323-22.636-25.924-6.035-5.565-12.373-10.764-18.806-15.85a56.117,56.117,0,0,0,23.414,8.665c.025.144.044.288.07.432C345.213,117,354,115.509,354,110a207.627,207.627,0,0,0-1.041-24.693c.379-6.777.987-13.559,1.044-20.308a5.3,5.3,0,0,0-.06-.727c2.84-3.2-.569-9.827-5.27-8.094-.333.123-.668.24-1,.357a5.267,5.267,0,0,0-3-.357A130.135,130.135,0,0,0,310.223,67.9a51.108,51.108,0,0,0-12.762-1.191c-.536.017-1.07.063-1.6.13a3.83,3.83,0,0,0-2.109.409,12.934,12.934,0,0,0-7.15,4.491c-12.694-14.135-26.521-27.661-43.078-37.061-2.98-1.692-6.776.406-7.527,3.314-1.85-.689-3.736-1.3-5.667-1.818a4.768,4.768,0,0,0-4.221.838,67.3,67.3,0,0,1-7.585-3.334,5.013,5.013,0,0,0-7.435,4.374,40.484,40.484,0,0,0-8.76-2.877c-6.3-1.251-8.98,8.387-2.658,9.643,10.9,2.165,20.508,10.384,28.739,17.374q3,2.547,5.9,5.2,1.592,1.7,3.2,3.384c-.053.463-.092.926-.141,1.389a4.588,4.588,0,0,0-.194.5c-2.311,8.356-2.414,16.94-1.844,25.5a70.314,70.314,0,0,0,.844,10.156c.648,4.03,7.257,5.029,9.045,1.366A4.644,4.644,0,0,0,249,105c0-.411.025-.82.034-1.23a5.051,5.051,0,0,0,5.295,2.052,62.148,62.148,0,0,0,8.572-2.457c-6.66,5.426-13.575,10.651-18.355,17.654-.529.271-1.056.547-1.579.833a11.285,11.285,0,0,0-1.49.831,4.962,4.962,0,0,0-2.252,4.861,5.235,5.235,0,0,0,.771,4.171,5.264,5.264,0,0,0,.318,1.055c.262,8.295,7.29,15.875,14.17,21.738a43.416,43.416,0,0,0,.694,6.821,4.2,4.2,0,0,0,1.818,2.9c-.021.748-.018,1.417.282,1.117a4.127,4.127,0,0,0-.19,1.7c.546,4.362,6.895,7.533,9.317,2.523a7.869,7.869,0,0,0,.486-1.281,6.868,6.868,0,0,0,.425-.766,4.5,4.5,0,0,0-.277-5.33c-.125-1.148-.26-2.295-.281-3.423-.005-.272.008-.543.009-.815a6.129,6.129,0,0,0,.9-4.376c5.495-15.309,10.2-30.979,11.312-47.276a345.35,345.35,0,0,0,37.094,44.6c1.213,5.521,2.583,11.014,4.109,16.426,1.747,6.2,11.4,3.561,9.643-2.658-.071-.253-.135-.508-.2-.761q3.506,3.183,7.091,6.268a221.234,221.234,0,0,0,24.416,26.037c.321,1.043.667,2.082,1.056,3.114a5.4,5.4,0,0,0,7.138,3.072C369.12,196.064,369.189,189.729,369.4,183.4ZM286.526,88.42c-.122-.116-.242-.233-.363-.35-.741-.784-1.463-1.566-2.184-2.336a4.378,4.378,0,0,0,.063-1.088c.8.569,1.61,1.128,2.435,1.671a5.184,5.184,0,0,0,1.6.717A4.975,4.975,0,0,0,286.526,88.42Zm22.765,4.908c.537.206,1.073.413,1.615.6q1.252,1.4,2.635,2.7Z" fill="#c2a1f2" opacity="0.5"/><path d="M223.477,92.683c-.435.276-.885.542-1.345.8a5.614,5.614,0,0,0,.356-.768c3.559-1.242,4.048-6.284,1.469-8.573a5.436,5.436,0,0,0-4.254-5.976c.276-.212.56-.413.832-.631a3.974,3.974,0,0,0,1.7-3.362c.794-.861,1.569-1.736,2.3-2.638,2.356-2.913,1.644-7.162-2.206-8.357-.5-.156-1.01-.285-1.521-.4A4.53,4.53,0,0,0,216,58c-1.078.026-2.327.123-3.682.285A5.466,5.466,0,0,0,211,58a24.3,24.3,0,0,0-3.037-.041,4.245,4.245,0,0,0-1.759-2.781c-.022-3.272-.5-6.381-1.887-8.7A4.6,4.6,0,0,0,199.98,44.1a11.652,11.652,0,0,0-3.457-3.413c-5.452-3.483-10.462,5.175-5.047,8.635-.139-.088.273.46.519,1.243a18.53,18.53,0,0,1,.6,5.178,51.06,51.06,0,0,1-.389,7.063,5.481,5.481,0,0,0-3.028,2.87c-.054.127-.11.252-.163.378a41.369,41.369,0,0,0-7.539,4.633c-2.98,2.287-3.621,8.319,1.194,9.139l.016,0q-.984,1.977-2,3.938c-.672.129-1.343.264-2.013.418a5.21,5.21,0,0,0-3.542,6.291c-.92,1.006-1.829,2.022-2.743,3.034a121.56,121.56,0,0,0-14.629,8.2,13.019,13.019,0,0,0-1.233-1.02c-2.61-1.888-6.624.063-7.345,2.988a38.134,38.134,0,0,0-1.037,7.989,4.639,4.639,0,0,0-.009,2.261c.179,8.057,2.514,16.649,7.074,23.148a39.3,39.3,0,0,0,8.257,11.466c4.19,3.941,10.281-1.265,8.187-5.577A4.7,4.7,0,0,0,172,141c-.24-8.059-3.077-15.2-6.574-22.129a19.325,19.325,0,0,0,6.135-2.295c6.973,12.259,18.808,23.132,31.11,27.246a4.593,4.593,0,0,0,2.96.071q.92.819,1.834,1.644c3.846,3.473,9.177-.4,8.6-4.336a3.925,3.925,0,0,0,.761-4.529c-4.381-10.8-14.445-16.19-23.235-22.945a52.3,52.3,0,0,0-8.063-7.043,33.55,33.55,0,0,0-3.65-1.475c-.4-.4-.8-.793-1.2-1.187l1.961-2.745c1.508,2.52,5.271,3.718,7.685,1.489,11.062,7.525,27.223,5.528,38.2-1.449C233.948,97.87,228.937,89.213,223.477,92.683Z" fill="#c2a1f2" opacity="0.5"/><path d="M180.671,36.179c-.854.241-1.691.517-2.52.809a5.566,5.566,0,0,0-1.48.191,53.414,53.414,0,0,0-8.5,3.173,4.545,4.545,0,0,0-6.711.113q-1.312,1.314-2.59,2.646a8.519,8.519,0,0,0-4.422-1.583,6.2,6.2,0,0,0-3.016.551A6.791,6.791,0,0,0,145,38a5,5,0,0,0-4.317,2.477,30.449,30.449,0,0,0-3.433,9.7A37.889,37.889,0,0,0,119,45a5.036,5.036,0,0,0-4.821,6.329,22.272,22.272,0,0,0,1.615,3.924q-.845-.156-1.681-.346c-.924-.256-1.849-.506-2.783-.729a4.76,4.76,0,0,0-4.645,1.2,11.54,11.54,0,0,0-3.289-.048c-4.724.642-4.328,6.577-1.931,9.207a4.3,4.3,0,0,0,5.3,1.112q.927.28,1.848.578c2.8.9,5.581,1.862,8.38,2.764,4.642,1.5,10.053,3.483,15.009,3.011a5.411,5.411,0,0,0,1.683-.431c.33.083.657.173.988.252a4.879,4.879,0,0,0,6.088-3.85,64.926,64.926,0,0,0,6.78-1.592,4.85,4.85,0,0,0,7,.156c.551-.528,1.137-1.053,1.711-1.579a5.758,5.758,0,0,0,2.276-.639c.242-.122.48-.25.722-.374,7.184-2.1,13.413-6.728,18.29-12.408a5.552,5.552,0,0,0,1.077-1.865c2-1.418,3.967-2.893,5.911-4.353C188.815,42.1,186.509,34.529,180.671,36.179Z" fill="#c2a1f2" opacity="0.5"/><path d="M169.329,235.179c-36.964-15.022-105.685,6.487-115.508-47.508a4.326,4.326,0,0,0-1.623-2.806c-.029-6.5-.474-12.98-2.377-19.194a5.428,5.428,0,0,0-.54-1.213c-.086-.821-.178-1.641-.281-2.458-.794-6.31-10.8-6.387-10,0,1.018,8.086,1.484,16.731,2.52,25.249a5.087,5.087,0,0,0-.341,3.081c.354,1.9.633,3.8.862,5.71C42.02,197.03,42,198.019,42,199a5,5,0,0,0,.492,2.254A4.364,4.364,0,0,0,42,204c.9,7.718-.518,15.524,1.353,23.156a16.482,16.482,0,0,0,.857,2.542c.25,2.217.558,4.429.969,6.631a4.343,4.343,0,0,0,1.639,2.8,11.851,11.851,0,0,0,7.767,5.045c5.717,1.253,11.769,1.09,17.7.684a76.744,76.744,0,0,0,11.741-.838c2.409-.141,4.822-.249,7.236-.343A110.422,110.422,0,0,0,106,244a5.108,5.108,0,0,0,2.315-.647C126.23,243.34,144.2,244.23,162,245a4.6,4.6,0,0,0,2.986-.828c.564.209,1.126.423,1.685.649C172.648,247.251,175.222,237.573,169.329,235.179Z" fill="#c2a1f2" opacity="0.5"/><path d="M246.523,199.683a4.687,4.687,0,0,0-2.918-.654,40.407,40.407,0,0,0-14.276-6.85A5.062,5.062,0,0,0,223,197a7.018,7.018,0,0,0,.388,2.291,4.5,4.5,0,0,0,1.077,5.244c4.011,3.937,8.749,7.229,14.535,7.465a4.322,4.322,0,0,0,4.344-2.522,7.226,7.226,0,0,0,4.974-2.954C249.929,204.318,248.694,200.954,246.523,199.683Z" fill="#c2a1f2" opacity="0.5"/><path d="M125.7,123.693c-1.246-5.3-5.712-9.161-10.882-11.212a9.615,9.615,0,0,0-4.487-2.3,6.894,6.894,0,0,0-2.939.186A15.366,15.366,0,0,0,105,110a5.071,5.071,0,0,0-1.74.176,5.372,5.372,0,0,0-4.589-1c-2.8.77-3.983,3.472-3.492,6.15.916,5,1.813,10.807,4.5,15.194,3.365,5.486,12.016.466,8.635-5.047a6.293,6.293,0,0,1-.911-2.087,21.237,21.237,0,0,0,9.358,7.285c1.606,3.393,5.33,2.81,7.535.657A5.049,5.049,0,0,0,125.7,123.693Z" fill="#c2a1f2" opacity="0.5"/><path d="M62.671,103.179c-.694.245-1.354.524-2,.817a4.355,4.355,0,0,0-4.207,1.468A18.8,18.8,0,0,0,53.911,109,17.234,17.234,0,0,0,50,120a5.625,5.625,0,0,0,.048.825c-.021,3.643,4,6.686,7.475,4.492a25.2,25.2,0,0,0,11.3-15.988C69.578,105.878,66.484,101.83,62.671,103.179Z" fill="#c2a1f2" opacity="0.5"/><path d="M68.523,45.683a48.968,48.968,0,0,0-10.194-3.5,5.235,5.235,0,0,0-5.742,2.5,5.388,5.388,0,0,0-.6.442c-4.469.979-5.713,8.349-.314,9.7,1.344.337,2.69.675,4.025,1.047a10.358,10.358,0,0,0,1.9.845c.6.559,1.226,1.1,1.885,1.6a4.23,4.23,0,0,0,4.1.406,5.133,5.133,0,0,0,6.266-5.951C71.5,50.5,71.65,47.214,68.523,45.683Z" fill="#c2a1f2" opacity="0.5"/><path d="M225.535,116.464a34.707,34.707,0,0,0-6.455-4.794c-.826-.693-1.67-1.364-2.557-1.987a4.08,4.08,0,0,0-2.443-.718c-.186-.093-.37-.188-.557-.282a5.086,5.086,0,0,0-6.841,1.794c-1.31,2.235-.642,5.622,1.794,6.841,1.739.87,3.508,1.731,5.2,2.712,2.175,1.82,4.15,3.7,7,4.792C225.473,126.667,228.961,119.768,225.535,116.464Z" fill="#c2a1f2" opacity="0.5"/><path d="M293.317,148.477c-1.609-3.386-6.953-3.137-8.635,0-.26.484-.485.975-.694,1.468-1.9,1.4-2.411,3.738-2.236,6.02a38.256,38.256,0,0,0,2.931,12.56c1.045,2.307,3.383,2.81,5.464,2.2,2.822.536,5.882-1.1,5.854-4.724-.009-1.146-.033-2.39-.118-3.653C296.7,157.741,295.434,152.93,293.317,148.477Z" fill="#c2a1f2" opacity="0.5"/><path d="M328.182,161.247c14.006,14.269,27.77,29.143,39.488,45.376.729,1.01,3.5-.08,2.66-1.246C358.612,189.144,344.849,174.27,330.842,160c-.875-.892-3.624.265-2.66,1.247Z" fill="#c2a1f2"/><path d="M278.48,110.53c12.9,12.66,23.283,27.659,36.164,40.339.627.617,3.331-.449,2.711-1.06-12.881-12.68-23.262-27.679-36.164-40.339-.628-.616-3.332.451-2.711,1.06Z" fill="#c2a1f2"/><path d="M192.64,36.511c14.416,10.5,28.135,21.886,41.432,33.767.619.554,3.257-.544,2.721-1.022-13.3-11.881-27.016-23.265-41.432-33.767-.694-.5-3.241.644-2.721,1.022Z" fill="#c2a1f2"/><path d="M354.182,141.037q6.488,7.584,12.48,15.56c.674.9,3.463-.141,2.676-1.193q-5.976-7.992-12.48-15.56c-.738-.862-3.512.216-2.676,1.193Z" fill="#c2a1f2"/><path d="M244.638,35.505c13.546,12.814,27.8,24.922,42,37,.623.529,3.224-.585,2.725-1.01-14.2-12.077-28.454-24.185-42-37-.582-.549-3.229.533-2.725,1.01Z" fill="#c2a1f2"/><path d="M289.335,73.395c-4.994-9.179-16.625-12.931-26.3-14.491-7.785-1.255-19.341-2.94-25.831,2.924-6.167,5.571-5.839,14.821-5.355,22.436.649,10.223,3.146,20.629,1.7,30.88-.146,1.03,1.54.854,2.068.59,14.8-7.375,30.592-14.153,43.542-24.623,4.042-3.268,9.918-9.043,9.2-14.838s-6.788-8.322-11.645-10.038c-6.888-2.434-14.044-3.786-20.932-6.312-4.384-1.607-10.2-4.082-14.879-2.072-5.809,2.5-6.869,9.587-7.606,15.149-1.637,12.347,1.889,24.754.246,37.143-.141,1.064,1.531.805,2.068.59,17.244-6.873,38.521-13.348,50.58-28.4,1.121-1.4-1.656-1.58-2.379-.679-11.755,14.668-32.579,20.893-49.42,27.6l2.068.59c1.162-8.769.054-17.471-.454-26.245-.382-6.589-1.08-19.4,5.224-23.873,3.683-2.612,11.381,1.427,14.957,2.741,5.835,2.146,11.829,3.355,17.754,5.185,4.75,1.467,11.48,4.07,11.514,9.983.039,6.838-8.079,12.533-13.033,16-11.812,8.264-25.169,14.212-38.029,20.619l2.068.59c1.1-7.789-.131-15.767-.982-23.52-.868-7.914-2.254-17,.954-24.573,3.865-9.133,16.361-7.3,24.26-6.175,9.573,1.363,21.058,4.98,25.975,14.016.539,1,3.336.017,2.67-1.206Z" fill="#c2a1f2"/><path d="M286.553,72.187c-2.1,7.66-3.316,15.5-6,23-.128.357.31.519.557.585,8.336,2.243,17.9-.566,22.946-7.771,4.983-7.123-.26-17.636-7.592-20.871-11.411-5.034-11.2,20.666-11.911,26.056-.046.345.236.544.557.585,8.544,1.109,15.878-3.088,18.131-11.606,1.454-5.5-.2-13.658-7.429-11.871-1.75.433-1.36,1.838.377,1.408,3.366-.833,4.408,3.815,4.608,6.2a15.768,15.768,0,0,1-3.664,11.023,10.18,10.18,0,0,1-7.51,3.492c-2.815.139-2.013-.9-1.816-3.252.322-3.853.661-7.7,1.326-11.51.365-2.092,1.676-10.224,5.02-9.144,5.411,1.747,9.346,9.478,8.938,14.739-.65,8.355-10.6,12.433-17.809,11.53-2.164-.271-1.168-1.843-.662-3.395.727-2.224,1.271-4.509,1.819-6.781,1.028-4.261,1.852-8.563,3.009-12.793.279-1.018-2.632-.586-2.9.377Z" fill="#c2a1f2"/><path d="M280.79,87.581c-15.839,14.586-36.908,25.546-47.174,45.259a.758.758,0,0,0,.266.991c6.915,4.67,13.295,9.878,17.995,16.849,4.781,7.091,7.229,15.607,9.674,23.708.335,1.11,2.533.747,2.833-.228,8.614-28.046,17.582-56.907,20.083-86.274.127-1.488-2.823-1.069-2.934.228-2.484,29.173-11.359,57.864-19.917,85.726l2.833-.228c-2.423-8.028-4.953-16.079-9.332-23.288-4.345-7.152-10.916-12.568-17.706-17.282-3.729-2.588,18.9-22.651,20.995-24.377,8.244-6.786,16.94-13,24.8-20.247,1.325-1.219-1.494-1.69-2.42-.837Z" fill="#c2a1f2"/><path d="M302.384,72.16c.758-2.374,6.653-3.827,8.646-4.56,5.177-1.9,10.495-3.439,15.807-4.917,9.458-2.632,19.257-5.459,29.031-6.633q-.666-.469-1.335-.937c-.149,20.18-4.713,40.048-2.982,60.275l1.953-1.432c-16.822-1.486-33.964-13.518-45.177-25.591l-2.445,1.466c15.227,8.4,29.527,23.53,47.614,25.213.641.06,1.978-.295,1.971-1.157-.1-13.694-1.219-26.938.249-40.611.455-4.237,4.309-13.6-.207-16.9-6.382-4.654-16.922-2.332-23.794-.331-10.9,3.174-20.83,8.964-31.354,13.109-1.852.729-.209,2.273,1.277,1.688,8.49-3.344,16.583-7.6,25.082-10.929a56.258,56.258,0,0,1,15.112-3.844c3.436-.328,9.623-.386,12.037,2.652,1.437,1.808.511,5.127.162,7.146-.7,4.061-1.2,8.109-1.771,12.187-1.661,11.924.184,24.091.271,36.057l1.971-1.157c-17.512-1.629-31.608-16.64-46.386-24.787-.789-.435-3.495.336-2.445,1.466,11.662,12.557,29.3,24.861,46.823,26.409.872.077,2.04-.412,1.953-1.432-1.714-20.029,2.87-39.739,3.018-59.725.006-.7-.7-1.013-1.335-.937-10.779,1.294-21.546,4.434-31.964,7.37a169.677,169.677,0,0,0-17.18,5.659c-2.166.869-6.551,2.289-7.372,4.861-.507,1.593,2.383,1.531,2.77.32Z" fill="#c2a1f2"/><path d="M238.829,59.634c15.851,5.381,31.344,13.654,48.259,15.059.758.063,3.374-1.256,1.824-1.385-16.72-1.389-32.067-9.62-47.741-14.941-.763-.26-3.39.911-2.342,1.267Z" fill="#c2a1f2"/><path d="M299.551,73.388c2.978,7.2,21.194-.708,25.512-2.293,10.644-3.91,23.223-8.59,32.085-15.911,1.252-1.034-1.646-.9-2.3-.367-7.279,6.014-17.277,9.748-25.9,13.289-3.756,1.542-23.881,10.851-26.5,4.507-.386-.932-3.233-.034-2.9.775Z" fill="#c2a1f2"/><path d="M297.551,93.388c5.24,27.451,16.659,53.128,24,80,.244.894,2.774.186,2.893-.59a42.584,42.584,0,0,1,14.035-25.351c5.472-4.9,16.079-11.1,22.171-3.9.515.608,3.207-.206,2.8-.935-9.273-16.591-27.887-25.2-41.1-38.159-3.861-3.786-6.416-8.838-10.13-12.794-1.558-1.66-5.443-2.895-5.664.542-.069,1.082,2.83.474,2.887-.4.066-1.029-2.229-.953-.868.071a14.453,14.453,0,0,1,2.006,2.05c1.711,1.934,3.223,4.054,4.761,6.124a65.95,65.95,0,0,0,10.914,11.468c11.81,9.93,26.55,18.02,34.295,31.876l2.8-.935c-5.551-6.557-15.321-3.15-21.523.491A43.344,43.344,0,0,0,321.558,173.2l2.893-.59c-7.342-26.872-18.761-52.549-24-80-.173-.892-3.085-.188-2.9.779Z" fill="#c2a1f2"/><path d="M289.165,78.344c-9.063-5.4-19.329-6.679-28.31-.519-.372.255-.4.609-.021.831,7.356,4.253,16.677.767,24,5,.733.424,3.426-.678,2.33-1.312-5.112-2.956-11.481-2.375-17.159-2.932a22.211,22.211,0,0,1-4.761-1.021c-3.41-1.113,6.288-3.313,7.671-3.345,4.942-.112,9.775,2.142,13.919,4.609.728.434,3.423-.661,2.331-1.311Z" fill="#c2a1f2"/><path d="M305.873,82.333c6.591-3.922,16.824-2.32,22.773,2.205.271-.341.54-.683.811-1.024-8.763,3.486-18.13.914-27.23,1.793-1.324.128-2.478,1.583-.453,1.387,9.781-.946,19.326,1.55,28.77-2.207.219-.087,1.31-.644.811-1.024-7.245-5.511-19.321-6.5-27.227-1.795-1.677,1,.921,1.155,1.745.665Z" fill="#c2a1f2"/><path d="M290.8,70.542c10.452,1.537,10.007,15.159,4.769,21.723-.145.181,2.325.132,2.854-.53,5.546-6.95,5.508-20.7-5.231-22.277-.666-.1-3.127.977-2.392,1.084Z" fill="#c2a1f2"/><path d="M279.562,92.22c-5.487,10.5-13.262,20.789-20.891,29.822-.713.843,2.145.523,2.658-.085,7.726-9.147,15.552-19.537,21.109-30.178.327-.624-2.453-.37-2.876.441Z" fill="#c2a1f2"/><path d="M300.551,91.388c5.227,13.207,12.977,25.171,19,38,.55,1.169,3.4.3,2.9-.776-6.023-12.828-13.775-24.8-19-38-.472-1.195-3.345-.355-2.9.776Z" fill="#c2a1f2"/><path d="M169.449,242.611c-1.99-12.893-13.855-21.271-24.364-27.326-12.8-7.379-26.951-12.271-40.917-16.93-13.708-4.573-27.854-9.147-39.94-17.268-12.96-8.708-20.011-21.85-19.78-37.476.011-.721-2.882-.238-2.9.776-.217,14.6,5.774,26.82,17.224,35.785,11,8.612,24.776,13.2,37.821,17.674,13.723,4.7,27.489,9.229,40.508,15.711,12.1,6.024,27.192,15.223,29.447,29.83.128.83,3.044.169,2.9-.776Z" fill="#c2a1f2"/><path d="M44.458,122.854c4.279-38.58,54.459-29.525,80.463-22.58,16.957,4.529,35.046,5.553,49.171-6.482,15.382-13.106,22.706-40.239,15.356-59.18-.453-1.167-3.326-.326-2.9.776,7.9,20.356-1.15,49.317-19.444,61.156-16.666,10.786-36.863,2.213-54.37-1.289-25.907-5.182-67.324-7.018-71.195,27.89-.148,1.339,2.791.854,2.917-.291Z" fill="#c2a1f2"/><path d="M183.548,36.168c.177,13.477-9.688,22.4-21.213,27.587-15.759,7.087-33.033,7.514-49.482,2.887-12.912-3.632-25.479-7.77-39.056-5.9C62.306,62.334,50.772,67.061,42.406,75.21c-1.235,1.2,1.617,1.256,2.344.549C56.614,64.2,74.479,60.171,90.492,62.866c15.059,2.535,28.606,8.967,44.164,8.686,20.285-.366,52.124-10.8,51.8-35.721-.017-1.28-2.919-.673-2.905.337Z" fill="#c2a1f2"/><path d="M143.509,67.709c-8.385,3.172-16.529-6.6-20.646-12.467-4.2-5.978-7.682-13.292-8.414-20.63-.049-.491-2.97.05-2.9.776,1.394,13.98,15.717,39.418,32.939,32.9,1.937-.732.089-.987-.982-.582Z" fill="#c2a1f2"/><path d="M147.449,68.612c-6.1-10.194-8.146-22.42-15.1-32.158-.517-.723-3.321.225-2.7,1.093,6.872,9.627,8.873,21.759,14.9,31.842.539.9,3.294-.115,2.9-.777Z" fill="#c2a1f2"/><path d="M158.465,65.879c.134-9.922,2.233-20.633-1.016-30.267-.432-1.282-3.32-.476-2.9.776,3.2,9.477,1.115,19.965.984,29.733-.021,1.479,2.912,1.01,2.929-.242Z" fill="#c2a1f2"/><path d="M171.376,60.13c4.5-8.352,5.933-18.14,5.073-27.518-.113-1.231-3.02-.546-2.9.776.824,9-.615,18.478-4.927,26.482-.749,1.391,2.189,1.3,2.752.26Z" fill="#c2a1f2"/><path d="M191.918,66.5c6.088-3.629,15.294-7.616,18.442-14.429.627-1.357-2.282-1.1-2.721-.146-2.956,6.4-11.8,10.137-17.558,13.571-1.685,1,.82,1.61,1.837,1Z" fill="#c2a1f2"/><path d="M182.836,80.662c16.343,7.479,36.576-4.97,47.5-16.67.788-.844-2.1-.6-2.678.018-9.853,10.551-27.783,22.063-42.5,15.33-.784-.36-3.451.807-2.328,1.322Z" fill="#c2a1f2"/><path d="M209.674,50.053a20.917,20.917,0,0,0-3.11,5.172c-.271.539,1.018.444,1.2.417.558-.088,1.4-.311,1.678-.868a19.534,19.534,0,0,1,2.89-4.828c.472-.5-.4-.638-.725-.625a2.917,2.917,0,0,0-1.928.732Z" fill="#c2a1f2"/><path d="M173.839,97.94c3.357-.535,7.146,5.03,10.3,5.948a60.938,60.938,0,0,0,16.945,2.388c10.886.053,21.665-2.791,32.147-5.408,1.779-.444,1.3-2.177-.465-1.735-11.884,2.967-23.818,5.877-36.16,5.057-6.115-.407-11.453-1.9-16.24-5.7-1.909-1.519-3.688-2.827-6.206-2.425-1.49.236-2.3,2.195-.322,1.879Z" fill="#c2a1f2"/><path d="M161.551,101.388c7.83,16.409,19.829,32.009,33.007,44.439,11.368,10.722,28.573,21.056,42.755,9.07.159-.135.167-.246.051-.394-17.673-22.453-44.327-35.547-62-58-.438-.557-3.184.416-2.729.993,12.137,15.419,28.521,26.523,43.36,39.1q5.409,4.586,10.432,9.6c1.835,1.831,3.573,3.754,5.276,5.708,1.976,2.266,3.188,3.32.32,5.182-5.889,3.823-13.165,1.93-19.023-.864-11.834-5.645-21.321-16.322-29.411-26.344-7.254-8.987-14.152-18.808-19.141-29.263-.346-.728-3.136.273-2.9.775Z" fill="#c2a1f2"/><path d="M148.561,104.217c-6.855,12.82-1.255,27.3,6.709,38.19,8.075,11.038,20.863,20.856,34.818,22.287.344.035,2.758-.328,2.361-1.082-10.922-20.739-24.29-41.01-30-64-.208-.839-3.111-.083-2.9.776,5.71,22.99,19.078,43.261,30,64l2.361-1.082c-23.985-2.458-53.569-35.033-40.473-59.523.337-.632-2.443-.382-2.879.434Z" fill="#c2a1f2"/><path d="M171.816,95.584c1.029.188,2,2.25,2.5,3.016a63.877,63.877,0,0,1,3.239,5.788c.387.765,3.165-.248,2.9-.776a68.631,68.631,0,0,0-3.51-6.208c-.6-.93-1.543-2.768-2.755-2.989a3.365,3.365,0,0,0-2.03.354c-.216.107-1.02.691-.338.815Z" fill="#c2a1f2"/><path d="M130.173,69.1c-15.309.814-42.164-7.138-41.717-26.26l-2.324,1.012C105.824,47.85,122.7,60.818,140.861,68.75c.959.418,3.581-.932,2.28-1.5-18.348-8.012-35.374-21.07-55.271-25.106-.618-.125-2.3.094-2.324,1.012-.479,20.531,27.881,28.612,44.283,27.74,1.511-.081,2.338-1.9.344-1.792Z" fill="#c2a1f2"/><path d="M141.2,64.473c-8.111-.622-15.273-12.363-14.751-19.861l-2.819.864c7.1,6.394,11.4,15.143,18,22l2.74-.951c-6.4-5.64-11.514-12.363-16.921-18.913-.434-.526-3.1.378-2.9.776,4.2,8.152,9.684,15.576,17.079,21.087.61.455,3.056-.716,2.74-.951-7.337-5.469-12.761-12.831-16.921-20.913l-2.9.776c5.462,6.617,10.614,13.391,17.079,19.087.509.449,3.1-.574,2.74-.951-6.6-6.86-10.9-15.6-18-22-.433-.39-2.775.238-2.819.864-.533,7.652,6.948,19.5,15.249,20.139.652.052,3.05-1,2.4-1.053Z" fill="#c2a1f2"/><path d="M151.449,63.612c-1.518-3.4-2.225-7.314-3.007-10.933-1-4.637-2.268-10.127-.979-14.81l-2.911.519c1.978,8.563,2.218,17.4,4,26,.242,1.167,2.921.563,2.911-.519-.076-7.928-1.036-15.859-4.014-23.257-.446-1.109-2.793-.616-2.911.519-.947,9.1.423,20.056,6.13,27.487.618.8,2.7.3,2.794-.749.86-9.388-.633-19.139-5.13-27.487-.538-1-2.6-.134-2.794.749a36.624,36.624,0,0,0,5.13,27.487c.576.859,2.7.257,2.794-.749.873-9.343-.1-20.346-5.13-28.487-.634-1.027-3.418.015-2.664,1.236,4.82,7.809,5.7,18.594,4.87,27.513l2.794-.749a35.351,35.351,0,0,1-4.87-26.513l-2.794.749c4.315,8.01,5.693,17.526,4.87,26.513l2.794-.749c-5.469-7.12-6.774-17.825-5.87-26.513l-2.911.519c2.912,7.235,3.912,14.981,3.986,22.743l2.912-.519c-1.782-8.6-2.022-17.437-4-26-.3-1.3-2.653-.417-2.911.519-1.241,4.506-.085,9.718.773,14.187.765,3.981,1.577,8.343,3.24,12.071.538,1.206,3.4.351,2.9-.777Z" fill="#c2a1f2"/><path d="M155.139,103.976c-10.256,1.106,7.361,34.9,11.739,38.841.771.693,2.755-.1,2.571-1.205-2.264-13.6-7.722-26.346-13-39-.464-1.112-2.837-.694-2.914.509-.8,12.589,3.336,26.282,12.136,35.507.715.75,3.148.3,2.778-1.016-3.066-10.874-7.671-21.213-11-32-.357-1.158-2.944-.648-2.914.509.186,7.025,2.743,14.234,4.947,20.832.692,2.072,2.871,11.658,6.379,11.071,1.548-.259,2.244-2.377.277-2.048.5-.083-1.359-3.4-1.732-4.3-1.171-2.813-2.122-5.722-3.043-8.625-1.725-5.436-3.746-11.422-3.9-17.176l-2.914.509c3.328,10.787,7.934,21.126,11,32l2.778-1.016c-8.544-8.958-12.643-22.252-11.864-34.493l-2.914.509c5.277,12.654,10.735,25.4,13,39l2.571-1.205c-4.855-4.365-7.524-12.078-9.9-17.948-.6-1.475-5.734-17.063-4.363-17.211,1.587-.171,2.258-2.261.278-2.048Z" fill="#c2a1f2"/><path d="M176.643,88.523c10.878,9.047,30.448,8,40.684-1.576a.316.316,0,0,0-.15-.564c-12.151-2.985-24.908-.426-36.935,1.975-.265.053-2.5.857-1.417,1.259,11.573,4.292,24.612,3,36.325-.059.229-.06,2.023-.918,1.026-1.176-11.059-2.851-22.25-3.031-33.574-2.061-.2.017-2.719.707-1.959,1.2,8.478,5.516,19.372,3.938,28.507,1.036.786-.25,2.065-1.225.452-1.237-8.887-.065-17.589-.661-26.131,2.243-.892.3-1.3,1.114-.072,1.114,9.835,0,19.69-.033,29.36-2.036.422-.087,2.684-1.143,1.16-1.312-9.282-1.026-18.447-1.809-27.678.027-.5.1-1.69.343-1.69,1.03v1a.378.378,0,0,0,.273.229c6.629,2,13.7,2.057,20.574,2.061.578,0,3.066-1.144,1.521-1.348-8.751-1.153-17.31-2.76-26.068-.889-.144.03-1.835.751-1.208,1.082,6.024,3.173,13.706,3.583,20.378,3.358,3.039-.1,11.705-.6,11.429-5.27-.041-.692-2.953-.152-2.9.776.391,6.589-22.779,1.887-26.193.089l-1.208,1.082c7.956-1.7,16.018.068,23.932,1.111L206.6,90.32c-2.508,0-19.152.4-19.152-2.71l-1.69,1.03c8.783-1.748,17.5-.947,26.322.027l1.16-1.312c-9.436,1.955-19.046,1.961-28.64,1.964-.023.371-.048.743-.072,1.114,7.718-2.623,15.869-1.816,23.869-1.757q.225-.618.452-1.237c-8.257,2.623-17.834,4.02-25.493-.964l-1.959,1.2c10.933-.937,21.745-.814,32.426,1.939q.513-.588,1.026-1.176c-10.9,2.847-22.917,3.932-33.675-.059l-1.417,1.259c5.026-1,10.055-1.942,15.14-2.6a83.057,83.057,0,0,1,9.6-.632c1-.013,11.221.122,7.662,2.7-8.994,6.521-24.414,5.342-32.8-1.635-.677-.558-3.308.557-2.717,1.049Z" fill="#c2a1f2"/><path d="M184.15,71.929c10.393,4.524,23.59-2.428,31.05-9.549.8-.768-.284-1.492-1.054-1.375A53.613,53.613,0,0,0,189.054,72.4c-1.222.979.079,1.8,1.193,1.528,8.831-2.156,16.562-6.646,24.376-11.136,1.475-.847.6-2.045-.872-1.714-10.089,2.277-20.268,5.28-27.952,12.545-1.043.987.72,1.48,1.448,1.305a79.453,79.453,0,0,0,26.7-12.322c1.024-.713.276-1.746-.8-1.6-8.808,1.2-18.491,3.933-23.522,11.864-.832,1.311,2.121,1.259,2.752.264,4.341-6.843,12.914-9.1,20.478-10.136q-.4-.8-.8-1.6a75.228,75.228,0,0,1-25.3,11.678l1.448,1.305c7.116-6.729,16.732-9.353,26.048-11.455l-.872-1.714c-7.581,4.355-15.048,8.77-23.624,10.864l1.193,1.528C197.5,68.345,205.485,64.266,213.852,63q-.526-.687-1.054-1.375c-6.5,6.209-17.928,12.379-26.95,8.451-1.131-.495-3.367,1.129-1.7,1.856Z" fill="#c2a1f2"/><path d="M171.366,97.173c-4.408,2.423-.341,9.075,1.343,12.058,3.057,5.412,8.227,12.574,14.783,13.8.9.167,2.367-.625,1.836-1.66-4.37-8.521-9.936-16.872-17.208-23.191-.754-.655-2.824.077-2.569,1.21,2.409,10.722,9.411,19.282,18.328,25.434.876.6,3.162-.193,2.449-1.453-4.878-8.626-10.711-16.631-16-25-.659-1.042-2.914-.167-2.777,1.019,1.464,12.774,11.18,24.541,22.328,30.434,1.085.574,3.646-.9,2.242-1.644-10.875-5.748-20.245-17.109-21.672-29.566l-2.777,1.019c5.289,8.369,11.123,16.374,16,25l2.449-1.453c-8.641-5.96-15.339-14.182-17.672-24.566l-2.569,1.21c7.1,6.173,12.527,14.494,16.792,22.809l1.836-1.66c-4.938-.922-8.811-6.5-11.469-10.34-.81-1.168-6.811-10.481-4.4-11.8,1.731-.952.161-2.439-1.268-1.654Z" fill="#c2a1f2"/><path d="M191.159,53.593a17.236,17.236,0,0,0,7.228-4.11c1.649-1.527,4.063-3.515,4.063-5.872,0-.656-1.754-.158-1.987-.081-1.868.617-4.023,1.032-5.658,2.189-1.816,1.286-2.933,3.508-4.135,5.315-.739,1.112,2.1.363,2.468.109a57.892,57.892,0,0,0,8.194-7.181l-2.662.071-6,6c-.5.5.425.681.737.672a2.869,2.869,0,0,0,1.925-.744,25.351,25.351,0,0,1,5.537-4.648c1.708-.93-.924-1.075-1.736-.633a29.266,29.266,0,0,0-6.463,5.352l2.662-.071,6-6c.5-.5-.425-.681-.737-.672a2.869,2.869,0,0,0-1.925.744,55.006,55.006,0,0,1-7.806,6.819l2.468.109c1.021-1.534,1.972-3.435,3.371-4.673,1.2-1.063,3.364-1.337,4.836-1.823l-1.987-.081c0,1.643-1.665,2.933-2.778,4.13a12.988,12.988,0,0,1-5.932,3.889c-1.709.475-1.4,1.662.317,1.19Z" fill="#c2a1f2"/><path d="M159.551,68.388c3.292,9.586,8.964,19.944,19.58,22.468,1.038.247,3.434-1.309,1.738-1.712-10.041-2.387-15.327-12.525-18.42-21.532-.389-1.133-3.271-.31-2.9.776Z" fill="#c2a1f2"/><path d="M132.551,73.388c-.11,10.985,1.321,23.488,10.1,31.147.688.6,3.358-.5,2.708-1.07-8.678-7.576-10.014-20-9.9-30.853.007-.713-2.888-.229-2.9.776Z" fill="#c2a1f2"/><path d="M99.811,66.661c-3.3,3.151-2.4,8.741-1.652,12.746,1.139,6.106,3.865,12.908,8.506,17.2.861.8,3.6-.353,2.671-1.21-3.807-3.52-5.895-8.422-7.41-13.288C100.7,78.17,98.7,70.67,102.189,67.34c1.276-1.22-1.565-1.457-2.378-.679Z" fill="#c2a1f2"/><path d="M110.166,95.254c4.548-4.048,11-5.994,16.413-8.636.661-.323,1.359-1.09.3-1.421-6.566-2.061-13.449-2.994-19.733-5.91l-1.342,1.538c6.728-1.044,13.3-2.806,20-4,.565-.1,2.38-.807,1.342-1.538a38.912,38.912,0,0,0-14.267-6.09c-.949-.211-3.425,1.238-1.766,1.606a37.427,37.427,0,0,1,13.733,5.91l1.342-1.538c-6.7,1.194-13.274,2.957-20,4-.418.065-2.534.984-1.342,1.538,6.458,3,13.518,3.972,20.267,6.09q.153-.711.3-1.421c-5.834,2.851-12.666,4.983-17.587,9.364-1.267,1.127,1.609,1.152,2.332.508Z" fill="#c2a1f2"/><path d="M81.344,63.092c-4.683,2.673-8.132,6.868-12.317,10.2a.97.97,0,0,0-.136,1.574c4.348,4.081,9.652,6.919,14,11l-.114-1.331c-2.034,2.456-2.972,5.551-5,8-1.186,1.432,1.561,2,2.446.934,2.034-2.456,2.972-5.551,5-8a.9.9,0,0,0-.114-1.331c-4.348-4.081-9.652-6.919-14-11q-.067.786-.136,1.574c3.966-3.156,7.247-7.27,11.683-9.8,1.705-.973.159-2.655-1.312-1.816Z" fill="#c2a1f2"/><path d="M70.628,63.884c-.6,1.7-2.937,3.307-4.2,4.509-2.2,2.1-4.459,4.122-6.625,6.25-.226.222-.422.7-.14.969,5.219,4.956,15.059,8.81,9.961,17.272-.792,1.316,2.153,1.213,2.744.232,4.125-6.848-.052-10.879-5.546-15.006-1.312-.985-4.876-2.534-3.3-4.046,1.446-1.385,2.924-2.736,4.386-4.1,1.668-1.561,4.659-3.591,5.458-5.844.534-1.5-2.358-1.319-2.743-.232Z" fill="#c2a1f2"/><path d="M41.652,78.559c5.621,7.09,8.743,15.919,9.9,24.829.121.934,3.035.278,2.9-.776-1.174-9.05-4.4-17.976-10.1-25.171-.6-.753-3.386.247-2.695,1.118Z" fill="#c2a1f2"/><path d="M41.649,91.549c1.634,1.947,2.516,4.906,3.429,7.23a29.818,29.818,0,0,1,2.473,9.609c.028.824,2.934.271,2.9-.776-.124-3.579-1.483-7.091-2.778-10.387C46.8,95.017,45.9,92.3,44.35,90.451c-.6-.71-3.37.3-2.7,1.1Z" fill="#c2a1f2"/><path d="M44.433,222.76c2.443-14.26,11.223-29.046,23.687-36.677,1.256-.769-1.675-.511-2.24-.165C53.172,193.7,44.059,208.7,41.567,223.241c-.135.786,2.737.273,2.866-.481Z" fill="#c2a1f2"/><path d="M46.449,235.611c.775-8.712,5.161-16.857,9.8-24.093,5.195-8.094,12.094-16.5,20.592-21.289,1.681-.947-.976-.861-1.69-.459-7.917,4.462-14.064,11.481-19.368,18.737-5.887,8.055-11.336,17.77-12.236,27.881-.041.467,2.817.136,2.9-.777Z" fill="#c2a1f2"/><path d="M66.336,240.4a86.432,86.432,0,0,1-8.887-18.785l-1.98,1.328c12.469.093,24.9,1.882,37.369.994.537-.038,2.192-.746,1.5-1.537-6.433-7.329-14.033-13.474-19-22q-.554.732-1.105,1.465c9.922-2,20.256-.907,30.237.078,1.27.126,3.025-1.686,1.063-1.879-10.534-1.04-21.3-2.031-31.763.078-.635.128-1.521.749-1.105,1.465,4.967,8.526,12.567,14.671,19,22l1.5-1.537c-12.221.869-24.411-.916-36.631-1.006-.6-.005-2.274.37-1.98,1.328,2.1,6.842,5.462,13.092,9.113,19.215.578.971,3.376-.024,2.671-1.207Z" fill="#c2a1f2"/><path d="M88.449,243.611C88,236.2,95.132,227.986,99.332,222.56c5.016-6.479,11.478-14.749,19.205-18.1,1.872-.812.124-1.446-1.074-.928-8.132,3.524-14.619,11.441-20.042,18.154-4.608,5.7-12.354,14.772-11.87,22.7.045.739,2.957.186,2.9-.776Z" fill="#c2a1f2"/><path d="M99.449,240.611c-1.694-6.363,4.589-13.235,8.394-17.606a69.4,69.4,0,0,1,17.045-14.619c1.694-.976-.887-1.282-1.774-.771-6.819,3.926-12.726,9.563-17.955,15.381-4,4.449-10.358,11.817-8.606,18.394.251.948,3.149.173,2.9-.779Z" fill="#c2a1f2"/><path d="M132.451,243.826c.312-3.261,1.593-5.848,1-9.215l-1.639,1.218c3.126-.232,6.145-1.763,9.309-1.022.7.165,2.438-.2,2.331-1.2-.561-5.2,1.792-7.664,6.994-7.766,1.107-.021,3.071-1.729,1.114-1.691-6.766.131-11.811,2.768-11.006,10.234l2.331-1.2c-3.714-.869-7.033.705-10.691.978-.55.041-1.772.468-1.639,1.218.577,3.264-.705,5.673-1,8.785-.117,1.21,2.8.662,2.9-.349Z" fill="#c2a1f2"/><path d="M150.194,242.358c3.721-3.714,7.742-8.123,12.422-10.6,1.755-.929.16-2.256-1.232-1.52-5.126,2.711-9.506,7.338-13.578,11.4-1.262,1.261,1.564,1.541,2.388.718Z" fill="#c2a1f2"/><path d="M159.468,241.889c.1-1.3,1.479-2.4,2.377-3.2,1.612-1.45,3.382-2.729,5.115-4.029,1.576-1.183-.777-2.172-1.92-1.314a68,68,0,0,0-5.752,4.607c-1.17,1.1-2.619,2.458-2.756,4.161-.12,1.5,2.83,1.082,2.936-.223Z" fill="#c2a1f2"/><path d="M63.173,107.373c-5.447-1.6-10.774.818-11.833,6.618-.643,3.52.228,10.136,5.12,9.587,2.871-.322,4.851-2.507,6.349-4.79a23.44,23.44,0,0,0,3.98-9.8c.493-4.5-4.728-2.4-6.876-1.043a33.632,33.632,0,0,0-9.3,9.332c-1.2,1.745-3.729,6.058.121,6.321,2.374.162,4.82-.85,6.953-1.761a15.418,15.418,0,0,0,8-7.333c1.161-2.265,2.189-5.97.207-8.085-2.166-2.311-6.732.04-8.753,1.278-1.659,1.016.941,1.092,1.73.608,1.445-.885,3.543-2.251,4.723-.3.849,1.4.463,3.345.055,4.813-1.214,4.369-4.472,7.16-8.564,8.732-.913.351-3.3,1.446-3.546-.223-.226-1.528,1.233-3.423,2.039-4.573,2.339-3.336,5.813-7.465,9.657-9.105.283-.121.024-.23.38.12.485.478.324,1.553.244,2.132a23.577,23.577,0,0,1-4.761,10.468,8.767,8.767,0,0,1-1.956,1.864c-.287.054-1.023-.511-1.359-.866-1.2-1.269-1.559-3.311-1.693-4.979a10.9,10.9,0,0,1,1.155-5.895c1.231-2.347,3.22-2.56,5.588-1.864.759.225,3.365-.954,2.344-1.253Z" fill="#c2a1f2"/><path d="M64.823,50.705c-4.455,3.949-10.173-3.4-11.374-7.093l-.855,1.062C60.178,41.23,67.962,48.4,66.546,56.16l2.327-1a27.38,27.38,0,0,1-10.364-5.484,20.909,20.909,0,0,1-3.427-4.005c-.235-.342-1.649-3.015-1.287-3.016.875,0,1.78.21,2.661.241,1.188.042,3.055-1.714,1.09-1.783-2.858-.1-4.489-.494-6.722,1.6-.15.141-.376.453-.271.684,3.218,7.084,9.27,11.267,16.577,13.456.7.209,2.171-.15,2.327-1,1.885-10.336-9.3-16.487-18.048-12.514-.35.159-1.016.568-.855,1.062C52.7,51,60.974,56.8,67.18,51.3c1.287-1.144-1.581-1.279-2.357-.591Z" fill="#c2a1f2"/><path d="M104.832,110.373c-4.635,1.328-1.026,5.438,1.134,7.469,3.931,3.695,9.793,6.514,15.2,4.786.4-.129,1.62-.544,1.185-1.168-4.381-6.282-10.952-10.921-18.767-11.2-.323-.011-2.4.444-2.035,1.126,2.6,4.8,16.366,16.33,19.891,6.4.3-.84-2.571-.466-2.884.415-2.092,5.893-12.594-4.8-14.109-7.6l-2.035,1.126c7.205.254,13.261,5.108,17.233,10.8l1.185-1.168c-3.872,1.237-8.129-1.4-11.073-3.684-.489-.38-5.448-5.815-4.591-6.061,1.707-.489,1.381-1.747-.336-1.255Z" fill="#c2a1f2"/><path d="M208.17,114.634c.841-.19,4.869,4.219,5.812,4.965a14.118,14.118,0,0,0,8.434,3.145c.511.018,2.176-.343,2.034-1.132-1.4-7.779-8.947-11.16-16.228-10.327-.411.047-1.85.434-1.671,1.1,1.273,4.771,3.9,9.479,8.913,10.971,3.07.913,7.02.319,9.376-1.961,2.489-2.408,1.013-5.359-1.35-7.184-3.928-3.033-10.565-5.157-14.635-1.388-1.2,1.108,1.675.917,2.289.348,3.635-3.367,16.479,4.637,10.712,8.467-2.034,1.351-4.871.394-6.728-.8-3.161-2.036-4.749-5.738-5.68-9.227l-1.671,1.1c6.515-.746,12.589,3.089,13.772,9.673l2.034-1.132c-4.177-.15-7.219-2.878-10.126-5.567-1.694-1.568-3.226-2.865-5.629-2.323-1.748.394-1.383,1.657.342,1.268Z" fill="#c2a1f2"/><path d="M227.5,192.929c-.846-.151-1.2-.967-2.151-.9a4.062,4.062,0,0,0-2.563,1.527c-1.832,2.183-.176,7.428.843,9.577,2.907,6.136,9.457,6.458,14.34,2.545.291-.233.632-.659.483-1.068a22.456,22.456,0,0,0-13.617-13.6c-.705-.258-2.318.1-2.3,1.1.152,9.154,4.786,18.625,14.973,18.967,1.423.048,2.952-2.077.994-2.143-9.043-.3-12.9-9.021-13.027-17.033l-2.3,1.1a20.465,20.465,0,0,1,12.383,12.4l.483-1.068c-4.431,3.551-8.364,1.149-10.2-3.564a12.2,12.2,0,0,1-.549-5.965c.025-.207-1.562-1.036-.176-.083a3.671,3.671,0,0,0,1.4.363c1.451.258,2.931-1.8.994-2.143Z" fill="#c2a1f2"/><path d="M288.83,148c-6.75-2.045-8.381,7.835-8.315,12.774.054,4.1,2.828,6.591,6.878,5.507a12.177,12.177,0,0,0,7.947-8.263c1.593-5.793-2.428-10.257-7.228-12.872a1.89,1.89,0,0,0-2.331.4c-3.172,3.817-3.826,8.727-3.127,13.517.479,3.277,2.1,7.984,5.674,9.011,3.517,1.009,6.7-2.812,7.378-5.883,1.243-5.619-1.542-12.716-5.382-16.84-.925-.993-3.666.2-2.648,1.295a22.563,22.563,0,0,1,5.188,11.075c.361,1.858-.529,10.285-4.011,7.794-2.284-1.635-3.025-5.34-3.4-7.914a14.3,14.3,0,0,1,2.767-11.151l-2.331.4c3.438,1.873,6.811,4.636,6.894,8.868a9.562,9.562,0,0,1-3.8,7.331c-1.615,1.3-4.05,2.147-5.082-.238-1.1-2.545.417-13.68,3.273-12.813,1.285.39,3.419-1.468,1.659-2Z" fill="#c2a1f2"/><path d="M289.883,50.836c4.7,4.1,12.153.946,15.33-3.409a.84.84,0,0,0-.1-1.264c-5.523-5.046-12.574-3.328-16.5,2.67-.323.495.14.955.549,1.143,6.526,2.993,13.125,1.957,18.8-2.315.462-.348.784-1.115.156-1.5-4.179-2.54-15.828-4.583-16.585,2.947-.15,1.495,2.8,1.09,2.936-.221.512-5.091,8.9-2.583,11.415-1.053.053-.5.1-1,.156-1.5a13.937,13.937,0,0,1-15.2,1.685c.183.381.365.762.549,1.143,2.987-4.562,7.534-4.951,11.5-1.33q-.047-.632-.1-1.264c-2.315,3.174-7.186,5.632-10.67,2.591-.97-.846-3.5.569-2.234,1.673Z" fill="#c2a1f2"/><path d="M246.111,229.607c-4.319,2.178-9.972,5.046-12.454,9.384a.429.429,0,0,0,.184.688c3.723,2.068,7.2,2.479,11.074.607.784-.379,3.269-1.523,3.53-2.48a13.337,13.337,0,0,0,0-3.2c0-.239-.4-.324-.554-.368-6.379-1.852-12.63.829-15.341,6.95-.152.343.331.508.55.563,8,2.026,15.832-1.424,19.341-8.95a.352.352,0,0,0-.1-.362c-2.826-2.535-4.4-1.441-7.775-1.229-1.007.063-3.088,1.69-1.146,1.568,1.611-.1,7.277-1.572,5.315,2.017a11.736,11.736,0,0,1-7.98,5.861,12.9,12.9,0,0,1-4.912-.177c-.7-.134,2.216-3.486,2.229-3.5,1.438-1.379,7.472-3.4,7.472-.416v1.652q-1.321.649-2.607,1.367a5.819,5.819,0,0,1-4.607-.16c-1.513-.535-1.941-.7-.958-1.893a16.154,16.154,0,0,1,2.563-2.279,47.571,47.571,0,0,1,7.947-4.864c1.738-.874-.874-1.239-1.778-.784Z" fill="#c2a1f2"/><path d="M67.458,161.851c.147-6.908,1.659-13.963,2.662-20.78,1.337-9.087,2.709-18.179,4.338-27.22l-2.906.537c5.8,20.246,3.2,41.755,9,62,.341,1.192,3.008.407,2.9-.776-2.064-22.073-5.936-43.928-8-66-.107-1.146-2.757-.406-2.906.537-2.969,18.8-5.971,37.619-11,56l2.915-.3a525.612,525.612,0,0,0,9-54c.149-1.322-2.787-.832-2.915.3a525.612,525.612,0,0,1-9,54c-.282,1.281,2.622.775,2.915-.3,5.029-18.381,8.031-37.2,11-56l-2.906.537c2.064,22.073,5.936,43.928,8,66l2.9-.776c-5.8-20.246-3.2-41.755-9-62-.328-1.143-2.732-.429-2.906.537-1.557,8.646-2.866,17.34-4.162,26.028-1.074,7.2-2.683,14.671-2.838,21.972-.029,1.359,2.891.818,2.915-.3Z" fill="#c2a1f2"/><path d="M59.181,148.309c2.138-2.387,9.561-1.42,12.343-1.371a111.316,111.316,0,0,1,12.936.971l1.081-1.816c-9.345-.056-18.657-.938-28-1-.784-.005-3.138,1.338-1.409,1.766,9.465,2.341,19.724.145,29.328.05.763-.007,3.153-1.37,1.409-1.766a72.088,72.088,0,0,0-17.763-1.422c-1.4.042-9.958.691-6.444,3.874.835.756,3.566-.382,2.677-1.188-1.131-1.024,1.97-.832,2.6-.864a64.665,64.665,0,0,1,7,.157,62.388,62.388,0,0,1,10.195,1.158l1.409-1.766c-9.361.092-19.476,2.325-28.672.05l-1.409,1.766c9.343.062,18.656.944,28,1,1.148.007,3.1-1.543,1.081-1.816a114.839,114.839,0,0,0-17.738-.968c-3.215.066-8.578-.12-10.983,2.567-1.178,1.315,1.635,1.429,2.361.618Z" fill="#c2a1f2"/><path d="M93.457,131.847c.13-4.021.87-7.979,1-12l-2.913.306c-.063,20.02-1.937,39.98-2,60l2.9-.541c-.841-19.995,2.882-39.793,3.008-59.765l-2.913.306c-.031,20.338-.969,40.662-1,61,0,1.362,2.709.762,2.913-.306,4.039-21.153,2.105-42.975-.008-64.235-.106-1.072-2.9-.456-2.9.541-.081,23.433-2.9,46.79-1.992,70.235.014.372.644.521.91.528,4.352.121,8.648.879,13,1,.545.015,3.043-1.042,1.677-1.672a71.906,71.906,0,0,0-13.271-4.108c-.759-.186-3.368,1.062-2,1.62,3.3,1.354,7.08,1.711,10.6,2.16,1.242.158,3.03-1.583,1.077-1.832-3.085-.394-6.5-.65-9.4-1.84l-2,1.62c4.333,1.061,8.657,2.013,12.729,3.892l1.677-1.672c-2.745-.076-5.456-.386-8.184-.684q-1.633-.18-3.273-.273c-1.006-.07-.807-5.929-.818-6.771-.092-6.949.169-13.9.482-20.841.627-13.89,1.663-27.757,1.71-41.667l-2.9.541c2.1,21.121,4,42.751-.008,63.765l2.913-.306c.031-20.338.969-40.662,1-61,0-1.346-2.906-.786-2.913.306-.127,20.132-3.841,40.077-2.992,60.235.044,1.045,2.9.475,2.9-.541.063-20.02,1.937-39.98,2-60,0-1.342-2.877-.792-2.913.306-.13,4.021-.87,7.979-1,12-.045,1.337,2.876.792,2.912-.307Z" fill="#c2a1f2"/><path d="M101.546,132.164c-.071,14.288-1.4,29.064,1,43.225.175,1.036,2.9.392,2.9-.552v-47c0-1.3-2.9-.709-2.907.327-.038,17.006-.962,33.994-1,51,0,.5.434.717.906.717a65.529,65.529,0,0,0,13.76-1.088c.642-.137,2.038-1.436.662-1.627s-10.7-.386-10.421-2.329c.178-1.235-2.753-.737-2.907.327-.625,4.334,9.351,3.36,11.579,3.671q.332-.813.662-1.627a58.409,58.409,0,0,1-12.24.912l.906.717c.038-17.006.962-33.994,1-51l-2.907.327v47l2.9-.552c-2.377-14.022-1.065-28.624-1-42.775.007-1.3-2.9-.711-2.907.327Z" fill="#c2a1f2"/><path d="M105.315,151.9c.5-.534.9-1.147,1.441-1.652,1.366-1.278,3.639-.857,5.309-.642l1.869-1.22h-9c-.265,0-2.963.6-2.3,1.11,1.767,1.358,4.758.2,6.742.1q.623-.6,1.243-1.211a30.193,30.193,0,0,0-5.749,1.131l1.576.086c0-1.061.285-1.109,1.218-1.751a23.569,23.569,0,0,0,2.649-1.957c.5-.457-.437-.529-.694-.51a3.334,3.334,0,0,0-1.937.7c-1.008.922-2.231,1.551-3.3,2.4-.856.683-.837.865-.837,1.893,0,.451,1.411.127,1.576.086a22.544,22.544,0,0,1,4.251-.869c.791-.036,3.167-1.3,1.243-1.211-1.479.066-3.989,1.081-5.258.1l-2.3,1.11h9c.541,0,3.413-1.021,1.869-1.22a14.92,14.92,0,0,0-8.021.878c-1.441.626-2.2,1.739-3.229,2.828-.634.674,2.143.327,2.631-.19Z" fill="#c2a1f2"/><path d="M104.36,131.488c-1.076-.785-2.618-.843-.207-.854,2.263-.01,4.516-.108,6.771-.3a33.48,33.48,0,0,0,8.594-1.935c1.225-.447,1.024-1.23-.267-1-5.618,1.026-11.357,1.128-17,2l-.5,1.2a121.305,121.305,0,0,1,18.64-.959c.613,0,2.978-1.269,1.539-1.28-4.394-.037-8.782-.374-13.178-.2-1.544.06-6.741,1.072-2.93,2.439.7.25,3.318-.849,2.362-1.191-1.394-.5-2.11.091-.089.013,1.488-.058,2.98-.022,4.468.007,2.5.049,5.008.194,7.513.215l1.539-1.28a125.876,125.876,0,0,0-19.36,1.041c-1.218.189-2.536,1.515-.5,1.2,5.644-.872,11.379-.973,17-2l-.267-1c-4.654,1.7-9.593,1.729-14.485,1.752-1.163.005-4.038.036-4.23,1.728a.215.215,0,0,0,.074.274c.594.411,1.213.724,1.8,1.152.694.5,3.242-.645,2.721-1.025Z" fill="#c2a1f2"/><path d="M106.36,145.487c-.407-.212.03-.054-.313.239l-1.932.718c-.711.036.7.248,1.04.347.777.228,1.55.473,2.322.718q1.675.531,3.342,1.088l1.792-1.243h-7c-.853,0-3.157,1.29-1.222,1.29h9l1.222-1.29c-2.577.121-5.949,1.011-7.932,2.718-.53.457.459.586.71.572a3.262,3.262,0,0,0,1.932-.718,7.842,7.842,0,0,1,4.068-1.282c.817-.039,3.179-1.29,1.222-1.29h-9c-.853,0-3.157,1.29-1.222,1.29h7c.351,0,2.862-.886,1.792-1.243q-2.412-.8-4.84-1.558c-1.621-.5-3.463-1.233-4.952.041a.348.348,0,0,0-.127.315.82.82,0,0,0,.378.312,2.462,2.462,0,0,0,1.88-.115c.113-.041,1.356-.64.84-.909Z" fill="#c2a1f2"/><path d="M122.459,152.858c.131-.511.935-1.849-.28-1.5l-1.684-.488c.743,6.96.295,14.266.545,21.272s.478,14,.5,21c0,1.4,2.763.858,2.919-.283,1.909-13.971-.875-28.005-1-42-.012-1.4-2.919-.863-2.919.283v46l2.919-.283c0-16.754-.007-33.516-1.011-50.247l-1.214,1.264c14.2-3.1,7.5,18,3.4,24.017-.917,1.344,2.02.909,2.56.452,5.283-4.465,7.141-12.2,5.849-18.824-1.19-6.1-6.444-7.606-11.65-5.262-1.825.822-.181,2.115,1.223,1.483,6.192-2.788,7.955,4.043,7.9,8.79-.052,4.869-1.951,9.949-5.706,13.124l2.56.452c5.939-8.705,10.237-29.657-6.6-25.983-.614.134-1.254.589-1.214,1.264.994,16.566.989,33.164.989,49.753,0,1.4,2.919.863,2.919-.283v-46l-2.919.283c.125,14,2.908,28.034,1,42l2.919-.283c-.024-7.641-.3-15.274-.568-22.909-.233-6.546.2-13.356-.5-19.856-.072-.675-1.268-.606-1.684-.488-1.609.46-1.8,2.091-2.169,3.537-.324,1.26,2.625.861,2.918-.284Z" fill="#c2a1f2"/><path d="M125.861,173.289c6.179-3.038,5.623,9.949,5.27,12.542a30.309,30.309,0,0,1-10.262,19.046l2.458.071c6.209-7.062,16.763-15.148,13.4-25.817-1.869-5.919-12.811-9.489-16.159-2.906-.31.608,2.465.353,2.874-.45,1.863-3.662,6.5-.692,8.234.7,1.417,1.139,2.025,3.029,2.546,4.678,1,3.165-.094,6.5-1.464,9.345-2.722,5.656-8,9.915-12.08,14.554-.761.865,2.038.419,2.458.071a32.093,32.093,0,0,0,11.22-24.758c-.029-6.625-3.822-10.8-10.212-7.654-1.737.853.935.965,1.722.578Z" fill="#c2a1f2"/><path d="M147.449,164.612c-.031-.245-.428-1.658-.206-1.823l-2.3.514c2.7.844.2,18.632-.015,21.085-.611,7-1.309,13.969-1.375,21l2.9-.777c-.1-13.209-3.68-28.277.665-41.078.36-1.062,3.015-6.7,4.344-5.589,1.6,1.34,1.543,4.68,1.578,6.514a29.92,29.92,0,0,1-7.351,19.637l2.747-.344c4.261-6.451,6.495-16.2,5.25-23.883-1.086-6.712-7.5-.2-9.113,2.379l2.862-.5a9.625,9.625,0,0,0,1.018-5.14l-2.9.776c.038,15.671.952,31.4-1,47-.051.4,2.784.128,2.9-.777,1.952-15.6,1.038-31.329,1-47,0-.52-2.889-.081-2.9.776a9.162,9.162,0,0,1-.982,4.86c-.246.407,2.416.218,2.862-.5a18.411,18.411,0,0,1,2.625-3.469c-.337.332.03.252.433,1.236.832,2.029.6,4.62.482,6.747-.339,6.124-1.993,12.823-5.4,17.983-.295.448,2.327.136,2.747-.344a30.936,30.936,0,0,0,7.548-22c-.232-3.828-2.505-7.37-6.544-4.809-6.057,3.84-6.574,12.571-6.8,18.96-.354,9.8.96,19.549,1.037,29.334,0,.525,2.89.076,2.9-.777.132-14.038,2.827-27.941,2-42a.327.327,0,0,0-.262-.187c-2.749-.857-3.97.348-3.636,2.963.078.614,3,.015,2.9-.774Z" fill="#c2a1f2"/><path d="M149.449,184.612c.144-3.37,2.008-4.766,5.1-6.12l-1.9.047c6.931,9.746,3.1,22.772,1.912,33.671q1.444-.3,2.89-.6c.048-11.008.979-22.263-2-33-.244-.879-3.139-.094-2.9.776,2.979,10.737,2.047,21.992,2,33,0,.75,2.8.2,2.89-.6,1.221-11.185,5.021-24.333-2.088-34.329-.324-.455-1.524-.117-1.9.047-3.8,1.666-6.715,3.439-6.9,7.88-.033.708,2.851.251,2.9-.774Z" fill="#c2a1f2"/><path d="M171.455,182.842v-5c0-1.324-2.9-.751-2.91.315-.084,15.1-1.831,30.174.006,45.231.128,1.054,2.91.427,2.9-.546-.087-14.019-1.819-28.025,0-42l-2.91.315c-.923,12.325-.049,24.663,0,37l2-1.057h-1l.913.742c.2-2.364.854-4.622,1-7,.081-1.306-2.844-.767-2.91.314-.146,2.379-.8,4.637-1,7-.044.508.468.742.913.742h1c.54,0,2-.261,2-1.057-.048-12.338-.923-24.676,0-37,.1-1.3-2.771-.757-2.91.315-1.82,13.983-.087,27.976,0,42l2.9-.546c-1.818-14.9-.076-29.828.006-44.769l-2.91.315v5c0,1.326,2.908.752,2.908-.314Z" fill="#c2a1f2"/><path d="M169.428,166.742c.1-.286.19-.571.289-.855.028-.081.226-.449.047-.24l-1.193.551.014,0-1.483.054c-.118-.138-.051.187-.051.283,0,.322,0,.643.013.964a10.762,10.762,0,0,0,.487,2.893c.2.637,2.9-.087,2.9-.776v-3c0-.175-.427-.2-.507-.2a5.879,5.879,0,0,0-2.469.485c-.362.174-.843.407-.807.877a2.945,2.945,0,0,0,.44.942,3.858,3.858,0,0,1,.445,1.667c.013.477,2.919.027,2.9-.776a4.084,4.084,0,0,0-.5-1.775c-.108-.211-.228-.416-.323-.632-.353-.8.851.343-1.568.378l-.507-.2v3l2.9-.776a11.176,11.176,0,0,1-.486-2.893c-.018-.391.144-1.135-.128-1.452-.253-.294-1.2-.018-1.483.054a2.155,2.155,0,0,0-1.362.754,6.8,6.8,0,0,0-.417,1.182c-.162.487.967.3,1.156.266.412-.074,1.538-.29,1.7-.782Z" fill="#c2a1f2"/><path d="M189.465,186.878v-4c0-1.477-2.93-1-2.93.244,0,15.66,7.3,34.536-2.739,48.481l2.533-.23c-2.077-2.917-4.01-5.159-4.88-8.762l-2.778,1.016c1.474,2.577,4.372,8.159,8.237,6.1,3.308-1.765,3.079-7.938,3.224-11.018.578-12.339-1.544-24.532-1.667-36.828-.015-1.479-2.942-1-2.93.244.093,9.271,1.4,18.545,1.68,27.821a76.551,76.551,0,0,1-.576,14.86,12.385,12.385,0,0,1-.654,2.457c-.373.961-.233.807-.354.745-1.958-1-3.271-3.833-4.3-5.633-.567-.993-3.063-.167-2.778,1.016.924,3.821,2.9,6.116,5.12,9.238.521.732,2.071.412,2.533-.23,10.468-14.537,3.261-33.232,3.261-49.519,0-1.477-2.93-1-2.93.244v4c0,1.478,2.929,1,2.929-.243Z" fill="#c2a1f2"/><path d="M200.449,182.612a5.876,5.876,0,0,1,.981-3.862l-2.88.638c-.036,17.043-.829,34.113,2,51,.107.636,2.9-.015,2.9-.777-.145-17.061-3.823-33.909-3-51l-2.9.776a506.415,506.415,0,0,1,3,57c0,.273.705.215.826.212a89.326,89.326,0,0,0,15.359-2.046c.212-.042,2.457-.839,1.451-1.126-3.461-.99-15.125-.017-14.738-4.817.035-.436-2.827-.109-2.9.777-.437,5.423,12.146,4.292,15.262,5.183l1.451-1.126c-3.618.72-7.217,1.4-10.891,1.782-3.945.415-2.935-3.28-2.966-6.12-.063-5.715-.237-11.428-.467-17.137-.448-11.143-1.218-22.28-2.491-33.359-.071-.619-2.861.007-2.9.776-.823,17.09,2.855,33.939,3,51l2.9-.777c-2.83-16.888-2.036-33.956-2-51,0-.75-2.613.285-2.88.638-1.021,1.352-1,2.463-1.019,4.138,0,.5,2.889.087,2.9-.773Z" fill="#c2a1f2"/><path d="M202.2,208.364a12.022,12.022,0,0,1,8.653-3.39c1.23-.023,2.433-1.951.674-1.951h-9q-.338.975-.674,1.951c2.027-.1,3.974-.9,6-1q-.4-.78-.789-1.559c-2.092,1.464-2.386.438-3.727-1.03-.818-.9-3.579.229-2.666,1.229s1.489,1.972,2.8,2.495c1.85.738,4.025-.51,5.475-1.525,1.076-.753.237-1.61-.789-1.559-2.027.1-3.974.9-6,1-1.2.061-2.453,1.951-.674,1.951h9q.338-.975.674-1.951a16.127,16.127,0,0,0-11.347,4.61c-1.265,1.262,1.559,1.56,2.391.729Z" fill="#c2a1f2"/><path d="M201.359,183.485c-.795-.445-.887-.643.036-.917a34.853,34.853,0,0,1,3.973-.817c2.261-.391,4.538-.7,6.773-1.223.829-.2,2.035-1.18.468-1.18h-11l-1.219,1.3c4.354-.073,8.646-.927,13-1,.85-.014,3.163-1.3,1.219-1.3h-12c-.861,0-3.155,1.3-1.219,1.3h9c.156-.394.313-.787.468-1.18a36.816,36.816,0,0,1-10.249,1.876l.516.75c1.206-.9,2.774-1.091,4-2s-1.686-.616-2.25-.2c-1.206.9-2.774,1.091-4,2-.682.506-.057.763.516.75a42.321,42.321,0,0,0,11.751-2.124c.768-.245,2.077-1.18.468-1.18h-9c-.861,0-3.155,1.3-1.219,1.3h12l1.219-1.3c-4.354.073-8.646.927-13,1-.85.014-3.163,1.3-1.219,1.3h11c.156-.394.313-.787.468-1.18-3.55.838-7.212,1.1-10.745,2.041-1.208.321-4.934,1.625-2.473,3,.773.434,3.213-.751,2.718-1.028Z" fill="#c2a1f2"/><path d="M250.47,191.9c.188-1.419.814-2.586,1-4,.209-1.584-2.623-1.025-2.939.2-2.146,8.326-4.918,16.435-6,25-.2,1.583,2.631,1.033,2.939-.2a234.6,234.6,0,0,1,6.92-23.717c.587-1.6-2.281-1.585-2.779-.363-2.925,7.18-4.255,14.782-6.08,22.283-.354,1.452,2.608,1.1,2.939-.2,2.125-8.307,4.809-16.486,6-25l-2.919.49c2.814,8.623,4.9,17.472,8,26,.486,1.336,3.223.627,2.9-.777-2.021-8.752-4.979-17.247-7-26l-2.9.776c3.114,8.3,8.056,18.684,5.979,27.713-.335,1.454,2.637,1.116,2.939-.2,2.134-9.277-2.833-19.792-6.021-28.287-.5-1.329-3.223-.63-2.9.776,2.021,8.752,4.979,17.248,7,26l2.9-.777c-3.105-8.527-5.187-17.377-8-26-.421-1.29-2.753-.7-2.919.49-1.192,8.514-3.876,16.694-6,25l2.939-.2c1.779-7.309,3.07-14.72,5.92-21.717l-2.779-.363a239.865,239.865,0,0,0-7.08,24.283l2.939-.2c1.082-8.561,3.855-16.679,6-25l-2.939.2c-.188,1.419-.814,2.586-1,4-.2,1.516,2.764,1.144,2.941-.2Z" fill="#c2a1f2"/><path d="M250.335,206.393c-1.2-1.38,3.609-2.264,4.431-2.458a33.466,33.466,0,0,1,7.076-.985c1.567-.024,2.3-1.93.316-1.9-2.153.034-18.32,2.171-14.493,6.557.777.889,3.546-.213,2.67-1.216Z" fill="#c2a1f2"/><path d="M268.462,188.866v-4l-2.911.522a260.726,260.726,0,0,1,1.987,26.746l2.924-.268a221.287,221.287,0,0,0-2.013-25.254l-2.9.776a160.6,160.6,0,0,1,.987,20.746l2.911-.522a94.982,94.982,0,0,1-1.217-12.5,15.2,15.2,0,0,1,1.083-6.013c1.448-3.348,5.193-2.155,7.832-1.184q-.172-.641-.344-1.28c-2.992,4.063-5.692,8.377-10.423,10.6-1.837.861-.177,2.1,1.238,1.539,4.664-1.862,9.759-2.652,12.052,2.687,1.532,3.566,1.171,7.917.867,11.678l2.924-.268c.284-6.066-2-12.407-6.9-16.205-2.56-1.981-5.791-.74-6.019,2.473-.1,1.409,2.839.931,2.924-.268.183-2.6,3.256,1.827,3.869,2.677a18.424,18.424,0,0,1,3.207,11.591c-.066,1.418,2.827.925,2.924-.268.409-5.065.755-11.206-2.783-15.316s-10.18-1.964-14.3-.319l1.238,1.539c5.208-2.441,8.256-6.9,11.577-11.4.394-.535.319-1.037-.344-1.28-4.657-1.714-10.731-1.959-12.655,3.679-2.011,5.894-.423,12.637.354,18.624.151,1.16,2.911.545,2.911-.522a164.5,164.5,0,0,0-1.013-21.254c-.16-1.224-3.059-.518-2.9.776a216.493,216.493,0,0,1,1.987,24.746c.013,1.431,2.933.915,2.924-.268a266.094,266.094,0,0,0-2.013-27.254c-.129-1.157-2.911-.548-2.911.522v4c0,1.427,2.925.916,2.925-.27Z" fill="#c2a1f2"/><path d="M273.134,198.227a17.2,17.2,0,0,0-1.559-.908c-.163-.085-.327-.167-.485-.259-.087-.051-.183-.161.066.071q-.266,1.32-1.294,1.4c.048-.008.1-.015.145-.02.711-.092,1.434-.119,2.147-.18,1.125-.1,2.336-.387,3.445-.387a2.118,2.118,0,0,0,1.9-.843c.332-.591-.282-1.05-.838-1.05h-5.13a2.118,2.118,0,0,0-1.9.843c-.338.6.287,1.033.838,1.05a6.409,6.409,0,0,1,4.2,1.659c.853.806,3.594-.339,2.67-1.211a8.853,8.853,0,0,0-5.8-2.341l-1.061,1.893h5.13a2.118,2.118,0,0,0,1.9-.843c.332-.591-.282-1.05-.838-1.05-1.532,0-3.093.308-4.623.435a9.791,9.791,0,0,0-2.771.4c-.845.33-1.3,1.222-.393,1.746.664.384,1.35.714,1.993,1.137.94.618,3.559-.7,2.27-1.545Z" fill="#c2a1f2"/><path d="M293.449,190.611v-7l-2.9.776a216.187,216.187,0,0,1,1,25c0,.689,2.881.191,2.9-.777.132-7.375,1.773-14.711,0-22-.206-.847-2.9-.084-2.9.776v19c0,.683,2.9.2,2.9-.777v-19l-2.9.776c1.77,7.27.132,14.637,0,22l2.9-.777a216.412,216.412,0,0,0-1-25c-.092-.788-2.9-.126-2.9.776v7c0,.687,2.9.2,2.9-.773Z" fill="#c2a1f2"/><path d="M287.123,184.919c-.619,0-1.83-.353-.963.169-.155.574-.312,1.148-.467,1.722-.937.376.168.093.474.069.817-.061,1.636-.1,2.454-.149,2.01-.112,4.021-.2,6.032-.3q4.11-.187,8.224-.352c1.3-.052,2.4-1.915.62-2.153-6.707-.9-13.253-.96-19.769,1.058-1.467.454-1.559,2.1.148,2.1,7.232,0,14.367-.2,21.395-2.067,1.511-.4,1.525-2.1-.148-2.1a119.517,119.517,0,0,0-18,1c-1.158.176-2.5,2.1-.62,2.153,3.693.109,7.308.891,11,1,1.422.042,2.952-2.086.994-2.144-3.693-.109-7.308-.891-11-1q-.311,1.077-.62,2.153a119.649,119.649,0,0,1,18-1q-.075-1.047-.148-2.1c-6.774,1.8-13.643,1.93-20.605,1.933q.075,1.047.148,2.1c6.034-1.869,12.024-1.772,18.231-.942q.311-1.077.62-2.153-4.818.192-9.635.417c-2.747.127-6.481-.322-9.09.724-.617.248-1.247,1.253-.466,1.722.814.489,2.045.3,2.944.3,1.673,0,2.211-2.158.247-2.163Z" fill="#c2a1f2"/><path d="M291.718,215.946c-2.742.678-5.1.94-7.582,2.324a22.866,22.866,0,0,0-6.943,5.689c-2.363,3-2.512,7.135.385,9.823,6.6,6.12,16.651,2.052,16.9-6.877l-2.945.188c.109,3.694.892,7.308,1,11,.047,1.581,2.945,1.2,2.945-.188v-9c0-1.586-2.945-1.2-2.945.188v8c0,1.586,2.945,1.2,2.945-.188v-8c0-1.586-2.945-1.2-2.945.188v9l2.945-.188c-.109-3.694-.892-7.308-1-11-.047-1.579-2.907-1.206-2.945.188-.089,3.279-1.145,6.381-4.618,7.229a8.013,8.013,0,0,1-7.538-2.78c-2.123-2.565-.691-5.62,1.224-7.782,3.226-3.639,7.252-4.61,11.688-5.707,1.812-.448,1.237-2.553-.567-2.107Z" fill="#c2a1f2"/><path d="M294.16,218.327c-3.685-2.093-7.91-2.4-11.432.193-3,2.211-4.193,6.374-4.3,9.926-.1,3.188.741,6.938,3.765,8.573,4.005,2.166,9.08-1.317,11.956-3.821,1.241-1.08-1.645-.97-2.3-.4-2.073,1.8-5.284,4.566-8.011,2.422-2.021-1.588-2.481-4.623-2.517-7.02a13.242,13.242,0,0,1,2.577-8.179c2.166-2.778,5.248-1.882,7.941-.353.77.437,3.457-.7,2.322-1.345Z" fill="#c2a1f2"/><path d="M304.449,219.611c-.731-1.387-1.756-1.734-3.241-.956-1.344.7-1.006,2.756-.972,4.011.127,4.6,1.121,9.137,1.314,13.723.029.683,2.908.146,2.9-.777a86.346,86.346,0,0,0-2-16c-.153-.767-3.026-.079-2.9.777.607,4.067.439,8.184.752,12.275.153,2,.564,3.56,2.846,2.892,1.688-.495,1.4-1.61-.3-1.111,1.2-.351.576-.765.412-1.943a35.05,35.05,0,0,1-.219-3.563,83.521,83.521,0,0,0-.6-9.327l-2.9.777a86.239,86.239,0,0,1,2,16l2.9-.777c-.118-2.784-.645-5.588-.921-8.361-.193-1.933-.354-3.871-.406-5.813a12.937,12.937,0,0,1,.067-1.968c.191-1.555.373,2.039-2.156.107a2.413,2.413,0,0,1,.518.813c.437.826,3.213-.183,2.9-.779Z" fill="#c2a1f2"/><path d="M304.449,209.611v-.953c0-.653-2.9-.18-2.9.776v5.222c0,.653,2.9.18,2.9-.777v-5.268c0-.653-2.9-.18-2.9.777v5.268c0,.653,2.9.18,2.9-.777v-5.221c0-.653-2.9-.18-2.9.776v.954c0,.654,2.9.18,2.9-.777Z" fill="#c2a1f2"/><path d="M312.449,222.611c-.15-1.428-.851-2.571-1-4l-2.9.777a89.194,89.194,0,0,1,2,16l2.9-.777c-1.029-5.608-1-11.316-1-17l-2.9.777c.024,3.1.244,6.2.422,9.3.118,2.066-.292,5.374.548,7.308.272.629,2.671-.125,2.876-.651a2.191,2.191,0,0,0,.053-.731c0-.418-2.893-.025-2.9.777a3.277,3.277,0,0,1-.009.48q1.439-.325,2.876-.651c-.84-1.936-.427-5.24-.548-7.308-.182-3.093-.4-6.2-.421-9.3,0-.433-2.9-.017-2.9.777,0,5.683-.029,11.391,1,17,.1.563,2.908-.075,2.9-.777a89.294,89.294,0,0,0-2-16c-.111-.563-2.971.084-2.9.777.15,1.428.851,2.571,1,4,.052.51,2.974-.041,2.9-.777Z" fill="#c2a1f2"/><path d="M312.462,218.868c.23-2.574,7.233-1.885,9.018-1.885a2.063,2.063,0,0,0,1.895-.858c.316-.6-.271-1.108-.854-1.108-3.227,0-12.539-.853-12.982,4.115-.127,1.409,2.815.943,2.923-.264Z" fill="#c2a1f2"/><path d="M313.322,222.346q-.246-.313.045.378l-.814,1.008c-.739.4-1.273.08-.782.217.329.091.654.2.981.3.758.232,1.521.44,2.29.636a10.186,10.186,0,0,0,5.24.173l-.94-1.969c-2.194.993-4.876.793-7.229.794q-.113,1.12-.225,2.24c2.708-.059,5.294-.941,8-1q.113-1.12.225-2.24c-2.047.087-3.96.913-6,1-1.687.072-2.194,2.324-.225,2.24,2.047-.087,3.96-.913,6-1,1.688-.072,2.2-2.283.225-2.24-2.708.059-5.294.941-8,1-1.7.036-2.188,2.241-.225,2.24,2.962,0,6.02.039,8.771-1.206,1.564-.709.521-2.384-.94-1.969-1.938.55-4.239-.416-6.085-.976a3.046,3.046,0,0,0-2.357-.087c-.651.352-1.193,1.1-.6,1.771.926,1.038,3.665-.166,2.643-1.308Z" fill="#c2a1f2"/><path d="M310.22,219.821c3.385-.858,6.72-1.857,10.239-1.916l.714-1.8a39.83,39.83,0,0,0-4.384.6q-1.441.216-2.882.432c-.368.055-.736.107-1.1.159-.842.117-.729-.192.124.233q-.271.719-.542,1.438c-.623.291.612-.1.835-.141,1.8-.363,1.32-2-.439-1.643a7.066,7.066,0,0,0-1.591.4c-.456.213-1.376,1.024-.542,1.439,1.2.6,3.445-.18,4.661-.363a50.705,50.705,0,0,1,5.519-.765c1.146-.043,2.481-1.83.714-1.8-4.061.067-7.85,1.091-11.761,2.084-1.768.451-1.32,2.092.439,1.645Z" fill="#c2a1f2"/><path d="M337.88,216.185c-9.64-2.554-4.021,15.237-3.329,19.2.176,1,2.912.355,2.9-.56a119.962,119.962,0,0,0-2-18.218l-2.9.777c1.414,4.906.993,10.716,1,15.782,0,1.265,2.9.658,2.9-.342,0-5.219.452-11.169-1-16.218-.307-1.063-3.08-.316-2.9.777a117.321,117.321,0,0,1,2,17.782l2.9-.56c-.283-1.621-3.259-17.307-1.329-16.8.97.259,3.423-1.188,1.76-1.628Z" fill="#c2a1f2"/><path d="M328.175,216.381c-.464-.139-1.648.655-.563.443.566-.11,1.143-.177,1.714-.251,1.673-.217,3.359-.338,5.041-.464,3-.224,6.021-.406,9.031-.428.895-.006,3.148-1.364,1.2-1.363-5.8,0-11.64,0-17.361,1.036-.785.142-2.688,1.327-.842,1.327h20.75c.9,0,3.145-1.363,1.2-1.363-3.924,0-7.839-.994-11.8-.993a24.543,24.543,0,0,0-10.083,2.235c-.484.219-1.508.955-.388,1.111,6.3.88,12.454.006,18.678-1.026.793-.131,2.679-1.378.842-1.327a58.1,58.1,0,0,0-6.14.666c-1.124.151-7.239,1.3-5.135-1.035.71-.788-2.132-.478-2.654.1-1.669,1.852-.423,2.693,1.71,2.705,3.7.021,7.324-.973,11.016-1.074l.842-1.327c-5.78.959-11.469,1.791-17.322.974q-.193.555-.388,1.111c6.722-3.036,12.752-.758,19.618-.758.9,0,3.145-1.363,1.2-1.363H327.6l-.842,1.327c5.483-.993,11.085-.962,16.639-.964l1.2-1.363a135.261,135.261,0,0,0-14.8.964c-.59.069-7,1.438-3.981,2.337.747.222,3.352-.94,2.35-1.239Z" fill="#c2a1f2"/></g></g></svg>