<svg xmlns="http://www.w3.org/2000/svg" width="389.279" height="326.332" viewBox="0 0 389.279 326.332"><g transform="matrix(0.921, -0.391, 0.391, 0.921, -328.921, 15.133)"><rect width="332" height="213" transform="translate(258 234)" fill="#fff"/><g transform="translate(219.046 202.032)"><path d="M369,199V47a12,12,0,0,0-12-12H54A12,12,0,0,0,42,47V232a12,12,0,0,0,12,12H357a12,12,0,0,0,12-12V220.958A111.957,111.957,0,0,1,369,199Z" fill="none" stroke="#c2a1f2" stroke-miterlimit="10" stroke-width="4"/><g transform="translate(-0.244)"><path d="M369.638,177.766c-.144-.231-.283-.465-.429-.695a4.484,4.484,0,0,0-.423-2.587c-.5-3.172-.782-6.37-1.217-9.552a4.774,4.774,0,0,0,2.733-1.173c.28-4.918.587-9.835.857-14.752q-4.27-4.7-8.8-9.154c-5.9-9.471-14.412-17.637-22.668-24.953-6.043-5.357-12.39-10.361-18.832-15.257a57.624,57.624,0,0,0,23.447,8.341c.025.139.044.277.07.416,1.038,5.454,9.836,4.023,9.835-1.279a192.165,192.165,0,0,0-1.042-23.769c.379-6.523.988-13.051,1.045-19.548a4.915,4.915,0,0,0-.06-.7c2.844-3.079-.57-9.459-5.277-7.791-.333.118-.669.231-1,.344a5.47,5.47,0,0,0-3-.344A133.929,133.929,0,0,0,310.382,66.6a53.177,53.177,0,0,0-12.78-1.146c-.537.016-1.072.061-1.6.125a3.967,3.967,0,0,0-2.112.394,13.025,13.025,0,0,0-7.16,4.323c-12.712-13.606-26.558-26.625-43.138-35.674a5.438,5.438,0,0,0-7.537,3.19c-1.853-.663-3.741-1.253-5.675-1.75a4.926,4.926,0,0,0-4.227.807,68.815,68.815,0,0,1-7.6-3.209,5.018,5.018,0,0,0-7.445,4.21,41.7,41.7,0,0,0-8.772-2.769c-6.306-1.2-8.992,8.073-2.662,9.282,10.913,2.084,20.537,10,28.779,16.724q3,2.452,5.913,5.009,1.594,1.637,3.2,3.257c-.053.446-.092.891-.141,1.337a4.311,4.311,0,0,0-.194.481c-2.314,8.043-2.417,16.306-1.847,24.547a65.116,65.116,0,0,0,.845,9.776c.649,3.879,7.267,4.841,9.058,1.315a4.52,4.52,0,0,0,3.781-4.519c0-.4.025-.789.034-1.184a5.155,5.155,0,0,0,5.3,1.975,64.181,64.181,0,0,0,8.584-2.365c-6.669,5.223-13.594,10.252-18.381,16.993-.53.261-1.057.527-1.581.8a11.439,11.439,0,0,0-1.492.8,4.706,4.706,0,0,0-2.255,4.679,4.88,4.88,0,0,0,.772,4.015,4.922,4.922,0,0,0,.318,1.016c.262,7.984,7.3,15.281,14.19,20.924a40.227,40.227,0,0,0,.695,6.566,4.027,4.027,0,0,0,1.821,2.79c-.021.72-.018,1.364.282,1.075a3.828,3.828,0,0,0-.19,1.638c.547,4.2,6.9,7.251,9.33,2.429a7.394,7.394,0,0,0,.487-1.233,6.542,6.542,0,0,0,.426-.737,4.2,4.2,0,0,0-.277-5.13c-.125-1.105-.26-2.209-.281-3.295-.005-.262.008-.523.009-.785a5.713,5.713,0,0,0,.9-4.212c5.5-14.736,10.211-29.819,11.328-45.506a335.8,335.8,0,0,0,37.146,42.929c1.215,5.314,2.587,10.6,4.115,15.811,1.749,5.965,11.412,3.428,9.656-2.559-.071-.244-.135-.489-.205-.733q3.51,3.064,7.1,6.033a216.635,216.635,0,0,0,24.45,25.062c.321,1,.668,2,1.057,3a5.478,5.478,0,0,0,7.148,2.957C369.361,189.961,369.43,183.863,369.638,177.766ZM286.652,86.347c-.122-.112-.242-.224-.364-.337-.742-.755-1.465-1.507-2.187-2.249a4.054,4.054,0,0,0,.063-1.047c.8.548,1.612,1.086,2.438,1.608a5.3,5.3,0,0,0,1.606.69A4.922,4.922,0,0,0,286.652,86.347Zm22.8,4.724c.538.2,1.075.4,1.617.581q1.254,1.346,2.639,2.6Z" transform="translate(0 0)" fill="#c2a1f2" opacity="0.5"/></g><path d="M328.182,161.247c14.006,14.269,27.77,29.143,39.488,45.376.729,1.01,3.5-.08,2.66-1.246C358.612,189.144,344.849,174.27,330.842,160c-.875-.892-3.624.265-2.66,1.247Z" fill="#c2a1f2"/><path d="M278.48,110.53c12.9,12.66,23.283,27.659,36.164,40.339.627.617,3.331-.449,2.711-1.06-12.881-12.68-23.262-27.679-36.164-40.339-.628-.616-3.332.451-2.711,1.06Z" fill="#c2a1f2"/><path d="M192.64,36.511c14.416,10.5,28.135,21.886,41.432,33.767.619.554,3.257-.544,2.721-1.022-13.3-11.881-27.016-23.265-41.432-33.767-.694-.5-3.241.644-2.721,1.022Z" fill="#c2a1f2"/><path d="M354.182,141.037q6.488,7.584,12.48,15.56c.674.9,3.463-.141,2.676-1.193q-5.976-7.992-12.48-15.56c-.738-.862-3.512.216-2.676,1.193Z" fill="#c2a1f2"/><path d="M244.638,35.505c13.546,12.814,27.8,24.922,42,37,.623.529,3.224-.585,2.725-1.01-14.2-12.077-28.454-24.185-42-37-.582-.549-3.229.533-2.725,1.01Z" fill="#c2a1f2"/><path d="M289.335,73.395c-4.994-9.179-16.625-12.931-26.3-14.491-7.785-1.255-19.341-2.94-25.831,2.924-6.167,5.571-5.839,14.821-5.355,22.436.649,10.223,3.146,20.629,1.7,30.88-.146,1.03,1.54.854,2.068.59,14.8-7.375,30.592-14.153,43.542-24.623,4.042-3.268,9.918-9.043,9.2-14.838s-6.788-8.322-11.645-10.038c-6.888-2.434-14.044-3.786-20.932-6.312-4.384-1.607-10.2-4.082-14.879-2.072-5.809,2.5-6.869,9.587-7.606,15.149-1.637,12.347,1.889,24.754.246,37.143-.141,1.064,1.531.805,2.068.59,17.244-6.873,38.521-13.348,50.58-28.4,1.121-1.4-1.656-1.58-2.379-.679-11.755,14.668-32.579,20.893-49.42,27.6l2.068.59c1.162-8.769.054-17.471-.454-26.245-.382-6.589-1.08-19.4,5.224-23.873,3.683-2.612,11.381,1.427,14.957,2.741,5.835,2.146,11.829,3.355,17.754,5.185,4.75,1.467,11.48,4.07,11.514,9.983.039,6.838-8.079,12.533-13.033,16-11.812,8.264-25.169,14.212-38.029,20.619l2.068.59c1.1-7.789-.131-15.767-.982-23.52-.868-7.914-2.254-17,.954-24.573,3.865-9.133,16.361-7.3,24.26-6.175,9.573,1.363,21.058,4.98,25.975,14.016.539,1,3.336.017,2.67-1.206Z" fill="#c2a1f2"/><path d="M286.553,72.187c-2.1,7.66-3.316,15.5-6,23-.128.357.31.519.557.585,8.336,2.243,17.9-.566,22.946-7.771,4.983-7.123-.26-17.636-7.592-20.871-11.411-5.034-11.2,20.666-11.911,26.056-.046.345.236.544.557.585,8.544,1.109,15.878-3.088,18.131-11.606,1.454-5.5-.2-13.658-7.429-11.871-1.75.433-1.36,1.838.377,1.408,3.366-.833,4.408,3.815,4.608,6.2a15.768,15.768,0,0,1-3.664,11.023,10.18,10.18,0,0,1-7.51,3.492c-2.815.139-2.013-.9-1.816-3.252.322-3.853.661-7.7,1.326-11.51.365-2.092,1.676-10.224,5.02-9.144,5.411,1.747,9.346,9.478,8.938,14.739-.65,8.355-10.6,12.433-17.809,11.53-2.164-.271-1.168-1.843-.662-3.395.727-2.224,1.271-4.509,1.819-6.781,1.028-4.261,1.852-8.563,3.009-12.793.279-1.018-2.632-.586-2.9.377Z" fill="#c2a1f2"/><path d="M280.79,87.581c-15.839,14.586-36.908,25.546-47.174,45.259a.758.758,0,0,0,.266.991c6.915,4.67,13.295,9.878,17.995,16.849,4.781,7.091,7.229,15.607,9.674,23.708.335,1.11,2.533.747,2.833-.228,8.614-28.046,17.582-56.907,20.083-86.274.127-1.488-2.823-1.069-2.934.228-2.484,29.173-11.359,57.864-19.917,85.726l2.833-.228c-2.423-8.028-4.953-16.079-9.332-23.288-4.345-7.152-10.916-12.568-17.706-17.282-3.729-2.588,18.9-22.651,20.995-24.377,8.244-6.786,16.94-13,24.8-20.247,1.325-1.219-1.494-1.69-2.42-.837Z" fill="#c2a1f2"/><path d="M302.384,72.16c.758-2.374,6.653-3.827,8.646-4.56,5.177-1.9,10.495-3.439,15.807-4.917,9.458-2.632,19.257-5.459,29.031-6.633q-.666-.469-1.335-.937c-.149,20.18-4.713,40.048-2.982,60.275l1.953-1.432c-16.822-1.486-33.964-13.518-45.177-25.591l-2.445,1.466c15.227,8.4,29.527,23.53,47.614,25.213.641.06,1.978-.295,1.971-1.157-.1-13.694-1.219-26.938.249-40.611.455-4.237,4.309-13.6-.207-16.9-6.382-4.654-16.922-2.332-23.794-.331-10.9,3.174-20.83,8.964-31.354,13.109-1.852.729-.209,2.273,1.277,1.688,8.49-3.344,16.583-7.6,25.082-10.929a56.258,56.258,0,0,1,15.112-3.844c3.436-.328,9.623-.386,12.037,2.652,1.437,1.808.511,5.127.162,7.146-.7,4.061-1.2,8.109-1.771,12.187-1.661,11.924.184,24.091.271,36.057l1.971-1.157c-17.512-1.629-31.608-16.64-46.386-24.787-.789-.435-3.495.336-2.445,1.466,11.662,12.557,29.3,24.861,46.823,26.409.872.077,2.04-.412,1.953-1.432-1.714-20.029,2.87-39.739,3.018-59.725.006-.7-.7-1.013-1.335-.937-10.779,1.294-21.546,4.434-31.964,7.37a169.677,169.677,0,0,0-17.18,5.659c-2.166.869-6.551,2.289-7.372,4.861-.507,1.593,2.383,1.531,2.77.32Z" fill="#c2a1f2"/><path d="M238.829,59.634c15.851,5.381,31.344,13.654,48.259,15.059.758.063,3.374-1.256,1.824-1.385-16.72-1.389-32.067-9.62-47.741-14.941-.763-.26-3.39.911-2.342,1.267Z" fill="#c2a1f2"/><path d="M299.551,73.388c2.978,7.2,21.194-.708,25.512-2.293,10.644-3.91,23.223-8.59,32.085-15.911,1.252-1.034-1.646-.9-2.3-.367-7.279,6.014-17.277,9.748-25.9,13.289-3.756,1.542-23.881,10.851-26.5,4.507-.386-.932-3.233-.034-2.9.775Z" fill="#c2a1f2"/><path d="M297.551,93.388c5.24,27.451,16.659,53.128,24,80,.244.894,2.774.186,2.893-.59a42.584,42.584,0,0,1,14.035-25.351c5.472-4.9,16.079-11.1,22.171-3.9.515.608,3.207-.206,2.8-.935-9.273-16.591-27.887-25.2-41.1-38.159-3.861-3.786-6.416-8.838-10.13-12.794-1.558-1.66-5.443-2.895-5.664.542-.069,1.082,2.83.474,2.887-.4.066-1.029-2.229-.953-.868.071a14.453,14.453,0,0,1,2.006,2.05c1.711,1.934,3.223,4.054,4.761,6.124a65.95,65.95,0,0,0,10.914,11.468c11.81,9.93,26.55,18.02,34.295,31.876l2.8-.935c-5.551-6.557-15.321-3.15-21.523.491A43.344,43.344,0,0,0,321.558,173.2l2.893-.59c-7.342-26.872-18.761-52.549-24-80-.173-.892-3.085-.188-2.9.779Z" fill="#c2a1f2"/><path d="M289.165,78.344c-9.063-5.4-19.329-6.679-28.31-.519-.372.255-.4.609-.021.831,7.356,4.253,16.677.767,24,5,.733.424,3.426-.678,2.33-1.312-5.112-2.956-11.481-2.375-17.159-2.932a22.211,22.211,0,0,1-4.761-1.021c-3.41-1.113,6.288-3.313,7.671-3.345,4.942-.112,9.775,2.142,13.919,4.609.728.434,3.423-.661,2.331-1.311Z" fill="#c2a1f2"/><path d="M305.873,82.333c6.591-3.922,16.824-2.32,22.773,2.205.271-.341.54-.683.811-1.024-8.763,3.486-18.13.914-27.23,1.793-1.324.128-2.478,1.583-.453,1.387,9.781-.946,19.326,1.55,28.77-2.207.219-.087,1.31-.644.811-1.024-7.245-5.511-19.321-6.5-27.227-1.795-1.677,1,.921,1.155,1.745.665Z" fill="#c2a1f2"/><path d="M290.8,70.542c10.452,1.537,10.007,15.159,4.769,21.723-.145.181,2.325.132,2.854-.53,5.546-6.95,5.508-20.7-5.231-22.277-.666-.1-3.127.977-2.392,1.084Z" fill="#c2a1f2"/><path d="M279.562,92.22c-5.487,10.5-13.262,20.789-20.891,29.822-.713.843,2.145.523,2.658-.085,7.726-9.147,15.552-19.537,21.109-30.178.327-.624-2.453-.37-2.876.441Z" fill="#c2a1f2"/><path d="M300.551,91.388c5.227,13.207,12.977,25.171,19,38,.55,1.169,3.4.3,2.9-.776-6.023-12.828-13.775-24.8-19-38-.472-1.195-3.345-.355-2.9.776Z" fill="#c2a1f2"/><path d="M169.449,242.611c-1.99-12.893-13.855-21.271-24.364-27.326-12.8-7.379-26.951-12.271-40.917-16.93-13.708-4.573-27.854-9.147-39.94-17.268-12.96-8.708-20.011-21.85-19.78-37.476.011-.721-2.882-.238-2.9.776-.217,14.6,5.774,26.82,17.224,35.785,11,8.612,24.776,13.2,37.821,17.674,13.723,4.7,27.489,9.229,40.508,15.711,12.1,6.024,27.192,15.223,29.447,29.83.128.83,3.044.169,2.9-.776Z" fill="#c2a1f2"/><path d="M44.458,122.854c4.279-38.58,54.459-29.525,80.463-22.58,16.957,4.529,35.046,5.553,49.171-6.482,15.382-13.106,22.706-40.239,15.356-59.18-.453-1.167-3.326-.326-2.9.776,7.9,20.356-1.15,49.317-19.444,61.156-16.666,10.786-36.863,2.213-54.37-1.289-25.907-5.182-67.324-7.018-71.195,27.89-.148,1.339,2.791.854,2.917-.291Z" fill="#c2a1f2"/><path d="M183.548,36.168c.177,13.477-9.688,22.4-21.213,27.587-15.759,7.087-33.033,7.514-49.482,2.887-12.912-3.632-25.479-7.77-39.056-5.9C62.306,62.334,50.772,67.061,42.406,75.21c-1.235,1.2,1.617,1.256,2.344.549C56.614,64.2,74.479,60.171,90.492,62.866c15.059,2.535,28.606,8.967,44.164,8.686,20.285-.366,52.124-10.8,51.8-35.721-.017-1.28-2.919-.673-2.905.337Z" fill="#c2a1f2"/><path d="M143.509,67.709c-8.385,3.172-16.529-6.6-20.646-12.467-4.2-5.978-7.682-13.292-8.414-20.63-.049-.491-2.97.05-2.9.776,1.394,13.98,15.717,39.418,32.939,32.9,1.937-.732.089-.987-.982-.582Z" fill="#c2a1f2"/><path d="M147.449,68.612c-6.1-10.194-8.146-22.42-15.1-32.158-.517-.723-3.321.225-2.7,1.093,6.872,9.627,8.873,21.759,14.9,31.842.539.9,3.294-.115,2.9-.777Z" fill="#c2a1f2"/><path d="M158.465,65.879c.134-9.922,2.233-20.633-1.016-30.267-.432-1.282-3.32-.476-2.9.776,3.2,9.477,1.115,19.965.984,29.733-.021,1.479,2.912,1.01,2.929-.242Z" fill="#c2a1f2"/><g transform="translate(0 2.082)"><g transform="translate(168.503 31.968)"><path d="M171.376,58.1a42.541,42.541,0,0,0,5.073-25.539c-.113-1.142-3.02-.507-2.9.72a41.122,41.122,0,0,1-4.927,24.578c-.749,1.291,2.189,1.21,2.752.241Z" transform="translate(-168.503 -31.968)" fill="#c2a1f2"/></g></g><path d="M191.918,66.5c6.088-3.629,15.294-7.616,18.442-14.429.627-1.357-2.282-1.1-2.721-.146-2.956,6.4-11.8,10.137-17.558,13.571-1.685,1,.82,1.61,1.837,1Z" fill="#c2a1f2"/><path d="M182.836,80.662c16.343,7.479,36.576-4.97,47.5-16.67.788-.844-2.1-.6-2.678.018-9.853,10.551-27.783,22.063-42.5,15.33-.784-.36-3.451.807-2.328,1.322Z" fill="#c2a1f2"/><path d="M209.674,50.053a20.917,20.917,0,0,0-3.11,5.172c-.271.539,1.018.444,1.2.417.558-.088,1.4-.311,1.678-.868a19.534,19.534,0,0,1,2.89-4.828c.472-.5-.4-.638-.725-.625a2.917,2.917,0,0,0-1.928.732Z" fill="#c2a1f2"/><path d="M173.839,97.94c3.357-.535,7.146,5.03,10.3,5.948a60.938,60.938,0,0,0,16.945,2.388c10.886.053,21.665-2.791,32.147-5.408,1.779-.444,1.3-2.177-.465-1.735-11.884,2.967-23.818,5.877-36.16,5.057-6.115-.407-11.453-1.9-16.24-5.7-1.909-1.519-3.688-2.827-6.206-2.425-1.49.236-2.3,2.195-.322,1.879Z" fill="#c2a1f2"/><path d="M161.551,101.388c7.83,16.409,19.829,32.009,33.007,44.439,11.368,10.722,28.573,21.056,42.755,9.07.159-.135.167-.246.051-.394-17.673-22.453-44.327-35.547-62-58-.438-.557-3.184.416-2.729.993,12.137,15.419,28.521,26.523,43.36,39.1q5.409,4.586,10.432,9.6c1.835,1.831,3.573,3.754,5.276,5.708,1.976,2.266,3.188,3.32.32,5.182-5.889,3.823-13.165,1.93-19.023-.864-11.834-5.645-21.321-16.322-29.411-26.344-7.254-8.987-14.152-18.808-19.141-29.263-.346-.728-3.136.273-2.9.775Z" fill="#c2a1f2"/><path d="M148.561,104.217c-6.855,12.82-1.255,27.3,6.709,38.19,8.075,11.038,20.863,20.856,34.818,22.287.344.035,2.758-.328,2.361-1.082-10.922-20.739-24.29-41.01-30-64-.208-.839-3.111-.083-2.9.776,5.71,22.99,19.078,43.261,30,64l2.361-1.082c-23.985-2.458-53.569-35.033-40.473-59.523.337-.632-2.443-.382-2.879.434Z" fill="#c2a1f2"/><path d="M171.816,95.584c1.029.188,2,2.25,2.5,3.016a63.877,63.877,0,0,1,3.239,5.788c.387.765,3.165-.248,2.9-.776a68.631,68.631,0,0,0-3.51-6.208c-.6-.93-1.543-2.768-2.755-2.989a3.365,3.365,0,0,0-2.03.354c-.216.107-1.02.691-.338.815Z" fill="#c2a1f2"/><path d="M130.173,69.1c-15.309.814-42.164-7.138-41.717-26.26l-2.324,1.012C105.824,47.85,122.7,60.818,140.861,68.75c.959.418,3.581-.932,2.28-1.5-18.348-8.012-35.374-21.07-55.271-25.106-.618-.125-2.3.094-2.324,1.012-.479,20.531,27.881,28.612,44.283,27.74,1.511-.081,2.338-1.9.344-1.792Z" fill="#c2a1f2"/><path d="M141.2,64.473c-8.111-.622-15.273-12.363-14.751-19.861l-2.819.864c7.1,6.394,11.4,15.143,18,22l2.74-.951c-6.4-5.64-11.514-12.363-16.921-18.913-.434-.526-3.1.378-2.9.776,4.2,8.152,9.684,15.576,17.079,21.087.61.455,3.056-.716,2.74-.951-7.337-5.469-12.761-12.831-16.921-20.913l-2.9.776c5.462,6.617,10.614,13.391,17.079,19.087.509.449,3.1-.574,2.74-.951-6.6-6.86-10.9-15.6-18-22-.433-.39-2.775.238-2.819.864-.533,7.652,6.948,19.5,15.249,20.139.652.052,3.05-1,2.4-1.053Z" fill="#c2a1f2"/><path d="M151.449,63.612c-1.518-3.4-2.225-7.314-3.007-10.933-1-4.637-2.268-10.127-.979-14.81l-2.911.519c1.978,8.563,2.218,17.4,4,26,.242,1.167,2.921.563,2.911-.519-.076-7.928-1.036-15.859-4.014-23.257-.446-1.109-2.793-.616-2.911.519-.947,9.1.423,20.056,6.13,27.487.618.8,2.7.3,2.794-.749.86-9.388-.633-19.139-5.13-27.487-.538-1-2.6-.134-2.794.749a36.624,36.624,0,0,0,5.13,27.487c.576.859,2.7.257,2.794-.749.873-9.343-.1-20.346-5.13-28.487-.634-1.027-3.418.015-2.664,1.236,4.82,7.809,5.7,18.594,4.87,27.513l2.794-.749a35.351,35.351,0,0,1-4.87-26.513l-2.794.749c4.315,8.01,5.693,17.526,4.87,26.513l2.794-.749c-5.469-7.12-6.774-17.825-5.87-26.513l-2.911.519c2.912,7.235,3.912,14.981,3.986,22.743l2.912-.519c-1.782-8.6-2.022-17.437-4-26-.3-1.3-2.653-.417-2.911.519-1.241,4.506-.085,9.718.773,14.187.765,3.981,1.577,8.343,3.24,12.071.538,1.206,3.4.351,2.9-.777Z" fill="#c2a1f2"/><path d="M155.139,103.976c-10.256,1.106,7.361,34.9,11.739,38.841.771.693,2.755-.1,2.571-1.205-2.264-13.6-7.722-26.346-13-39-.464-1.112-2.837-.694-2.914.509-.8,12.589,3.336,26.282,12.136,35.507.715.75,3.148.3,2.778-1.016-3.066-10.874-7.671-21.213-11-32-.357-1.158-2.944-.648-2.914.509.186,7.025,2.743,14.234,4.947,20.832.692,2.072,2.871,11.658,6.379,11.071,1.548-.259,2.244-2.377.277-2.048.5-.083-1.359-3.4-1.732-4.3-1.171-2.813-2.122-5.722-3.043-8.625-1.725-5.436-3.746-11.422-3.9-17.176l-2.914.509c3.328,10.787,7.934,21.126,11,32l2.778-1.016c-8.544-8.958-12.643-22.252-11.864-34.493l-2.914.509c5.277,12.654,10.735,25.4,13,39l2.571-1.205c-4.855-4.365-7.524-12.078-9.9-17.948-.6-1.475-5.734-17.063-4.363-17.211,1.587-.171,2.258-2.261.278-2.048Z" fill="#c2a1f2"/><path d="M176.643,88.523c10.878,9.047,30.448,8,40.684-1.576a.316.316,0,0,0-.15-.564c-12.151-2.985-24.908-.426-36.935,1.975-.265.053-2.5.857-1.417,1.259,11.573,4.292,24.612,3,36.325-.059.229-.06,2.023-.918,1.026-1.176-11.059-2.851-22.25-3.031-33.574-2.061-.2.017-2.719.707-1.959,1.2,8.478,5.516,19.372,3.938,28.507,1.036.786-.25,2.065-1.225.452-1.237-8.887-.065-17.589-.661-26.131,2.243-.892.3-1.3,1.114-.072,1.114,9.835,0,19.69-.033,29.36-2.036.422-.087,2.684-1.143,1.16-1.312-9.282-1.026-18.447-1.809-27.678.027-.5.1-1.69.343-1.69,1.03v1a.378.378,0,0,0,.273.229c6.629,2,13.7,2.057,20.574,2.061.578,0,3.066-1.144,1.521-1.348-8.751-1.153-17.31-2.76-26.068-.889-.144.03-1.835.751-1.208,1.082,6.024,3.173,13.706,3.583,20.378,3.358,3.039-.1,11.705-.6,11.429-5.27-.041-.692-2.953-.152-2.9.776.391,6.589-22.779,1.887-26.193.089l-1.208,1.082c7.956-1.7,16.018.068,23.932,1.111L206.6,90.32c-2.508,0-19.152.4-19.152-2.71l-1.69,1.03c8.783-1.748,17.5-.947,26.322.027l1.16-1.312c-9.436,1.955-19.046,1.961-28.64,1.964-.023.371-.048.743-.072,1.114,7.718-2.623,15.869-1.816,23.869-1.757q.225-.618.452-1.237c-8.257,2.623-17.834,4.02-25.493-.964l-1.959,1.2c10.933-.937,21.745-.814,32.426,1.939q.513-.588,1.026-1.176c-10.9,2.847-22.917,3.932-33.675-.059l-1.417,1.259c5.026-1,10.055-1.942,15.14-2.6a83.057,83.057,0,0,1,9.6-.632c1-.013,11.221.122,7.662,2.7-8.994,6.521-24.414,5.342-32.8-1.635-.677-.558-3.308.557-2.717,1.049Z" fill="#c2a1f2"/><g transform="translate(2.904)"><g transform="translate(183.552 60.991)"><path d="M184.1,71.929c9.448,4.524,21.445-2.428,28.227-9.549.731-.768-.258-1.492-.958-1.375-8.323,1.389-16.267,5.619-22.81,11.393-1.111.979.072,1.8,1.085,1.528,8.028-2.156,15.056-6.646,22.159-11.136,1.341-.847.542-2.045-.793-1.714-9.172,2.277-18.425,5.28-25.41,12.545-.948.987.655,1.48,1.316,1.305A69.4,69.4,0,0,0,211.18,62.6c.931-.713.251-1.746-.726-1.6-8.007,1.2-16.81,3.933-21.383,11.864-.756,1.311,1.928,1.259,2.5.264,3.946-6.843,11.74-9.1,18.616-10.136q-.363-.8-.726-1.6a65.708,65.708,0,0,1-23,11.678l1.316,1.305c6.469-6.729,15.21-9.353,23.679-11.455q-.4-.856-.793-1.714c-6.892,4.355-13.68,8.77-21.476,10.864l1.085,1.528C196.233,68.345,203.491,64.266,211.1,63q-.479-.687-.958-1.375c-5.913,6.209-16.3,12.379-24.5,8.451-1.028-.495-3.061,1.129-1.544,1.856Z" transform="translate(-183.552 -60.991)" fill="#c2a1f2"/></g></g><path d="M171.366,97.173c-4.408,2.423-.341,9.075,1.343,12.058,3.057,5.412,8.227,12.574,14.783,13.8.9.167,2.367-.625,1.836-1.66-4.37-8.521-9.936-16.872-17.208-23.191-.754-.655-2.824.077-2.569,1.21,2.409,10.722,9.411,19.282,18.328,25.434.876.6,3.162-.193,2.449-1.453-4.878-8.626-10.711-16.631-16-25-.659-1.042-2.914-.167-2.777,1.019,1.464,12.774,11.18,24.541,22.328,30.434,1.085.574,3.646-.9,2.242-1.644-10.875-5.748-20.245-17.109-21.672-29.566l-2.777,1.019c5.289,8.369,11.123,16.374,16,25l2.449-1.453c-8.641-5.96-15.339-14.182-17.672-24.566l-2.569,1.21c7.1,6.173,12.527,14.494,16.792,22.809l1.836-1.66c-4.938-.922-8.811-6.5-11.469-10.34-.81-1.168-6.811-10.481-4.4-11.8,1.731-.952.161-2.439-1.268-1.654Z" fill="#c2a1f2"/><path d="M191.159,53.593a17.236,17.236,0,0,0,7.228-4.11c1.649-1.527,4.063-3.515,4.063-5.872,0-.656-1.754-.158-1.987-.081-1.868.617-4.023,1.032-5.658,2.189-1.816,1.286-2.933,3.508-4.135,5.315-.739,1.112,2.1.363,2.468.109a57.892,57.892,0,0,0,8.194-7.181l-2.662.071-6,6c-.5.5.425.681.737.672a2.869,2.869,0,0,0,1.925-.744,25.351,25.351,0,0,1,5.537-4.648c1.708-.93-.924-1.075-1.736-.633a29.266,29.266,0,0,0-6.463,5.352l2.662-.071,6-6c.5-.5-.425-.681-.737-.672a2.869,2.869,0,0,0-1.925.744,55.006,55.006,0,0,1-7.806,6.819l2.468.109c1.021-1.534,1.972-3.435,3.371-4.673,1.2-1.063,3.364-1.337,4.836-1.823l-1.987-.081c0,1.643-1.665,2.933-2.778,4.13a12.988,12.988,0,0,1-5.932,3.889c-1.709.475-1.4,1.662.317,1.19Z" fill="#c2a1f2"/><path d="M159.551,68.388c3.292,9.586,8.964,19.944,19.58,22.468,1.038.247,3.434-1.309,1.738-1.712-10.041-2.387-15.327-12.525-18.42-21.532-.389-1.133-3.271-.31-2.9.776Z" fill="#c2a1f2"/><path d="M132.551,73.388c-.11,10.985,1.321,23.488,10.1,31.147.688.6,3.358-.5,2.708-1.07-8.678-7.576-10.014-20-9.9-30.853.007-.713-2.888-.229-2.9.776Z" fill="#c2a1f2"/><path d="M99.811,66.661c-3.3,3.151-2.4,8.741-1.652,12.746,1.139,6.106,3.865,12.908,8.506,17.2.861.8,3.6-.353,2.671-1.21-3.807-3.52-5.895-8.422-7.41-13.288C100.7,78.17,98.7,70.67,102.189,67.34c1.276-1.22-1.565-1.457-2.378-.679Z" fill="#c2a1f2"/><path d="M110.166,95.254c4.548-4.048,11-5.994,16.413-8.636.661-.323,1.359-1.09.3-1.421-6.566-2.061-13.449-2.994-19.733-5.91l-1.342,1.538c6.728-1.044,13.3-2.806,20-4,.565-.1,2.38-.807,1.342-1.538a38.912,38.912,0,0,0-14.267-6.09c-.949-.211-3.425,1.238-1.766,1.606a37.427,37.427,0,0,1,13.733,5.91l1.342-1.538c-6.7,1.194-13.274,2.957-20,4-.418.065-2.534.984-1.342,1.538,6.458,3,13.518,3.972,20.267,6.09q.153-.711.3-1.421c-5.834,2.851-12.666,4.983-17.587,9.364-1.267,1.127,1.609,1.152,2.332.508Z" fill="#c2a1f2"/><path d="M81.344,63.092c-4.683,2.673-8.132,6.868-12.317,10.2a.97.97,0,0,0-.136,1.574c4.348,4.081,9.652,6.919,14,11l-.114-1.331c-2.034,2.456-2.972,5.551-5,8-1.186,1.432,1.561,2,2.446.934,2.034-2.456,2.972-5.551,5-8a.9.9,0,0,0-.114-1.331c-4.348-4.081-9.652-6.919-14-11q-.067.786-.136,1.574c3.966-3.156,7.247-7.27,11.683-9.8,1.705-.973.159-2.655-1.312-1.816Z" fill="#c2a1f2"/><path d="M70.628,63.884c-.6,1.7-2.937,3.307-4.2,4.509-2.2,2.1-4.459,4.122-6.625,6.25-.226.222-.422.7-.14.969,5.219,4.956,15.059,8.81,9.961,17.272-.792,1.316,2.153,1.213,2.744.232,4.125-6.848-.052-10.879-5.546-15.006-1.312-.985-4.876-2.534-3.3-4.046,1.446-1.385,2.924-2.736,4.386-4.1,1.668-1.561,4.659-3.591,5.458-5.844.534-1.5-2.358-1.319-2.743-.232Z" fill="#c2a1f2"/><path d="M41.652,78.559c5.621,7.09,8.743,15.919,9.9,24.829.121.934,3.035.278,2.9-.776-1.174-9.05-4.4-17.976-10.1-25.171-.6-.753-3.386.247-2.695,1.118Z" fill="#c2a1f2"/><path d="M41.649,91.549c1.634,1.947,2.516,4.906,3.429,7.23a29.818,29.818,0,0,1,2.473,9.609c.028.824,2.934.271,2.9-.776-.124-3.579-1.483-7.091-2.778-10.387C46.8,95.017,45.9,92.3,44.35,90.451c-.6-.71-3.37.3-2.7,1.1Z" fill="#c2a1f2"/><path d="M44.433,222.76c2.443-14.26,11.223-29.046,23.687-36.677,1.256-.769-1.675-.511-2.24-.165C53.172,193.7,44.059,208.7,41.567,223.241c-.135.786,2.737.273,2.866-.481Z" fill="#c2a1f2"/><path d="M46.449,235.611c.775-8.712,5.161-16.857,9.8-24.093,5.195-8.094,12.094-16.5,20.592-21.289,1.681-.947-.976-.861-1.69-.459-7.917,4.462-14.064,11.481-19.368,18.737-5.887,8.055-11.336,17.77-12.236,27.881-.041.467,2.817.136,2.9-.777Z" fill="#c2a1f2"/><path d="M66.336,240.4a86.432,86.432,0,0,1-8.887-18.785l-1.98,1.328c12.469.093,24.9,1.882,37.369.994.537-.038,2.192-.746,1.5-1.537-6.433-7.329-14.033-13.474-19-22q-.554.732-1.105,1.465c9.922-2,20.256-.907,30.237.078,1.27.126,3.025-1.686,1.063-1.879-10.534-1.04-21.3-2.031-31.763.078-.635.128-1.521.749-1.105,1.465,4.967,8.526,12.567,14.671,19,22l1.5-1.537c-12.221.869-24.411-.916-36.631-1.006-.6-.005-2.274.37-1.98,1.328,2.1,6.842,5.462,13.092,9.113,19.215.578.971,3.376-.024,2.671-1.207Z" fill="#c2a1f2"/><path d="M88.449,243.611C88,236.2,95.132,227.986,99.332,222.56c5.016-6.479,11.478-14.749,19.205-18.1,1.872-.812.124-1.446-1.074-.928-8.132,3.524-14.619,11.441-20.042,18.154-4.608,5.7-12.354,14.772-11.87,22.7.045.739,2.957.186,2.9-.776Z" fill="#c2a1f2"/><path d="M99.449,240.611c-1.694-6.363,4.589-13.235,8.394-17.606a69.4,69.4,0,0,1,17.045-14.619c1.694-.976-.887-1.282-1.774-.771-6.819,3.926-12.726,9.563-17.955,15.381-4,4.449-10.358,11.817-8.606,18.394.251.948,3.149.173,2.9-.779Z" fill="#c2a1f2"/><path d="M132.451,243.826c.312-3.261,1.593-5.848,1-9.215l-1.639,1.218c3.126-.232,6.145-1.763,9.309-1.022.7.165,2.438-.2,2.331-1.2-.561-5.2,1.792-7.664,6.994-7.766,1.107-.021,3.071-1.729,1.114-1.691-6.766.131-11.811,2.768-11.006,10.234l2.331-1.2c-3.714-.869-7.033.705-10.691.978-.55.041-1.772.468-1.639,1.218.577,3.264-.705,5.673-1,8.785-.117,1.21,2.8.662,2.9-.349Z" fill="#c2a1f2"/><path d="M150.194,242.358c3.721-3.714,7.742-8.123,12.422-10.6,1.755-.929.16-2.256-1.232-1.52-5.126,2.711-9.506,7.338-13.578,11.4-1.262,1.261,1.564,1.541,2.388.718Z" fill="#c2a1f2"/><path d="M159.468,241.889c.1-1.3,1.479-2.4,2.377-3.2,1.612-1.45,3.382-2.729,5.115-4.029,1.576-1.183-.777-2.172-1.92-1.314a68,68,0,0,0-5.752,4.607c-1.17,1.1-2.619,2.458-2.756,4.161-.12,1.5,2.83,1.082,2.936-.223Z" fill="#c2a1f2"/><g transform="translate(77.954 120.968)" fill="#fff" stroke="#c2a1f2" stroke-width="1"><ellipse cx="7.5" cy="8.5" rx="7.5" ry="8.5" stroke="none"/><ellipse cx="7.5" cy="8.5" rx="7" ry="8" fill="none"/></g><g transform="translate(147.954 181.968)" fill="#fff" stroke="#c2a1f2" stroke-width="1"><ellipse cx="4.5" cy="5.5" rx="4.5" ry="5.5" stroke="none"/><ellipse cx="4.5" cy="5.5" rx="4" ry="5" fill="none"/></g><g transform="translate(221.954 189.968)" fill="#fff" stroke="#c2a1f2" stroke-width="1"><ellipse cx="5" cy="6.5" rx="5" ry="6.5" stroke="none"/><ellipse cx="5" cy="6.5" rx="4.5" ry="6" fill="none"/></g><g transform="translate(281.954 142.968)" fill="#fff" stroke="#c2a1f2" stroke-width="1"><circle cx="8" cy="8" r="8" stroke="none"/><circle cx="8" cy="8" r="7.5" fill="none"/></g><g transform="translate(297.954 42.968)" fill="#fff" stroke="#c2a1f2" stroke-width="1"><ellipse cx="5" cy="5.5" rx="5" ry="5.5" stroke="none"/><ellipse cx="5" cy="5.5" rx="4.5" ry="5" fill="none"/></g><g transform="translate(73.954 42.968)" fill="#fff" stroke="#c2a1f2" stroke-width="1"><ellipse cx="6" cy="5.5" rx="6" ry="5.5" stroke="none"/><ellipse cx="6" cy="5.5" rx="5.5" ry="5" fill="none"/></g><g transform="translate(307.954 211.968)" fill="#fff" stroke="#c2a1f2" stroke-width="1"><ellipse cx="9" cy="7.5" rx="9" ry="7.5" stroke="none"/><ellipse cx="9" cy="7.5" rx="8.5" ry="7" fill="none"/></g><g transform="translate(68.954 158.968)" fill="#fff" stroke="#c2a1f2" stroke-width="1"><ellipse cx="8.5" cy="8" rx="8.5" ry="8" stroke="none"/><ellipse cx="8.5" cy="8" rx="8" ry="7.5" fill="none"/></g></g></g></svg>